<?xml version="1.0" encoding="utf-8"?>
<!-- Generator: Adobe Illustrator 20.1.0, SVG Export Plug-In . SVG Version: 6.00 Build 0)  -->
<svg version="1.1" id="Layer_1" xmlns="http://www.w3.org/2000/svg" xmlns:xlink="http://www.w3.org/1999/xlink" x="0px" y="0px"
	 viewBox="0 0 781.3 494" style="enable-background:new 0 0 781.3 494;" xml:space="preserve">
<style type="text/css">
	.st0{fill:#063F5F;}
	.st1{fill:#41C5EB;}
	.st2{fill:url(#SVGID_1_);}
	.st3{fill:url(#SVGID_2_);}
	.st4{fill:url(#SVGID_3_);}
	.st5{fill:url(#SVGID_4_);}
	.st6{fill:#EB2B90;}
	.st7{fill:#C06DAB;}
	.st8{fill:#41C5EA;}
	.st9{fill:#AE71AF;}
	.st10{fill:#1592A4;}
	.st11{fill:#3B7B96;}
	.st12{fill:#3C6DB4;}
	.st13{fill:none;stroke:#063F5F;stroke-width:6;stroke-miterlimit:10;}
</style>
<title>ADx HealthCare Logo DESIGN 003</title>
<path class="st0" d="M2.6,383c0-2.3,1.2-3.6,3.5-3.6h3c2.2,0,3.5,1.3,3.5,3.6v42.6h59V383c0-2.3,1.2-3.6,3.5-3.6h2.9
	c1.8-0.2,3.4,1.1,3.6,2.9c0,0.2,0,0.5,0,0.7v94.3c0.2,1.8-1.1,3.4-2.9,3.6c-0.2,0-0.5,0-0.7,0H75c-2.3,0-3.5-1.3-3.5-3.6v-42.7h-59
	v42.8c0,2.3-1.3,3.6-3.5,3.6h-3c-2.3,0-3.5-1.3-3.5-3.6V383z"/>
<path class="st0" d="M147.4,406.6c19.4,0,30.3,14,30.3,34.7c0,2-1.6,3.6-3.6,3.6c-0.1,0-0.1,0-0.2,0h-52.3c0.4,18.5,13.1,29,28.2,29
	c6.9,0,13.6-2.4,19.1-6.7c2-1.3,3.6-1,4.8,0.9l1.2,1.7c1.1,1.5,0.7,3.6-0.9,4.7c0,0-0.1,0.1-0.1,0.1c-7,5.2-15.5,8-24.3,8.1
	c-21.7,0-38-15.6-38-38C111.6,420.9,127.7,406.6,147.4,406.6z M167.8,437.5c-0.6-15.3-9.8-22.8-20.7-22.8c-12.1,0-22.7,8.1-25,22.8
	H167.8z"/>
<path class="st0" d="M243.9,436.5h4.2v-2.3c0-14-7.7-18.8-17.9-18.8c-6.2,0-12.3,1.8-17.6,5.1c-2,1-3.6,0.7-4.9-1.2l-0.9-1.4
	c-1.2-1.9-0.9-3.8,1-4.9c7-4.2,15-6.4,23.1-6.4c17.3,0,27,9.7,27,27.9v42.9c0,2.3-1.2,3.6-3.5,3.6h-2.3c-2.3,0-3.6-1.2-3.6-3.6v-5.8
	c0-1.8,0.1-3.7,0.4-5.5h-0.3c0.1,0-6.5,16.6-24.6,16.6c-12.3,0-24.6-7.2-24.6-21.2C199.6,437.8,229.9,436.5,243.9,436.5z
	 M225.9,474.5c14,0,22.3-14.5,22.3-27.2v-3.5h-4c-11.4,0-34.4,0.4-34.4,16.8C209.7,467.4,215,474.5,225.9,474.5L225.9,474.5z"/>
<path class="st0" d="M290.1,383c0-2.3,1.2-3.6,3.5-3.6h2.8c1.8-0.2,3.4,1.1,3.6,2.9c0,0.2,0,0.5,0,0.7v79c0,9.1,4.3,10.1,7.5,10.5
	c1.6-0.1,3,1.2,3,2.8c0,0.1,0,0.2,0,0.4v2.3c0,2.2-1,3.6-3.8,3.6c-5.9,0-16.6-1.9-16.6-17.8V383z"/>
<path class="st0" d="M338.4,417.1h-6.1c-2.3,0-3.5-1.2-3.5-3.5v-1.2c0-2.3,1.2-3.6,3.5-3.6h6.2v-17.1c-0.2-1.8,1.1-3.4,2.9-3.6
	c0.2,0,0.5,0,0.7,0h2.6c2.3,0,3.5,1.3,3.5,3.6v17.1H363c1.8-0.2,3.4,1.1,3.6,2.9c0,0.2,0,0.5,0,0.7v1.2c0,2.3-1.3,3.5-3.6,3.5h-14.7
	v36.4c0,16.8,10.3,18.8,15.9,19.1c2.9,0.3,3.9,1.2,3.9,3.6v1.9c0,2.3-1.2,3.5-4,3.5c-15.9,0-25.6-9.7-25.6-26.7L338.4,417.1z"/>
<path class="st0" d="M392.7,383c0-2.3,1.2-3.6,3.5-3.6h2.7c1.8-0.2,3.4,1.1,3.6,2.9c0,0.2,0,0.5,0,0.7v36.3c0,2-0.2,4-0.6,5.9h0.3
	c2.8-6.8,12.6-18.6,29-18.6c18.1,0,24.4,10.3,24.4,28.2v42.6c0,2.3-1.2,3.6-3.5,3.6h-2.7c-1.8,0.2-3.4-1.1-3.6-2.9
	c0-0.2,0-0.5,0-0.7v-40c0-11.4-1.7-21.5-15.9-21.5c-15.3,0-27.5,12.6-27.5,30.1v31.5c0.2,1.8-1.1,3.4-2.9,3.6c-0.2,0-0.5,0-0.7,0
	h-2.7c-2.3,0-3.5-1.3-3.5-3.6V383z"/>
<path class="st0" d="M521.2,406.6c8.8-0.1,17.3,2.8,24.1,8.2c1.7,1.3,1.9,3,0.4,4.9l-1,1.6c-1.3,2-2.9,2-4.9,0.7
	c-5.2-4.2-11.7-6.5-18.3-6.7c-15.9,0-28.3,12-28.3,29.3s12.4,29.2,28.5,29.2c7.5,0,14.8-2.8,20.5-7.7c1.9-1.4,3.5-1.2,4.8,0.9l1,1.5
	c1.2,1.9,0.7,3.5-0.9,4.9c-7.3,6-16.4,9.3-25.9,9.3c-21.7,0-38.2-15.5-38.2-38S499.7,406.6,521.2,406.6z"/>
<path class="st0" d="M613.8,436.5h4.2v-2.3c0-14-7.7-18.8-17.9-18.8c-6.2,0-12.3,1.8-17.6,5.1c-2,1-3.6,0.7-4.9-1.2l-0.9-1.4
	c-1.2-1.9-0.9-3.8,1-4.9c7-4.2,15-6.4,23.1-6.4c17.3,0,27,9.7,27,27.9v42.9c0,2.3-1.2,3.6-3.5,3.6H622c-2.3,0-3.6-1.2-3.6-3.6v-5.8
	c0-1.8,0.1-3.7,0.4-5.5h-0.3c0.1,0-6.5,16.6-24.6,16.6c-12.3,0-24.6-7.2-24.6-21.2C569.5,437.8,599.8,436.5,613.8,436.5z
	 M595.8,474.5c14,0,22.3-14.5,22.3-27.2v-3.5h-4c-11.4,0-34.4,0.4-34.4,16.8C579.6,467.4,584.9,474.5,595.8,474.5z"/>
<path class="st0" d="M659.9,411.9c-0.2-1.8,1.1-3.4,2.9-3.6c0.2,0,0.5,0,0.7,0h2.6c2.2,0,3.5,1.3,3.5,3.6v9.8c0,1.9-0.2,3.9-0.6,5.8
	h0.3c3.5-10.5,11.8-19.7,23.4-19.7c2.6,0,3.8,1.2,3.8,3.5v2.6c0,2.3-1.6,3.6-4,3.6c-15.3,0-22.7,17.5-22.7,32.7v27.2
	c0,2.3-1.2,3.6-3.5,3.6h-2.7c-1.8,0.2-3.4-1.1-3.6-2.9c0-0.2,0-0.5,0-0.7L659.9,411.9z"/>
<path class="st0" d="M748.3,406.6c19.4,0,30.3,14,30.3,34.7c0,2-1.6,3.6-3.6,3.6c-0.1,0-0.1,0-0.2,0h-52.3c0.4,18.5,13.2,29,28.2,29
	c6.9,0,13.6-2.4,19.1-6.7c2-1.3,3.6-1,4.8,0.9l1.2,1.7c1.1,1.5,0.7,3.6-0.9,4.7c0,0-0.1,0.1-0.1,0.1c-7,5.2-15.5,8-24.3,8.1
	c-21.7,0-38-15.6-38-38C712.5,420.9,728.7,406.6,748.3,406.6z M768.7,437.5c-0.6-15.3-9.8-22.8-20.7-22.8c-12.1,0-22.7,8.1-25,22.8
	H768.7z"/>
<path class="st0" d="M82.8,231.7l-20.2,56.8H0L104.7,0h77.4l104.7,288.5h-68.1l-21-56.8L82.8,231.7z M100.5,182.5h79.9
	c-12.6-37.8-25.6-75.7-38.7-113.1h-2.1L100.5,182.5z"/>
<path class="st0" d="M535.5,127.8v32.8c0,82-58.4,127.8-128.7,127.8H297.5V0h109.3C477,0,535.5,45.8,535.5,127.8z M362.6,236.7h44.2
	c34.5,0,60.5-22.7,60.5-66.9v-51.3c0-44.1-26.1-66.9-60.5-66.9h-44.2V236.7z"/>
<path class="st1" d="M552.4,76h78.3l2.1,3.6l0.7,1.3c0.4,0.6,0.4,0.6,0.8,1.3s1.2,1.8,2.9,4.3l1.2,1.8l-10.9,9.6l-1.6-2.2
	c-1.3-1.8-1.6-2.3-1.7-2.4v0.9c-0.4-0.4-0.8-1.1-1.5-1.1h-43.5l31.7,46.4l-10.9,8.8L552.4,76z"/>
<path class="st1" d="M604.6,133.4L574.8,89h49.4c4.3,5,0-0.1,3.9,5.3l7.2-6.4c-4.5-6.5-2.6-4.2-4.5-7.2l-1.4-2.8h-72.4l40.4,61
	L604.6,133.4z"/>
<path class="st1" d="M698,168.1L749.8,93h-39c-1.4,0-2.8,3.6-4.1,5.6c-1,1.5-2,2.5-2.9,4.1c-6.9,11-14.4,22.6-22,34.3l-1.7,2.4
	l-10.4-10.5l1.1-1.7c7.2-10.9,14.1-22,20.8-32.7c3-4.9,6.1-10,9.2-14.9l2.1-3.6h74.2l-68.6,101.7L698,168.1z"/>
<path class="st1" d="M701.7,101.1c2.6-4.1,5.1-8.1,7.7-12.1h45.1l-53.3,78.1l6.8,6.2L772.4,78h-68.2l-1.4,2.7
	c-3.1,4.9-6.1,10-9.2,14.8c-6.8,10.8-13.7,22-20.8,32.9l6.8,7C687.2,124,694.6,112.4,701.7,101.1z"/>
<linearGradient id="SVGID_1_" gradientUnits="userSpaceOnUse" x1="601.575" y1="279.23" x2="601.575" y2="172" gradientTransform="matrix(1 0 0 -1 0 460)">
	<stop  offset="0" style="stop-color:#41C5EB"/>
	<stop  offset="1" style="stop-color:#0084A1"/>
</linearGradient>
<path class="st2" d="M545.7,288l72.7-107.2l10.5,9.9l-56,82.4h39.2c5.6-8,11.2-16.6,16.5-25.4c2.2-3.5,4.3-6.8,6.4-10.1
	c2.3-3.7,4.6-7.2,6.9-10.9l4.9-7.7l10.5,10.4l-1.1,1.7c-3.1,4.8-6.1,9.6-9.1,14.5c-7.8,12.3-16.5,26.1-25.3,39.4l-2.1,3.1H545.7z"/>
<linearGradient id="SVGID_2_" gradientUnits="userSpaceOnUse" x1="602.35" y1="276.23" x2="602.35" y2="176" gradientTransform="matrix(1 0 0 -1 0 460)">
	<stop  offset="0" style="stop-color:#41C5EB"/>
	<stop  offset="1" style="stop-color:#0084A1"/>
</linearGradient>
<path class="st3" d="M637.1,238.9c-7.7,12.2-15.7,26.1-23.7,37.1h-45.2l57.5-84.7l-6.9-7.5L550.4,284h68.1l1.4-1.2
	c8.6-13.2,17.1-26.1,25.2-39.1c3-4.8,6.1-9.4,9.1-14.2l-6.9-6.7C643.9,228.1,640.5,233.5,637.1,238.9z"/>
<linearGradient id="SVGID_3_" gradientUnits="userSpaceOnUse" x1="738.48" y1="219.46" x2="738.48" y2="172" gradientTransform="matrix(1 0 0 -1 0 460)">
	<stop  offset="0" style="stop-color:#41C5EB"/>
	<stop  offset="1" style="stop-color:#0084A1"/>
</linearGradient>
<polygon class="st4" points="703.2,288 695.7,275.3 706.5,265 711.3,273 754.3,273 738.6,250.2 749.3,240.5 781.3,288 "/>
<linearGradient id="SVGID_4_" gradientUnits="userSpaceOnUse" x1="737.735" y1="216.33" x2="737.735" y2="176" gradientTransform="matrix(1 0 0 -1 0 460)">
	<stop  offset="0" style="stop-color:#41C5EB"/>
	<stop  offset="1" style="stop-color:#0084A1"/>
</linearGradient>
<polygon class="st5" points="748.9,243.7 741.8,250.4 759,276 709.9,276 705.9,269.3 698.8,275 704.6,284 776.7,284 "/>
<ellipse transform="matrix(0.9999 -1.483476e-02 1.483476e-02 0.9999 -1.4779 9.4885)" class="st1" cx="638.8" cy="104.4" rx="5.5" ry="5.5"/>
<ellipse transform="matrix(0.9999 -1.483476e-02 1.483476e-02 0.9999 -1.8201 9.5928)" class="st1" cx="645.7" cy="127.5" rx="5.5" ry="5.5"/>
<ellipse transform="matrix(0.9999 -1.483476e-02 1.483476e-02 0.9999 -3.81 10.2696)" class="st6" cx="690.3" cy="262" rx="5.5" ry="5.5"/>
<ellipse transform="matrix(0.9999 -1.483476e-02 1.483476e-02 0.9999 -3.516 10.1649)" class="st7" cx="683.4" cy="242.1" rx="5.5" ry="5.5"/>
<ellipse transform="matrix(0.9999 -1.483476e-02 1.483476e-02 0.9999 -3.3939 10.8911)" class="st8" cx="732.4" cy="234.2" rx="5.5" ry="5.5"/>
<ellipse transform="matrix(0.9999 -1.483476e-02 1.483476e-02 0.9999 -3.2095 10.6033)" class="st1" cx="713.1" cy="221.6" rx="6.8" ry="6.8"/>
<ellipse transform="matrix(0.9999 -1.483476e-02 1.483476e-02 0.9999 -3.1669 10.2377)" class="st9" cx="688.5" cy="218.6" rx="6.8" ry="6.8"/>
<ellipse transform="matrix(0.9999 -1.483476e-02 1.483476e-02 0.9999 -2.1698 9.5258)" class="st10" cx="641" cy="151" rx="6.8" ry="6.8"/>
<ellipse transform="matrix(0.9951 -9.879873e-02 9.879873e-02 0.9951 -11.805 61.7315)" class="st8" cx="617.4" cy="150.1" rx="5.5" ry="5.5"/>
<ellipse transform="matrix(0.9999 -1.483476e-02 1.483476e-02 0.9999 -2.5181 9.4578)" class="st1" cx="636.2" cy="174.5" rx="7.9" ry="7.9"/>
<ellipse transform="matrix(0.9999 -1.483476e-02 1.483476e-02 0.9999 -2.2138 9.8778)" class="st11" cx="664.7" cy="154.2" rx="7.9" ry="7.9"/>
<ellipse transform="matrix(0.9999 -1.483476e-02 1.483476e-02 0.9999 -3.0762 9.8915)" class="st1" cx="665.2" cy="212.3" rx="7.9" ry="7.9"/>
<ellipse transform="matrix(0.9999 -1.483476e-02 1.483476e-02 0.9999 -2.7792 10.2902)" class="st9" cx="692.2" cy="192.5" rx="7.9" ry="7.9"/>
<ellipse transform="matrix(0.9999 -1.483476e-02 1.483476e-02 0.9999 -2.8606 9.5697)" class="st1" cx="643.6" cy="197.6" rx="8.9" ry="8.9"/>
<ellipse transform="matrix(0.9999 -1.483476e-02 1.483476e-02 0.9999 -2.4306 10.1708)" class="st12" cx="684.4" cy="168.9" rx="8.9" ry="8.9"/>
<line class="st13" x1="1.9" y1="334" x2="779.4" y2="334"/>
</svg>
