<svg xmlns="http://www.w3.org/2000/svg" viewBox="-7181.389 -3400.372 20.717 33.832">
  <defs>
    <style>
      .cls-1 {
        fill: #fff;
      }
    </style>
  </defs>
  <g id="Group_331" data-name="Group 331" transform="translate(-7181.389 -3400.372)">
    <path id="Path_92" data-name="Path 92" class="cls-1" d="M10.91,15.053a43.915,43.915,0,0,1-5.284-3.459h5.892a.359.359,0,0,0,.38-.38V8.553a.359.359,0,0,0-.38-.38h-8.1V4.752h8.1a.359.359,0,0,0,.38-.38V1.711a.359.359,0,0,0-.38-.38h-8.1V0H0V8.173c0,4.448,4.676,7.185,9.161,9.845a43.967,43.967,0,0,1,5.474,3.573H8.553a.359.359,0,0,0-.38.38v2.661a.359.359,0,0,0,.38.38h8.629a3.24,3.24,0,0,1,.114.874v2.585H8.553a.359.359,0,0,0-.38.38v2.661a.359.359,0,0,0,.38.38H17.3v1.939h3.421V25.849C20.717,20.831,15.509,17.752,10.91,15.053Z"/>
    <path id="Path_93" data-name="Path 93" class="cls-1" d="M3.421,33.832H0V25.849c0-5.018,5.208-8.1,9.807-10.8,3.687-2.167,7.489-4.372,7.489-6.88V0h3.421V8.173c0,4.448-4.676,7.185-9.161,9.845-3.991,2.319-8.135,4.752-8.135,7.831Z"/>
  </g>
</svg>
