<svg class="dna-blue" xmlns="http://www.w3.org/2000/svg" viewBox="-10330 -6006.677 11.683 19.077">
  <defs>
    <style>
      .dna-blue-1 {
        fill: #41c5eb;
      }
    </style>
  </defs>
  <g id="Group_822" data-name="Group 822" transform="translate(-10330 -6006.677)">
    <path id="Path_92" data-name="Path 92" class="dna-blue-1" d="M6.152,8.488A24.763,24.763,0,0,1,3.172,6.538H6.495a.2.2,0,0,0,.214-.214v-1.5a.2.2,0,0,0-.214-.214H1.929V2.679H6.495a.2.2,0,0,0,.214-.214V.965A.2.2,0,0,0,6.495.75H1.929V0H0V4.609C0,7.117,2.637,8.66,5.166,10.16a24.793,24.793,0,0,1,3.087,2.015H4.823a.2.2,0,0,0-.214.214v1.5a.2.2,0,0,0,.214.214H9.689a1.827,1.827,0,0,1,.064.493v1.458H4.823a.2.2,0,0,0-.214.214v1.5a.2.2,0,0,0,.214.214h4.93v1.093h1.929v-4.5C11.682,11.747,8.746,10.01,6.152,8.488Z"/>
    <path id="Path_93" data-name="Path 93" class="dna-blue-1" d="M1.929,19.077H0v-4.5c0-2.829,2.937-4.566,5.53-6.088C7.61,7.267,9.753,6.023,9.753,4.609V0h1.929V4.609c0,2.508-2.637,4.051-5.166,5.552-2.251,1.308-4.587,2.679-4.587,4.416Z"/>
  </g>
</svg>
