<svg xmlns="http://www.w3.org/2000/svg" viewBox="13490.552 -3261.529 47.552 41.727">
  <defs>
    <style>
      .cls-1 {
        fill: #fff;
      }
    </style>
  </defs>
  <g id="Group_150" data-name="Group 150" transform="translate(13490.552 -3261.529)">
    <path id="Path_36" data-name="Path 36" class="cls-1" d="M227.379,2.869A3.209,3.209,0,0,1,230.6,6.085v22.08a3.209,3.209,0,0,1-3.216,3.216H192.085a3.209,3.209,0,0,1-3.216-3.216V6.085a3.209,3.209,0,0,1,3.216-3.216h35.294m0-2.869H192.085A6.1,6.1,0,0,0,186,6.085v22.08a6.1,6.1,0,0,0,6.085,6.085h35.381a6.1,6.1,0,0,0,6.085-6.085V6.085A6.178,6.178,0,0,0,227.379,0Z" transform="translate(-186)"/>
    <path id="Path_37" data-name="Path 37" class="cls-1" d="M203.3,10.2l4.868,17.3,5.3-7.215,7.215-5.477Z" transform="translate(-188.261 -1.333)"/>
    <rect id="Rectangle_59" data-name="Rectangle 59" class="cls-1" width="3.651" height="15.039" transform="translate(19.252 15.666) rotate(-45.421)"/>
    <rect id="Rectangle_60" data-name="Rectangle 60" class="cls-1" width="8.693" height="7.389" transform="translate(19.386 32.425)"/>
    <rect id="Rectangle_61" data-name="Rectangle 61" class="cls-1" width="23.124" height="3.13" transform="translate(12.17 38.597)"/>
  </g>
</svg>
