<svg xmlns="http://www.w3.org/2000/svg" viewBox="-10334 -5915.377 19.077 19.077">
  <defs>
    <style>
      .cls-1 {
        fill: #41c5eb;
      }
    </style>
  </defs>
  <path id="Path_198" data-name="Path 198" class="cls-1" d="M9.539,0a9.539,9.539,0,1,0,9.539,9.539A9.567,9.567,0,0,0,9.539,0Zm.954,16.216H8.585V14.308h1.908Zm2-7.345-.858.858A2.971,2.971,0,0,0,10.493,12.4H8.585v-.477A3.464,3.464,0,0,1,9.729,9.253l1.145-1.24a1.6,1.6,0,0,0,.572-1.335,1.908,1.908,0,1,0-3.815,0H5.723a3.815,3.815,0,1,1,7.631,0A3.474,3.474,0,0,1,12.5,8.871Z" transform="translate(-10334 -5915.377)"/>
</svg>
