<?xml version="1.0" encoding="utf-8"?>
<!-- Generator: Adobe Illustrator 20.1.0, SVG Export Plug-In . SVG Version: 6.00 Build 0)  -->
<svg version="1.1" id="Layer_1" xmlns="http://www.w3.org/2000/svg" xmlns:xlink="http://www.w3.org/1999/xlink" x="0px" y="0px"
	 viewBox="0 0 236.3 62.4" style="enable-background:new 0 0 236.3 62.4;" xml:space="preserve">
<g id="Group_519" transform="translate(-21480 672)">
	<g id="Group_482" transform="translate(152.228 34.721)">
		<g id="Group_481">
			<path id="Path_418" class="cls-1" d="M21479.9-671.7c0-0.3,0.2-0.6,0.5-0.7c0,0,0.1,0,0.1,0h0.6c0.3,0,0.6,0.2,0.7,0.5c0,0,0,0.1,0,0.1v7.9
				h10.9v-7.9c0-0.3,0.2-0.6,0.5-0.7c0,0,0.1,0,0.1,0h0.5c0.3,0,0.6,0.2,0.7,0.5c0,0,0,0.1,0,0.1v17.5c0,0.3-0.2,0.6-0.5,0.7
				c0,0-0.1,0-0.1,0h-0.5c-0.3,0-0.6-0.2-0.7-0.5c0,0,0-0.1,0-0.1v-7.9h-10.9v7.9c0,0.3-0.2,0.6-0.5,0.7c0,0-0.1,0-0.1,0h-0.6
				c-0.3,0-0.6-0.2-0.7-0.5c0,0,0-0.1,0-0.1V-671.7z"/>
			<path id="Path_419" class="cls-1" d="M21506.8-667.3c3.6,0,5.6,2.6,5.6,6.4c0,0.4-0.3,0.7-0.7,0.7c0,0,0,0,0,0h-9.7c-0.1,2.8,2,5.2,4.9,5.4
				c0.1,0,0.2,0,0.4,0c1.3,0,2.5-0.4,3.5-1.2c0.2-0.2,0.6-0.2,0.8,0c0,0,0.1,0.1,0.1,0.1l0.2,0.3c0.2,0.3,0.1,0.7-0.2,0.9
				c0,0,0,0,0,0c-1.3,1-2.9,1.5-4.5,1.5c-3.8,0.1-6.9-2.8-7.1-6.6c0-0.2,0-0.3,0-0.5C21500.1-664.7,21503.1-667.3,21506.8-667.3z
				 M21510.6-661.6c-0.1-2.8-1.8-4.2-3.8-4.2c-2.4,0-4.4,1.8-4.6,4.2H21510.6z"/>
			<path id="Path_420" class="cls-1" d="M21524.7-661.8h0.8v-0.4c0-2.6-1.4-3.5-3.3-3.5c-1.2,0-2.3,0.3-3.3,0.9c-0.3,0.2-0.7,0.1-0.9-0.2
				c0,0,0,0,0-0.1l-0.2-0.3c-0.2-0.3-0.2-0.6,0.1-0.8c0,0,0.1,0,0.1-0.1c1.3-0.8,2.8-1.2,4.3-1.2c3.2,0,5,1.8,5,5.2v8
				c0,0.3-0.2,0.6-0.5,0.7c0,0-0.1,0-0.1,0h-0.4c-0.3,0-0.6-0.2-0.7-0.5c0,0,0-0.1,0-0.1v-1.1c0-0.3,0-0.7,0.1-1h-0.1
				c-0.8,1.8-2.6,3-4.6,3.1c-2.3,0-4.6-1.3-4.6-3.9C21516.4-661.5,21522.1-661.8,21524.7-661.8z M21521.3-654.7c2.6,0,4.1-2.7,4.1-5
				v-0.7h-0.7c-2.1,0-6.4,0.1-6.4,3.1c0.1,1.5,1.3,2.6,2.8,2.6C21521.2-654.7,21521.3-654.7,21521.3-654.7z"/>
			<path id="Path_421" class="cls-1" d="M21533.3-671.7c0-0.3,0.2-0.6,0.5-0.7c0,0,0.1,0,0.1,0h0.5c0.3,0,0.6,0.2,0.7,0.5c0,0,0,0.1,0,0.1v14.7
				c0,1.7,0.8,1.9,1.4,1.9c0.3,0,0.5,0.2,0.6,0.5c0,0,0,0.1,0,0.1v0.4c0,0.4-0.2,0.7-0.7,0.7c-1.1,0-3.1-0.4-3.1-3.3L21533.3-671.7
				L21533.3-671.7z"/>
			<path id="Path_422" class="cls-1" d="M21542.2-665.4h-1.1c-0.3,0-0.6-0.2-0.7-0.5c0-0.1,0-0.1,0-0.2v-0.2c0-0.3,0.2-0.6,0.5-0.7
				c0,0,0.1,0,0.1,0h1.2v-3.2c0-0.3,0.2-0.6,0.5-0.7c0,0,0.1,0,0.1,0h0.5c0.3,0,0.6,0.2,0.7,0.5c0,0,0,0.1,0,0.1v3.2h2.7
				c0.3,0,0.6,0.2,0.7,0.5c0,0,0,0.1,0,0.1v0.2c0,0.3-0.2,0.6-0.5,0.7c0,0-0.1,0-0.1,0h-2.7v6.8c0,3.1,1.9,3.5,3,3.5
				c0.5,0.1,0.7,0.2,0.7,0.7v0.4c0,0.4-0.2,0.6-0.7,0.6c-3,0-4.8-1.8-4.8-5L21542.2-665.4z"/>
			<path id="Path_423" class="cls-1" d="M21552.3-671.7c0-0.3,0.2-0.6,0.5-0.7c0,0,0.1,0,0.1,0h0.5c0.3,0,0.6,0.2,0.7,0.5c0,0,0,0.1,0,0.1v6.7
				c0,0.4,0,0.7-0.1,1.1h0.1c1-2.1,3.1-3.5,5.4-3.5c3.4,0,4.5,1.9,4.5,5.2v7.9c0,0.3-0.2,0.6-0.5,0.7c0,0-0.1,0-0.1,0h-0.5
				c-0.3,0-0.6-0.2-0.7-0.5c0,0,0-0.1,0-0.1v-7.4c0-2.1-0.3-4-3-4c-2.8,0-5.1,2.3-5.1,5.6v5.8c0,0.3-0.2,0.6-0.5,0.7
				c0,0-0.1,0-0.1,0h-0.5c-0.3,0-0.6-0.2-0.7-0.5c0,0,0-0.1,0-0.1L21552.3-671.7L21552.3-671.7z"/>
		</g>
	</g>
	<g id="Group_487" transform="translate(0.687)">
		<g id="Group_483">
			<path id="Path_424" class="cls-2"  d="M21495.3-629.4l-3.8,10.5h-11.6l19.4-53.5h14.4l19.4,53.5h-12.6l-3.9-10.5H21495.3z M21498.5-638.5h14.8
				c-2.3-7-4.8-14.1-7.2-21h-0.4L21498.5-638.5z"/>
			<path id="Path_425" class="cls-2"  d="M21579.3-648.6v6.1c0,15.2-10.8,23.7-23.9,23.7h-20.3v-53.5h20.3
				C21568.4-672.4,21579.3-663.9,21579.3-648.6z M21547.2-628.4h8.2c6.4,0,11.2-4.2,11.2-12.4v-9.5c0-8.2-4.8-12.4-11.2-12.4h-8.2
				V-628.4z"/>
		</g>
		<g id="Group_486" transform="translate(101.232 13.974)">
			<g id="Group_484">
				<path id="Path_426" class="cls-2" d="M21481.1-672.3h14.5l0.4,0.7l0.1,0.2c0.1,0.1,0.1,0.1,0.1,0.2c0.1,0.1,0.2,0.3,0.5,0.8l0.2,0.3l-2,1.8
					l-0.3-0.4c-0.1-0.2-0.2-0.3-0.3-0.4v0.1c-0.1-0.1-0.1-0.2-0.3-0.2h-8.1l5.9,8.6l-2,1.6L21481.1-672.3z"/>
				<path id="Path_427" class="cls-2" d="M21490.8-661.7l-5.5-8.3h9.2c0.8,0.9,0,0,0.7,1l1.3-1.2c-0.3-0.4-0.6-0.9-0.8-1.3l-0.3-0.5h-13.4
					l7.5,11.3L21490.8-661.7z"/>
				<path id="Path_428" class="cls-2" d="M21508.1-655.2l9.6-14h-7.2c-0.3,0-0.5,0.7-0.8,1.1c-0.2,0.3-0.4,0.5-0.5,0.8c-1.3,2-2.7,4.2-4.1,6.4
					l-0.3,0.4l-1.9-1.9l0.2-0.3c1.3-2,2.6-4.1,3.9-6.1c0.6-0.9,1.1-1.9,1.7-2.8l0.4-0.7h13.8l-12.7,18.9L21508.1-655.2z"/>
				<path id="Path_429" class="cls-2"  d="M21508.8-667.7c0.5-0.8,0.9-1.5,1.4-2.3h8.4l-9.9,14.5l1.3,1.1l11.9-17.7h-12.7l-0.3,0.5
					c-0.6,0.9-1.1,1.9-1.7,2.8c-1.3,2-2.5,4.1-3.9,6.1l1.3,1.3C21506.2-663.4,21507.5-665.6,21508.8-667.7z"/>
				<path id="Path_430" class="cls-3"  d="M21479.9-633l13.5-19.9l1.9,1.8l-10.4,15.3h7.3c1-1.5,2.1-3.1,3.1-4.7c0.4-0.6,0.8-1.2,1.2-1.9
					c0.4-0.7,0.9-1.3,1.3-2l0.9-1.4l1.9,1.9l-0.2,0.3c-0.6,0.9-1.1,1.8-1.7,2.7c-1.4,2.3-3.1,4.8-4.7,7.3l-0.4,0.6L21479.9-633
					L21479.9-633z"/>
				<path id="Path_431" class="cls-4" d="M21496.9-642.1c-1.4,2.3-2.9,4.8-4.4,6.9h-8.4l10.7-15.7l-1.3-1.4l-12.7,18.6h12.6l0.3-0.2
					c1.6-2.4,3.2-4.8,4.7-7.2c0.6-0.9,1.1-1.7,1.7-2.6l-1.3-1.3C21498.1-644.1,21497.5-643.1,21496.9-642.1z"/>
				<path id="Path_432" class="cls-5" d="M21509.1-633l-1.4-2.3l2-1.9l0.9,1.5h8l-2.9-4.2l2-1.8l5.9,8.8L21509.1-633z"/>
				<path id="Path_433" class="cls-6" d="M21517.6-641.2l-1.3,1.2l3.2,4.7h-9.1l-0.7-1.2l-1.3,1l1.1,1.7h13.4L21517.6-641.2z"/>
			</g>
			<g id="Group_485" transform="translate(10.322 12.38) rotate(-36)">
				<g>
					
						<ellipse id="Ellipse_1404" class="circle-row-1" transform="matrix(0.809 -0.5878 0.5878 0.809 -3704.5745 12759.6738)" cx="17782.8" cy="12080.6" rx="1.4" ry="1.4"/>
					
						<ellipse id="Ellipse_1405" class="circle-row-1" transform="matrix(0.809 -0.5878 0.5878 0.809 -3707.5381 12760.6367)" cx="17782.8" cy="12085.6" rx="1.7" ry="1.7"/>
					
						<ellipse id="Ellipse_1408" class="circle-row-1" transform="matrix(0.809 -0.5878 0.5878 0.809 -3710.7837 12761.8486)" cx="17783.1" cy="12091.2" rx="1.7" ry="1.7"/>
					
						<ellipse id="Ellipse_1409" class="circle-row-1" transform="matrix(0.809 -0.5878 0.5878 0.809 -3713.5115 12762.7344)" cx="17783.1" cy="12095.9" rx="1.7" ry="1.7"/>
					
						<ellipse id="Ellipse_1412" class="circle-row-1" transform="matrix(0.809 -0.5878 0.5878 0.809 -3716.2698 12763.7637)" cx="17783.3" cy="12100.6" rx="1.7" ry="1.7"/>
					
						<ellipse id="Ellipse_1414" class="circle-row-1" transform="matrix(0.809 -0.5878 0.5878 0.809 -3718.8826 12764.6123)" cx="17783.3" cy="12105.1" rx="1.7" ry="1.7"/>
					
						<ellipse id="Ellipse_1416" class="circle-row-1" transform="matrix(0.809 -0.5878 0.5878 0.809 -3721.8953 12765.7119)" cx="17783.5" cy="12110.3" rx="1.7" ry="1.7"/>
				</g>
				<g>
					
						<ellipse id="Ellipse_1404_1_" class="circle-row-2" transform="matrix(0.809 -0.5878 0.5878 0.809 -3706.2932 12754.3838)" cx="17773.8" cy="12080.6" rx="1.1" ry="1.1"/>
					
						<ellipse id="Ellipse_1402" class="circle-row-2" transform="matrix(0.809 -0.5878 0.5878 0.809 -3708.6692 12755.1563)" cx="17773.8" cy="12084.6" rx="1.7" ry="1.7"/>
					
						<ellipse id="Ellipse_1403" class="circle-row-2" transform="matrix(0.809 -0.5878 0.5878 0.809 -3710.9026 12755.8818)" cx="17773.8" cy="12088.4" rx="1.7" ry="1.7"/>
					
						<ellipse id="Ellipse_1406" class="circle-row-2" transform="matrix(0.809 -0.5878 0.5878 0.809 -3713.1362 12756.6074)" cx="17773.8" cy="12092.2" rx="1.7" ry="1.7"/>
					
						<ellipse id="Ellipse_1407" class="circle-row-2" transform="matrix(0.809 -0.5878 0.5878 0.809 -3715.583 12757.5596)" cx="17774.1" cy="12096.5" rx="1.7" ry="1.7"/>
					
						<ellipse id="Ellipse_1410" class="circle-row-2" transform="matrix(0.809 -0.5878 0.5878 0.809 -3718.0164 12758.3877)" cx="17774.1" cy="12100.6" rx="1.7" ry="1.7"/>
					
						<ellipse id="Ellipse_1411" class="circle-row-2" transform="matrix(0.809 -0.5878 0.5878 0.809 -3720.7366 12759.1064)" cx="17773.9" cy="12105.2" rx="1.7" ry="1.7"/>
					
						<ellipse id="Ellipse_1413" class="circle-row-2" transform="matrix(0.809 -0.5878 0.5878 0.809 -3723.3052 12760.2012)" cx="17774.3" cy="12109.7" rx="1.7" ry="1.7"/>
				</g>
			</g>
		</g>
	</g>
	<rect id="Rectangle_306" class="cls-1 cls-anim" x="21479.9" y="-611" width="236.1" height="1.1"/>
</g>
</svg>
