<svg class="blue-puzzle-svg" xmlns="http://www.w3.org/2000/svg" viewBox="-5157.586 -4899.693 100 80.051">
  <defs>
    <style>
      .blue-puzzle-svg-1 {
        fill: #41c5eb;
      }
    </style>
  </defs>
  <g id="Group_835" data-name="Group 835" transform="translate(-5057.586 -4899.693) rotate(90)">
    <path id="Path_354" data-name="Path 354" class="blue-puzzle-svg-1" d="M40.53,100H8.55a6.034,6.034,0,0,1-5.687-4.119,23.091,23.091,0,0,1-1.189-4.91c-.43-2.872-.758-5.778-1.1-8.662C.363,80.411.2,78.518.025,76.625a4.964,4.964,0,0,1,2.49-5.044,4.306,4.306,0,0,1,3.443-.022,16.243,16.243,0,0,1,4.529,2.761c.994.79,1.957,1.6,2.972,2.36a8.257,8.257,0,0,0,5.185,1.592,9.883,9.883,0,0,0,7.88-3.83,10.939,10.939,0,0,0,2.418-7.816,10.63,10.63,0,0,0-8.4-9.909,9.464,9.464,0,0,0-7.255,1.57c-1.26.835-2.459,1.793-3.689,2.672A14.449,14.449,0,0,1,5.65,63.12a4.2,4.2,0,0,1-2.879.078,4.192,4.192,0,0,1-2.562-3.44,8.725,8.725,0,0,1-.072-2.071C.23,56.072.373,54.458.5,52.844c.133-1.7.256-3.407.41-5.11.154-1.737.3-3.474.482-5.211q.384-3.474.83-6.947a26.171,26.171,0,0,1,.5-2.984A5.438,5.438,0,0,1,5.9,28.55a5.608,5.608,0,0,1,1.588-.367,17.658,17.658,0,0,1,3.822.3c1.619.189,3.228.39,4.847.579,1.885.223,3.771.445,5.666.657,1.834.2,3.679.4,5.513.568.912.089,1.824.111,2.736.134a2.475,2.475,0,0,0,.8-.145,1.27,1.27,0,0,0,.922-1.637,8.6,8.6,0,0,0-1.363-3.273,25.963,25.963,0,0,1-2.674-5.055,15.011,15.011,0,0,1,.287-11.123A13.909,13.909,0,0,1,37.5.548c5.595-1.5,10.462.089,14.407,4.71a14.947,14.947,0,0,1,3.351,7.671,14.263,14.263,0,0,1-1.937,9.753c-.6,1-1.178,2.015-1.721,3.062a6.444,6.444,0,0,0-.871,3.307c.031.79.41,1.325,1.137,1.369a13.887,13.887,0,0,0,2.254-.089c1.9-.2,3.8-.434,5.7-.657,1.926-.223,3.863-.445,5.789-.657,1.783-.2,3.566-.39,5.359-.579.9-.1,1.793-.2,2.695-.289a2.025,2.025,0,0,1,.687.022,7.634,7.634,0,0,1,4.6,3.284,7.915,7.915,0,0,1,1.107,4.275q-.015,19.657,0,39.3V91.778a9.158,9.158,0,0,1-1.117,4.7,6.823,6.823,0,0,1-4.929,3.374,9.89,9.89,0,0,1-1.814.145Q56.361,100.012,40.53,100Z" transform="translate(0 0)"/>
  </g>
</svg>
