<svg class="brain-pink" xmlns="http://www.w3.org/2000/svg" viewBox="0 0 145.337 145.338">
  <defs>
    <style>
      .brain-pink-1 {
        fill: #f2f2f2;
        opacity: 0.4;
      }

      .brain-pink-2 {
        fill: #f2869f;
      }

      .brain-pink-3 {
        fill: #e06c8b;
      }

      .brain-pink-4 {
        fill: #000064;
        opacity: 0.15;
      }
    </style>
  </defs>
  <g id="Group_990" data-name="Group 990" transform="translate(-529.998 -1133.721)">
    <ellipse id="Ellipse_1616" data-name="Ellipse 1616" class="brain-pink-1" cx="72.669" cy="72.669" rx="72.669" ry="72.669" transform="translate(529.998 1133.721)"/>
    <g id="brain-8798_3c474f40-ac0b-437a-a97f-25fc89a032ac" transform="translate(566.5 1167.314)">
      <path id="layer2" class="brain-pink-2" d="M45.054,3.21c-8.767-2.192-12.009.215-12.83,1.044a.309.309,0,0,1-.223.1v73.6a.313.313,0,0,1,.251.131c.561.744,2.318,2.15,7.582,2.15,7.18,0,28.718-5.937,28.718-33.94S55.563,5.838,45.054,3.21Z" transform="translate(4.55 -2.312)"/>
      <path id="layer1" class="brain-pink-3" d="M60.649,14.932q-.783-1.175-1.606-2.228a10.7,10.7,0,0,0-7.477,9.777,11.718,11.718,0,0,0-2.817.163,1.305,1.305,0,1,0,.444,2.573,5.8,5.8,0,0,1,4.711.76A4.882,4.882,0,0,1,55.5,29.209,1.305,1.305,0,0,0,56.8,30.459h.05A1.305,1.305,0,0,0,58.107,29.1a7.5,7.5,0,0,0-2.54-5.139,6.318,6.318,0,0,0-1.436-.873,8.272,8.272,0,0,1,6.518-8.16Zm7.565,23.655a12.178,12.178,0,0,0-9.434-2.271,11.955,11.955,0,0,0-9.418,7.811A9.033,9.033,0,0,0,42.7,47.952a1.305,1.305,0,0,0,2.089,1.566,6.244,6.244,0,0,1,5.562-2.779,6.712,6.712,0,0,1,5.28,3.886,1.306,1.306,0,1,0,2.335-1.168,9.515,9.515,0,0,0-5.939-5.044,9.645,9.645,0,0,1,16.436-1.88Q68.391,40.557,68.214,38.587ZM41.138,43.512a7.484,7.484,0,0,1,2.48-6l.044-.04A8.33,8.33,0,0,1,48.97,35.68a1.305,1.305,0,1,0,0-2.611,11.207,11.207,0,0,0-5.9,1.658c-2.38-3.057-7.31-3.938-11.066-3.31v2.668c3.222-.714,7.378.074,9.057,2.312a10.265,10.265,0,0,0-2.53,7.116,1.305,1.305,0,1,0,2.611,0Zm-.581-14.578a1.305,1.305,0,0,0,.362-1.811,8.038,8.038,0,0,1-.7-6.749,4.534,4.534,0,0,1,2.642-3.038,1.307,1.307,0,1,0-.826-2.48,7.049,7.049,0,0,0-4.286,4.671,10.479,10.479,0,0,0-.349,1.315,14.08,14.08,0,0,0-5.4.087V23.6a11.558,11.558,0,0,1,5.193-.131,9.967,9.967,0,0,0,1.553,5.105,1.305,1.305,0,0,0,1.811.362ZM64.5,64.355C60.2,63.9,56.092,60.493,55.4,57.712a12.251,12.251,0,0,1,5.069.131,1.305,1.305,0,0,0,.514-2.556c-3.8-.758-6.788-.409-8.892,1.044a7.582,7.582,0,0,0-3.094,5.245,1.305,1.305,0,0,0,1.072,1.5,1.246,1.246,0,0,0,.21.014A1.305,1.305,0,0,0,51.561,62a5.4,5.4,0,0,1,1.478-3.068c1.24,3.56,5.5,6.932,10.042,7.843Q63.833,65.629,64.5,64.355ZM47.691,78.576a14.8,14.8,0,0,0,.051-13.092c-2.006-4.083-5.466-6.5-9.268-6.63.033-.159.054-.32.1-.478a6.12,6.12,0,0,1,4.194-4.46,1.305,1.305,0,0,0-.632-2.531,8.721,8.721,0,0,0-6.086,6.294,10.452,10.452,0,0,0,2.86,10.254,1.305,1.305,0,1,0,1.846-1.846,8.237,8.237,0,0,1-2.381-4.621c3.314.1,5.778,2.632,7.026,5.172A11.952,11.952,0,0,1,43.879,79.61a30.013,30.013,0,0,0,3.812-1.034ZM46.039,13.243a1.306,1.306,0,0,0,2.4-1.038A6.512,6.512,0,0,0,43.9,8.45a5.391,5.391,0,0,1,3.823-4.534,21.115,21.115,0,0,0-2.669-.871c-.3-.076-.576-.131-.863-.2a9.252,9.252,0,0,0-2.938,5.535,6.527,6.527,0,0,0-3.706,2.089A1.305,1.305,0,1,0,39.5,12.2a3.916,3.916,0,0,1,6.535,1.038Z" transform="translate(4.55 -2.148)"/>
      <path id="layer2-2" data-name="layer2" class="brain-pink-2" d="M27.5,3.21c8.767-2.192,12.009.215,12.83,1.044a.309.309,0,0,0,.223.1v73.6a.313.313,0,0,0-.251.131c-.561.744-2.318,2.15-7.582,2.15C25.539,80.227,4,74.29,4,46.287S16.987,5.838,27.5,3.21Z" transform="translate(-4 -2.312)"/>
      <path id="layer1-2" data-name="layer1" class="brain-pink-3" d="M11.882,14.932q.783-1.175,1.606-2.228a10.7,10.7,0,0,1,7.477,9.777,11.719,11.719,0,0,1,2.817.163,1.305,1.305,0,1,1-.444,2.573,5.805,5.805,0,0,0-4.711.76,4.882,4.882,0,0,0-1.593,3.232,1.305,1.305,0,0,1-1.305,1.249h-.05A1.305,1.305,0,0,1,14.424,29.1a7.5,7.5,0,0,1,2.54-5.139,6.321,6.321,0,0,1,1.436-.873A8.272,8.272,0,0,0,11.882,14.932ZM4.318,38.587a12.178,12.178,0,0,1,9.434-2.271,11.955,11.955,0,0,1,9.418,7.811,9.033,9.033,0,0,1,6.657,3.825,1.305,1.305,0,0,1-2.089,1.566,6.244,6.244,0,0,0-5.562-2.779,6.712,6.712,0,0,0-5.28,3.886,1.306,1.306,0,1,1-2.335-1.168A9.515,9.515,0,0,1,20.5,44.413a9.4,9.4,0,0,0-7.18-5.52,9.412,9.412,0,0,0-9.258,3.641q.078-1.976.255-3.946Zm27.076,4.925a7.484,7.484,0,0,0-2.48-6l-.044-.04a8.33,8.33,0,0,0-5.308-1.787,1.305,1.305,0,1,1,0-2.611,11.207,11.207,0,0,1,5.9,1.658c2.38-3.057,7.31-3.938,11.067-3.31v2.668c-3.222-.714-7.378.074-9.058,2.312A10.265,10.265,0,0,1,34,43.512a1.305,1.305,0,0,1-2.611,0Zm.581-14.578a1.305,1.305,0,0,1-.362-1.811,8.038,8.038,0,0,0,.7-6.749,4.534,4.534,0,0,0-2.642-3.038,1.307,1.307,0,0,1,.826-2.48,7.049,7.049,0,0,1,4.286,4.671,10.481,10.481,0,0,1,.349,1.315,14.08,14.08,0,0,1,5.4.087V23.6a11.558,11.558,0,0,0-5.194-.131,9.966,9.966,0,0,1-1.552,5.105,1.305,1.305,0,0,1-1.811.362ZM8.027,64.355c4.308-.453,8.412-3.863,9.108-6.643a12.251,12.251,0,0,0-5.069.131,1.305,1.305,0,0,1-.514-2.556c3.8-.758,6.788-.409,8.892,1.044a7.582,7.582,0,0,1,3.094,5.245,1.305,1.305,0,0,1-1.072,1.5,1.247,1.247,0,0,1-.21.014A1.305,1.305,0,0,1,20.97,62a5.4,5.4,0,0,0-1.478-3.068c-1.24,3.56-5.5,6.932-10.042,7.843Q8.7,65.629,8.027,64.355ZM24.839,78.576a14.8,14.8,0,0,1-.051-13.092c2.006-4.083,5.466-6.5,9.268-6.63-.033-.159-.054-.32-.1-.478a6.12,6.12,0,0,0-4.194-4.46,1.305,1.305,0,0,1,.632-2.531,8.721,8.721,0,0,1,6.087,6.294,10.452,10.452,0,0,1-2.86,10.254,1.305,1.305,0,1,1-1.846-1.846,8.237,8.237,0,0,0,2.381-4.621c-3.314.1-5.778,2.632-7.026,5.172A11.952,11.952,0,0,0,28.652,79.61a30.016,30.016,0,0,1-3.813-1.034Zm1.653-65.332a1.306,1.306,0,0,1-2.4-1.038A6.512,6.512,0,0,1,28.631,8.45a5.391,5.391,0,0,0-3.823-4.534,21.115,21.115,0,0,1,2.669-.871c.3-.076.576-.131.863-.2a9.252,9.252,0,0,1,2.938,5.535,6.527,6.527,0,0,1,3.706,2.089A1.305,1.305,0,0,1,33.027,12.2a3.916,3.916,0,0,0-6.535,1.038Z" transform="translate(-3.981 -2.148)"/>
      <path id="opacity" class="brain-pink-4" d="M27.5,3.21c8.767-2.192,12.009.215,12.83,1.044a.309.309,0,0,0,.223.1v73.6a.313.313,0,0,0-.251.131c-.561.744-2.318,2.15-7.582,2.15C25.539,80.227,4,74.29,4,46.287S16.987,5.838,27.5,3.21Z" transform="translate(-4 -2.312)"/>
    </g>
  </g>
</svg>
