<svg class="cake" xmlns="http://www.w3.org/2000/svg" viewBox="-7562 -4173 523 523">
  <defs>
    <style>
      .cake-1 {
        fill: #41c5eb;
      }

      .cake-2 {
        fill: #bff1f5;
      }
    </style>
  </defs>
  <g id="Group_774" data-name="Group 774" transform="translate(-8086 -6572)">
    <circle id="Ellipse_1334" data-name="Ellipse 1334" class="cake-1" cx="261.5" cy="261.5" r="261.5" transform="translate(524 2399)"/>
    <path id="Path_366" data-name="Path 366" class="cake-2" d="M175.588,45.793a52.474,52.474,0,0,0-36.9-22.491,44.673,44.673,0,0,0-15.462-14.76,56.881,56.881,0,0,0-26-8.434C77.542-1.3,59.62,7.137,47.32,23.3,29.75,26.465,16.044,35.6,7.61,49.658a58.248,58.248,0,0,0-3.514,50.6,53.276,53.276,0,0,0,44.981,32.682A56.241,56.241,0,0,0,80,126.97c9.137-4.568,16.868-11.6,23.545-20.382L92.653,93.234c-10.543,16.517-26,24.951-42.17,23.545-14.057-1.406-26-9.84-31.276-22.842a41.052,41.052,0,0,1,2.46-36.2c4.217-7.38,13.354-16.868,31.276-18.977l3.866-.351,2.109-3.163c11.948-17.922,28.465-19.679,36.9-18.977,13.354,1.054,26,8.434,30.573,17.922l2.108,4.568,4.92.351c11.6.351,21.788,6.326,28.816,16.165,7.38,10.191,9.488,23.545,6.326,34.439-3.514,10.894-12.651,20.734-23.9,25.3-7.028,2.811-17.571,4.568-30.573-1.406l-9.84,13a83.91,83.91,0,0,0,13,5.271c-2.811,10.894-7.38,29.519-9.488,44.279H75.434c-1.054-8.434-3.163-22.139-5.271-30.925L53.646,147c2.811,8.785,5.623,30.573,6.677,38.3l.7,7.38h61.147l.7-7.38c1.757-15.111,7.731-39.71,10.543-51.307a60.065,60.065,0,0,0,17.571-3.514c15.814-6.326,28.465-19.679,33.385-35.493A56.315,56.315,0,0,0,175.588,45.793Z" transform="translate(692.023 2564.286)"/>
  </g>
</svg>
