<svg class="dna-molecule-svg" xmlns="http://www.w3.org/2000/svg" viewBox="0 0 200 200">
  <defs>
    <style>
      .dna-molecule-svg-1 {
        fill: #fff;
      }

      .dna-molecule-svg-2 {
        fill: #fe6363;
      }

      .dna-molecule-svg-3 {
        fill: #78d1f4;
      }

      .dna-molecule-svg-4 {
        fill: #000064;
        opacity: 0.15;
      }

      .dna-molecule-svg-5 {
        fill: #7b8baf;
      }

      .dna-molecule-svg-6 {
        fill: #556685;
      }
    </style>
  </defs>
  <g id="Group_1098" data-name="Group 1098" transform="translate(33 -1993)">
    <circle id="Ellipse_1776" data-name="Ellipse 1776" class="dna-molecule-svg-1" cx="100" cy="100" r="100" transform="translate(-33 1993)"/>
    <g id="dna-8800_0444556d-4616-4a11-8d38-0fd7763aa0a4" transform="translate(44.295 2051.937)">
      <path id="layer4" class="dna-molecule-svg-2" d="M35.311,16.206l-5.3,2.074c-4.924,2.065-9.428,4.524-12.371,8.235H52.969C48.988,21.5,42.159,18.775,35.311,16.206Z" transform="translate(-12.814 3.907)"/>
      <path id="layer3" class="dna-molecule-svg-3" d="M54.947,8H17.382c3.7,5.356,11.234,8.022,18.782,10.854C43.713,16.022,51.243,13.356,54.947,8ZM53.822,29.163H18.493A16.384,16.384,0,0,0,15,39.744H57.327a16.364,16.364,0,0,0-3.505-10.581Z" transform="translate(-13.667 1.259)"/>
      <path id="layer4-2" data-name="layer4" class="dna-molecule-svg-2" d="M57.327,32H15a14.93,14.93,0,0,0,4.077,10.581H53.25A14.93,14.93,0,0,0,57.327,32ZM36.164,52.191l-5.309,2.153c-5.643,2.4-10.734,5.139-13.55,9.4H55.012C51.328,58.175,43.757,55.205,36.164,52.191Z" transform="translate(-13.666 9.003)"/>
      <path id="layer3-2" data-name="layer3" class="dna-molecule-svg-3" d="M52.255,40H18.082c4.045,4.377,10.56,7.018,17.086,9.609C41.695,47.018,48.21,44.377,52.255,40Z" transform="translate(-12.671 11.585)"/>
      <path id="opacity" class="dna-molecule-svg-4" d="M36.164,18.854V8H17.382c3.7,5.356,11.234,8.022,18.782,10.854ZM18.493,29.163A16.384,16.384,0,0,0,15,39.744a14.93,14.93,0,0,0,4.077,10.581c4.045,4.377,10.56,7.018,17.086,9.609V18.854l-5.3,2.074C25.94,22.993,21.436,25.451,18.493,29.163ZM30.855,62.088c-5.643,2.4-10.734,5.139-13.55,9.4H36.164V59.935Z" transform="translate(-13.667 1.259)"/>
      <path id="layer1" class="dna-molecule-svg-5" d="M36.012,19.518C26.05,15.8,16.645,12.279,16.645,2.323a1.323,1.323,0,1,0-2.645,0C14,14.114,24.714,18.123,35.084,22c10.925,4.086,21.242,7.944,21.242,20h2.645C58.971,28.115,46.771,23.549,36.012,19.518Z" transform="translate(-13.988 -1)"/>
      <path id="layer2" class="dna-molecule-svg-6" d="M36.951,19.518C46.914,15.8,56.326,12.279,56.326,2.323a1.323,1.323,0,0,1,2.645,0c0,11.792-10.72,15.8-21.088,19.679-10.921,4.086-21.238,7.944-21.238,20H14C14,28.115,26.192,23.549,36.951,19.518ZM16.645,42c0,10.891,10.031,14.874,20.652,19.09,10.659,4.229,21.673,8.6,21.673,20.59a1.323,1.323,0,1,1-2.645,0c0-10.191-9.718-14.048-20-18.133C25.351,59.2,14,54.692,14,42Z" transform="translate(-13.988 -1)"/>
      <path id="layer1-2" data-name="layer1" class="dna-molecule-svg-5" d="M56.317,32c0,10.891-10.031,14.874-20.652,19.09-10.656,4.233-21.673,8.6-21.673,20.59a1.323,1.323,0,1,0,2.645,0c0-10.191,9.718-14.048,20-18.133C47.615,49.195,58.962,44.688,58.962,32Z" transform="translate(-13.991 9.003)"/>
    </g>
  </g>
</svg>
