<svg class="email-checked-svg" xmlns="http://www.w3.org/2000/svg" viewBox="0 0 306 306">
  <defs>
    <style>
      .email-checked-svg-1 {
        fill: #f3f3f3;
      }

      .email-checked-svg-2 {
        fill: #46b1f0;
      }

      .email-checked-svg-3, .email-checked-svg-5 {
        fill: #fff;
      }

      .email-checked-svg-3 {
        opacity: 0.3;
      }

      .email-checked-svg-4 {
        fill: #1bd466;
      }

      .email-checked-svg-6 {
        fill: #000064;
        opacity: 0.15;
      }
    </style>
  </defs>
  <g id="Group_1120" data-name="Group 1120" transform="translate(-5461 -2084)">
    <circle id="Ellipse_1727" data-name="Ellipse 1727" class="email-checked-svg-1" cx="153" cy="153" r="153" transform="translate(5461 2084)"/>
    <g id="read-receipt-email-8555_4b15a958-8aa0-4ab9-a005-92a5ad194f77" transform="translate(5542 2177)">
      <path id="layer3" class="email-checked-svg-2" d="M139.858,70.27V9H2v91.905H94.206a42.032,42.032,0,0,1-.3-4.731V70.27Z" transform="translate(0 0)"/>
      <path id="opacity" class="email-checked-svg-3" d="M139.858,70.27V9L70.929,61.695,2,9v91.905H94.206a42.032,42.032,0,0,1-.3-4.731V70.27Z" transform="translate(0 0)"/>
      <path id="layer2" class="email-checked-svg-4" d="M38,32.984H99.27V58.891c0,14.143-8.256,36.389-30.635,45.577A50.576,50.576,0,0,1,38,58.891Z" transform="translate(55.905 37.245)"/>
      <path id="layer1" class="email-checked-svg-5" d="M56.89,66.791,44.748,54.649a2.553,2.553,0,1,1,3.61-3.61l8.281,8.282L72.723,40.94A2.553,2.553,0,1,1,76.552,44.3Z" transform="translate(65.223 48.061)"/>
      <path id="opacity-2" data-name="opacity" class="email-checked-svg-6" d="M68.635,32.984H38V58.891a50.576,50.576,0,0,0,30.635,45.575Z" transform="translate(55.905 37.245)"/>
      <path id="opacity-3" data-name="opacity" class="email-checked-svg-6" d="M56.706,33.025l-.041-.041L25.992,63.66H56.949a42.03,42.03,0,0,1-.3-4.731v-25.9Z" transform="translate(37.258 37.245)"/>
    </g>
  </g>
</svg>
