<svg class="flask-silver-bgc-rounded-svg" xmlns="http://www.w3.org/2000/svg" xmlns:xlink="http://www.w3.org/1999/xlink" viewBox="0 0 306 306">
  <defs>
    <style>
      .flask-silver-bgc-rounded-svg-1 {
        fill: #ececec;
      }

      .flask-silver-bgc-rounded-svg-2 {
        fill: #87d2f3;
      }

      .flask-silver-bgc-rounded-svg-3 {
        fill: #fff;
      }

      .flask-silver-bgc-rounded-svg-4 {
        fill: #2170a6;
      }

      .flask-silver-bgc-rounded-svg-5 {
        clip-path: url(#clip-path);
      }
    </style>
    <clipPath id="clip-path">
      <rect id="Rectangle_335" data-name="Rectangle 335" width="136.174" height="148.853"/>
    </clipPath>
  </defs>
  <g id="Group_640" data-name="Group 640" transform="translate(-400 -4653)">
    <circle id="Ellipse_1602" data-name="Ellipse 1602" class="flask-silver-bgc-rounded-svg-1" cx="153" cy="153" r="153" transform="translate(400 4653)"/>
    <g id="Group_629" data-name="Group 629" transform="translate(485 4731.436)">
      <path id="Path_442" data-name="Path 442" class="flask-silver-bgc-rounded-svg-2" d="M146.611,213.636a49.474,49.474,0,1,1-93.717,6.158H91.511l9.274,9.274L116.254,213.6h30.358Zm0,0" transform="translate(-32.716 -136.221)"/>
      <rect id="Rectangle_333" data-name="Rectangle 333" class="flask-silver-bgc-rounded-svg-2" width="37.096" height="12.353" transform="translate(49.485 3.224)"/>
      <path id="Path_443" data-name="Path 443" class="flask-silver-bgc-rounded-svg-3" d="M149.417,104.838H119.023l-15.469,15.469-9.274-9.274H55.7a49.435,49.435,0,0,1,38.617-36.19V43h18.548V74.807a49.515,49.515,0,0,1,36.552,30.032Zm0,0" transform="translate(-35.522 -27.423)"/>
      <path id="Path_444" data-name="Path 444" class="flask-silver-bgc-rounded-svg-2" d="M345.189,356.395a6.195,6.195,0,1,1-6.195-6.195,6.192,6.192,0,0,1,6.195,6.195Zm0,0" transform="translate(-212.239 -223.336)"/>
      <path id="Path_445" data-name="Path 445" class="flask-silver-bgc-rounded-svg-3" d="M311.089,296.595a6.195,6.195,0,1,1-6.195-6.195,6.192,6.192,0,0,1,6.195,6.195Zm0,0" transform="translate(-190.492 -185.199)"/>
      <path id="Path_446" data-name="Path 446" class="flask-silver-bgc-rounded-svg-3" d="M276.989,356.395a6.195,6.195,0,1,1-6.195-6.195,6.192,6.192,0,0,1,6.195,6.195Zm0,0" transform="translate(-168.745 -223.336)"/>
      <path id="Path_447" data-name="Path 447" class="flask-silver-bgc-rounded-svg-3" d="M89.189,185.695a6.195,6.195,0,1,1-6.195-6.195,6.192,6.192,0,0,1,6.195,6.195Zm0,0" transform="translate(-48.978 -114.474)"/>
      <path id="Path_448" data-name="Path 448" class="flask-silver-bgc-rounded-svg-2" d="M55.089,125.995a6.195,6.195,0,1,1-6.195-6.195,6.192,6.192,0,0,1,6.195,6.195Zm0,0" transform="translate(-27.231 -76.401)"/>
      <path id="Path_449" data-name="Path 449" class="flask-silver-bgc-rounded-svg-2" d="M20.989,185.695a6.195,6.195,0,1,1-6.195-6.195,6.192,6.192,0,0,1,6.195,6.195Zm0,0" transform="translate(-5.485 -114.474)"/>
      <path id="Path_450" data-name="Path 450" class="flask-silver-bgc-rounded-svg-4" d="M95.29,294.242A46.428,46.428,0,0,1,48.921,247.8a44.49,44.49,0,0,1,.8-8.477L43.632,238.2a52.614,52.614,0,0,0,42.095,61.331,52.422,52.422,0,0,0,29.307-2.9l-2.318-5.724a47.746,47.746,0,0,1-17.425,3.333Zm0,0" transform="translate(-27.258 -151.909)"/>
      <path id="Path_451" data-name="Path 451" class="flask-silver-bgc-rounded-svg-4" d="M117.195,15.769a3.077,3.077,0,0,0,3.079,3.079h6.195V45.076A52.009,52.009,0,0,0,112.992,50.4l3.043,5.4a45.861,45.861,0,0,1,14.092-5.18,3.1,3.1,0,0,0,2.5-3.043V18.848H144.98V47.575a3.1,3.1,0,0,0,2.5,3.043,46.38,46.38,0,0,1,37.675,45.536h6.195a52.542,52.542,0,0,0-40.175-51.043V18.848h6.195a3.077,3.077,0,0,0,3.079-3.079V6.495h6.195V.3H111V6.495h6.195Zm37.1-9.274v6.195h-30.9V6.495Zm0,0" transform="translate(-70.789 -0.191)"/>
      <path id="Path_452" data-name="Path 452" class="flask-silver-bgc-rounded-svg-4" d="M189.228,211.295V205.1H170.68a3.04,3.04,0,0,0-2.174.906l-13.259,13.259-7.1-7.1a3.1,3.1,0,0,0-2.174-.906H136.7v6.195h8.006l8.368,8.368a3.127,3.127,0,0,0,4.383,0l14.563-14.563h17.207Zm0,0" transform="translate(-87.179 -130.8)"/>
      <path id="Path_453" data-name="Path 453" class="flask-silver-bgc-rounded-svg-4" d="M91.595,264.9H85.4A37.167,37.167,0,0,0,122.5,302V295.8a30.952,30.952,0,0,1-30.9-30.9Zm0,0" transform="translate(-54.463 -168.937)"/>
      <g id="Group_499" data-name="Group 499">
        <g id="Group_496" data-name="Group 496" class="flask-silver-bgc-rounded-svg-5">
          <rect id="Rectangle_334" data-name="Rectangle 334" class="flask-silver-bgc-rounded-svg-4" width="6.195" height="6.195" transform="translate(74.228 126.864)"/>
        </g>
        <g id="Group_497" data-name="Group 497" class="flask-silver-bgc-rounded-svg-5">
          <path id="Path_454" data-name="Path 454" class="flask-silver-bgc-rounded-svg-4" d="M18,145.106h7.354a9.451,9.451,0,1,0,7.354-12.244l-4.2-6.267a9.281,9.281,0,1,0-13.657-.036l-4.2,6.267c-.435-.072-.906-.109-1.34-.145a9.31,9.31,0,0,0-.072,18.62A9.256,9.256,0,0,0,18,145.106Zm3.659-15.432a8.421,8.421,0,0,0,1.34-.145l4.2,6.267a9.445,9.445,0,0,0-1.884,3.115H18A8.874,8.874,0,0,0,16.12,135.8l4.2-6.267c.471.072.906.109,1.34.145Zm15.469,12.353a3.079,3.079,0,1,1-3.079-3.079,3.077,3.077,0,0,1,3.079,3.079ZM21.663,117.285a3.079,3.079,0,1,1-3.079,3.079,3.077,3.077,0,0,1,3.079-3.079ZM9.31,145.106a3.079,3.079,0,1,1,3.079-3.079,3.077,3.077,0,0,1-3.079,3.079Zm0,0" transform="translate(0 -70.806)"/>
        </g>
        <g id="Group_498" data-name="Group 498" class="flask-silver-bgc-rounded-svg-5">
          <path id="Path_455" data-name="Path 455" class="flask-silver-bgc-rounded-svg-4" d="M290.052,303.517a8.418,8.418,0,0,0-1.34.145l-4.2-6.267a9.281,9.281,0,1,0-13.657-.036l-4.2,6.267c-.435-.072-.906-.109-1.34-.145A9.274,9.274,0,1,0,274,315.834h7.354a9.253,9.253,0,1,0,8.694-12.317Zm-17.9,3.043,4.2-6.267a6.681,6.681,0,0,0,2.681,0l4.2,6.267a9.444,9.444,0,0,0-1.884,3.115H274.04a9.444,9.444,0,0,0-1.884-3.115Zm5.506-18.512a3.079,3.079,0,1,1-3.079,3.079,3.077,3.077,0,0,1,3.079-3.079ZM265.31,315.87a3.079,3.079,0,1,1,3.079-3.079,3.077,3.077,0,0,1-3.079,3.079Zm24.742,0a3.079,3.079,0,1,1,3.079-3.079,3.077,3.077,0,0,1-3.079,3.079Zm0,0" transform="translate(-163.26 -179.732)"/>
        </g>
      </g>
      <rect id="Rectangle_338" data-name="Rectangle 338" class="flask-silver-bgc-rounded-svg-4" width="6.195" height="6.195" transform="translate(34.053 37.204)"/>
      <rect id="Rectangle_339" data-name="Rectangle 339" class="flask-silver-bgc-rounded-svg-4" width="6.195" height="6.195" transform="translate(27.858 31.046)"/>
      <rect id="Rectangle_340" data-name="Rectangle 340" class="flask-silver-bgc-rounded-svg-4" width="6.195" height="6.195" transform="translate(95.855 95.963)"/>
      <rect id="Rectangle_341" data-name="Rectangle 341" class="flask-silver-bgc-rounded-svg-4" width="6.195" height="6.195" transform="translate(89.696 102.122)"/>
    </g>
  </g>
</svg>
