<svg xmlns="http://www.w3.org/2000/svg" viewBox="0 0 57.854 57.854">
  <defs>
    <style>
      .gc-cls-1 {
        fill: #ececec;
      }

      .gc-cls-2 {
        fill: #5a4146;
      }

      .gc-cls-3 {
        fill: #e6af78;
      }

      .gc-cls-4 {
        fill: #d29b6e;
      }

      .gc-cls-5 {
        fill: #e4eaf6;
      }

      .gc-cls-6 {
        fill: #d7deed;
      }

      .gc-cls-7 {
        fill: #707487;
      }

      .gc-cls-8 {
        fill: #65687a;
      }

      .gc-cls-9 {
        fill: #f0c087;
      }

      .gc-cls-10 {
        fill: #464655;
      }

      .gc-cls-11 {
        fill: #5b5d6e;
      }
    </style>
  </defs>
  <g id="Group_929" data-name="Group 929" transform="translate(-6359 -2247)">
    <ellipse id="Ellipse_501" data-name="Ellipse 501" class="gc-cls-1" cx="28.927" cy="28.927" rx="28.927" ry="28.927" transform="translate(6359 2247)"/>
    <g id="Support_-_01" data-name="Support - 01" transform="translate(6374 2257)">
      <path id="Path_702" data-name="Path 702" class="gc-cls-2" d="M112.49,22.749a1.287,1.287,0,0,1-.754,1.173A27.75,27.75,0,0,1,100.4,26.091a27.749,27.749,0,0,1-11.334-2.169,1.288,1.288,0,0,1-.754-1.173C88.4,10.6,90.626,0,100.4,0S112.4,10.6,112.49,22.749Z" transform="translate(-86.402)"/>
      <path id="Path_703" data-name="Path 703" class="gc-cls-3" d="M80.248,303.217v-3.079H71.338v3.079a1.909,1.909,0,0,1-1.305,1.811l-6.064,2.022a3.182,3.182,0,0,0-2.176,3.019v4.07a1.273,1.273,0,0,0,1.273,1.273H88.52a1.273,1.273,0,0,0,1.273-1.273v-4.07a3.182,3.182,0,0,0-2.176-3.019l-6.064-2.022A1.909,1.909,0,0,1,80.248,303.217Z" transform="translate(-61.793 -278.502)"/>
      <path id="Path_704" data-name="Path 704" class="gc-cls-4" d="M179.211,303.217a1.9,1.9,0,0,1-1.165,1.752c7.131,1.215,10.072-3.876,10.072-3.876h0v-.953h-8.909Z" transform="translate(-169.666 -278.502)"/>
      <path id="Path_705" data-name="Path 705" class="gc-cls-5" d="M87.618,374.748,82.663,373.1a15.456,15.456,0,0,1-6.869,5.559,15.457,15.457,0,0,1-6.869-5.559l-4.955,1.652a3.182,3.182,0,0,0-2.176,3.019v4.07a1.273,1.273,0,0,0,1.273,1.273H88.521a1.273,1.273,0,0,0,1.273-1.273v-4.07A3.182,3.182,0,0,0,87.618,374.748Z" transform="translate(-61.794 -346.2)"/>
      <g id="Group_276" data-name="Group 276" transform="translate(0 26.896)">
        <path id="Path_706" data-name="Path 706" class="gc-cls-6" d="M66.138,412.079l-3.53-3.53a3.172,3.172,0,0,0-.815,2.115v4.07a1.273,1.273,0,0,0,1.273,1.273h3.818v-2.127A2.545,2.545,0,0,0,66.138,412.079Z" transform="translate(-61.793 -405.993)"/>
        <path id="Path_707" data-name="Path 707" class="gc-cls-6" d="M380.332,412.079l3.53-3.53a3.173,3.173,0,0,1,.815,2.115v4.07a1.273,1.273,0,0,1-1.273,1.273h-3.818v-2.127A2.545,2.545,0,0,1,380.332,412.079Z" transform="translate(-356.677 -405.993)"/>
        <path id="Path_708" data-name="Path 708" class="gc-cls-6" d="M143.567,373.849a16.664,16.664,0,0,0,7.5,6.014l.393.128.393-.128a16.665,16.665,0,0,0,7.5-6.014l.228-.338-1.253-.418a15.456,15.456,0,0,1-6.869,5.559,15.456,15.456,0,0,1-6.869-5.559l-1.253.418Z" transform="translate(-137.46 -373.094)"/>
      </g>
      <path id="Path_709" data-name="Path 709" class="gc-cls-7" d="M116.774,185.438l-.739,0a1.273,1.273,0,0,0-1.277,1.273v2.516a1.273,1.273,0,0,0,1.3,1.273l1.1-.022Z" transform="translate(-110.94 -172.068)"/>
      <path id="Path_710" data-name="Path 710" class="gc-cls-8" d="M132.418,185.436h0V190.5l.025,0,1.1-.022-.379-5.037Z" transform="translate(-127.323 -172.068)"/>
      <path id="Path_711" data-name="Path 711" class="gc-cls-7" d="M364.4,185.438l.739,0a1.273,1.273,0,0,1,1.277,1.273v2.516a1.273,1.273,0,0,1-1.3,1.273l-1.1-.022Z" transform="translate(-342.233 -172.068)"/>
      <path id="Path_712" data-name="Path 712" class="gc-cls-8" d="M365.137,185.436h0V190.5l-.025,0-1.1-.022.379-5.037Z" transform="translate(-342.232 -172.068)"/>
      <path id="Path_713" data-name="Path 713" class="gc-cls-9" d="M141.241,105.931v2.744q0,1.71.131,3.416l.367,4.767a3.818,3.818,0,0,0,1.617,2.835l3.843,2.69a4.034,4.034,0,0,0,2.314.729h0a4.034,4.034,0,0,0,2.314-.729l3.843-2.69a3.818,3.818,0,0,0,1.617-2.835l.367-4.767q.131-1.7.131-3.416v-2.744Z" transform="translate(-135.514 -98.295)"/>
      <path id="Path_714" data-name="Path 714" class="gc-cls-3" d="M157.739,105.931h-16.5v2.744c0,.354.012.707.02,1.06h0q.015.637.048,1.274h0c.019.361.035.721.062,1.081l.367,4.767a3.818,3.818,0,0,0,1.617,2.835l3.843,2.69a4.035,4.035,0,0,0,2.314.729c-1.021,0-2.144-1.758-2.848-3.091a6.336,6.336,0,0,1-.73-2.844l-.107-5.762a.927.927,0,0,1,.775-.926,34,34,0,0,0,7.67-2.244,6.223,6.223,0,0,0,3.054,2.708l.2.068h.19q.034-.636.049-1.273Z" transform="translate(-135.514 -98.295)"/>
      <path id="Path_715" data-name="Path 715" class="gc-cls-2" d="M132.414,97.1v4.455a32.1,32.1,0,0,0,14.24-3.2,5.451,5.451,0,0,0,2.894,3.2h.684V97.1Z" transform="translate(-127.323 -90.103)"/>
      <path id="Path_716" data-name="Path 716" class="gc-cls-10" d="M284.336,255.248l-1.092-.022c-.486.883-1.941,2.328-6.28,2.328v1.273c5.8,0,7.287-2.471,7.665-3.61A1.275,1.275,0,0,1,284.336,255.248Z" transform="translate(-261.453 -236.819)"/>
      <path id="Path_717" data-name="Path 717" class="gc-cls-11" d="M248.763,284.393h-.636a.955.955,0,0,1-.955-.954h0a.955.955,0,0,1,.955-.955h.636a.955.955,0,0,1,.954.955h0A.954.954,0,0,1,248.763,284.393Z" transform="translate(-233.808 -262.12)"/>
    </g>
  </g>
</svg>
