<svg class="gray-puzzle-svg" xmlns="http://www.w3.org/2000/svg" viewBox="-5619 -4927.2 100 124.896">
  <defs>
    <style>
      .gray-puzzle-svg-1 {
        fill: #ccc;
      }
    </style>
  </defs>
  <path id="Path_354" data-name="Path 354" class="gray-puzzle-svg-1" d="M49.329,124.864H89.278a7.538,7.538,0,0,0,7.1-5.145,28.834,28.834,0,0,0,1.485-6.132c.538-3.588.947-7.217,1.37-10.819.269-2.364.474-4.728.691-7.092.23-2.573-.832-5.215-3.11-6.3a5.38,5.38,0,0,0-4.3-.028A20.291,20.291,0,0,0,86.859,92.8c-1.242.987-2.445,2-3.712,2.948a10.316,10.316,0,0,1-6.477,1.988,12.346,12.346,0,0,1-9.843-4.784,13.661,13.661,0,0,1-3.021-9.762A13.278,13.278,0,0,1,74.3,70.813a11.824,11.824,0,0,1,9.063,1.961c1.574,1.043,3.072,2.239,4.608,3.337a18.05,18.05,0,0,0,4.928,2.7,4.884,4.884,0,0,0,6.8-4.2,10.9,10.9,0,0,0,.09-2.586c-.115-2.016-.294-4.033-.448-6.049-.166-2.128-.32-4.255-.512-6.383-.192-2.169-.371-4.339-.6-6.508q-.48-4.339-1.037-8.677a32.681,32.681,0,0,0-.627-3.727c-.6-2.322-1.779-4.186-3.968-5.048a7.007,7.007,0,0,0-1.984-.459,22.061,22.061,0,0,0-4.774.375c-2.022.236-4.032.487-6.054.723-2.355.278-4.71.556-7.078.82-2.291.25-4.6.5-6.886.709-1.139.111-2.278.139-3.418.167a3.092,3.092,0,0,1-1-.181,1.586,1.586,0,0,1-1.152-2.044,10.744,10.744,0,0,1,1.7-4.088,32.425,32.425,0,0,0,3.341-6.313,18.745,18.745,0,0,0-.358-13.892C62.6,5.819,58.609,2.134,53.118.66c-6.989-1.877-13.069.111-18,5.882a18.667,18.667,0,0,0-4.186,9.581A17.811,17.811,0,0,0,33.355,28.3c.755,1.252,1.472,2.517,2.15,3.824a8.047,8.047,0,0,1,1.088,4.13c-.038.987-.512,1.655-1.421,1.71a17.352,17.352,0,0,1-2.816-.111c-2.368-.25-4.749-.542-7.117-.82-2.406-.278-4.826-.556-7.232-.82-2.227-.25-4.454-.487-6.694-.723-1.126-.125-2.24-.25-3.366-.362a2.53,2.53,0,0,0-.858.028,9.536,9.536,0,0,0-5.747,4.1A9.884,9.884,0,0,0-.041,44.6q.019,24.55,0,49.087V114.6a11.436,11.436,0,0,0,1.4,5.868,8.524,8.524,0,0,0,6.157,4.213,12.357,12.357,0,0,0,2.266.181Q29.553,124.885,49.329,124.864Z" transform="translate(-5618.959 -4927.175)"/>
</svg>
