<svg class="heart-red-svg" xmlns="http://www.w3.org/2000/svg" viewBox="0 0 70 70">
  <defs>
    <style>
      .cls-1 {
        fill: #f9f9f9;
      }

      .cls-2 {
        fill: #f26161;
      }

      .cls-3 {
        fill: #fff;
      }

      .cls-4 {
        fill: #000064;
        opacity: 0.15;
      }
    </style>
  </defs>
  <g id="Group_1200" data-name="Group 1200" transform="translate(-756 -1205)">
    <circle id="Ellipse_1743" data-name="Ellipse 1743" class="cls-1" cx="35" cy="35" r="35" transform="translate(756 1205)"/>
    <g id="heartbeat-8736_e8d6f126-dcdb-4e75-9c4f-460f43196b24" transform="translate(770.483 1225.517)">
      <path id="layer2" class="cls-2" d="M37.959,26.93c-5.2,8.1-14.794,13.456-14.794,13.456s-9.3-5.165-14.589-12.769L6.946,24.934A16.053,16.053,0,0,1,5,17.555C5,4.835,20.43,4.809,23.113,14.2,25.8,4.809,41.226,4.809,41.226,16.884a17.141,17.141,0,0,1-1.774,7.379Z" transform="translate(-2.317 -7.461)"/>
      <path id="layer1" class="cls-3" d="M41.921,29.09H30.053c-.382,0-.727.047-.9.39l-1.931,3.781-3.876-9.455a1.022,1.022,0,0,0-.861-.642,1,1,0,0,0-.939.487l-3.832,6.564-2.492-3.5a1,1,0,0,0-.791-.423c-.317-.011-.614.294-.814.543l-2.206,2.921H1.671a.671.671,0,1,0,0,1.342h9.9c.307,0,.593-.3.785-.543l2.029-2.616,2.538,3.511a.975.975,0,0,0,.865.4,1.015,1.015,0,0,0,.823-.509l3.751-6.437,3.9,9.534a1.038,1.038,0,0,0,.894.682h.038a.915.915,0,0,0,.9-.458l2.167-4.238H41.921a.671.671,0,1,0,0-1.342Z" transform="translate(-1 -12.629)"/>
      <path id="opacity" class="cls-4" d="M9.829,33.642C15.12,41.248,24.418,46.41,24.418,46.41s9.593-5.357,14.794-13.456l.932-1.666H32.832l-2.167,4.238a.915.915,0,0,1-.9.458h-.038a1.038,1.038,0,0,1-.894-.687l-3.9-9.534L21.182,32.2a1.015,1.015,0,0,1-.823.509.975.975,0,0,1-.865-.4L16.957,28.8l-2.029,2.616c-.193.24-.478.543-.785.543H8.808Z" transform="translate(-3.57 -13.485)"/>
    </g>
  </g>
</svg>
