<svg class="key-blue-dark-svg" xmlns="http://www.w3.org/2000/svg" viewBox="0 0 368 368">
  <defs>
    <style>
      .key-blue-dark-svg-1 {
        fill: #f3f3f3;
      }

      .key-blue-dark-svg-2 {
        fill: #41c5eb;
      }

      .key-blue-dark-svg-3 {
        fill: #000064;
        opacity: 0.15;
      }
    </style>
  </defs>
  <g id="Group_667" data-name="Group 667" transform="translate(-118 -3934)">
    <circle id="Ellipse_1449" data-name="Ellipse 1449" class="key-blue-dark-svg-1" cx="184" cy="184" r="184" transform="translate(118 3934)"/>
    <g id="privacy-7094_98bdd5c7-5bd4-4e88-89fd-0564820211cc" transform="translate(236.998 4047.882)">
      <path id="layer2" class="key-blue-dark-svg-2" d="M22.988,99.7l-6.742-6.744,6.773-6.773,6.742,6.744a4.781,4.781,0,0,0,6.758-6.763L29.782,79.43,74.407,34.8,67.648,28.04,6.107,89.581a4.78,4.78,0,0,0,0,6.758L16.23,106.463A4.779,4.779,0,1,0,22.989,99.7Z" transform="translate(-4.707 32.722)"/>
      <path id="layer1" class="key-blue-dark-svg-2" d="M97.135,33.229A17.923,17.923,0,1,0,67,24.511,17.923,17.923,0,1,0,40.208,44.879l-1.5,1.5L28.293,56.795,48.2,76.706,59.437,65.474s.239-.265.676-.717a17.923,17.923,0,1,0,20.4-26.765,17.887,17.887,0,0,0,16.623-4.763ZM55.792,35.707a5.914,5.914,0,1,0-.014,0ZM81.124,49.229a8.364,8.364,0,1,1-11.832,0,8.364,8.364,0,0,1,11.832,0Zm-2.59-22.763a8.364,8.364,0,1,1,11.827,0,8.364,8.364,0,0,1-11.827,0Z" transform="translate(28.071 -2.614)"/>
      <path id="opacity" class="key-blue-dark-svg-3" d="M80.142,73.622,91.374,62.39s.239-.265.676-.717a17.923,17.923,0,1,0,20.4-26.765A17.923,17.923,0,0,0,129.111,4.837L122.347,11.6a8.364,8.364,0,0,1-11.82,11.82L70.234,63.714Zm21.092-27.482a8.364,8.364,0,1,1,0,11.827,8.364,8.364,0,0,1,0-11.827ZM22.147,131.951l-6.742-6.744,6.773-6.773,6.742,6.744a4.781,4.781,0,1,0,6.758-6.763l-6.737-6.739L73.565,67.045l-3.331-3.331L5.313,128.634,15.388,138.71a4.779,4.779,0,1,0,6.759-6.759Z" transform="translate(-3.866 0.475)"/>
    </g>
  </g>
</svg>
