<svg class="laptop-success-svg" xmlns="http://www.w3.org/2000/svg" viewBox="0 0 133.158 133.158">
  <defs>
    <style>
      .laptop-success-svg-1 {
        fill: #f9f9f9;
      }

      .laptop-success-svg-2 {
        fill: #41c5eb;
      }

      .laptop-success-svg-3 {
        fill: #000064;
        opacity: 0.15;
      }

      .laptop-success-svg-4, .laptop-success-svg-7, .laptop-success-svg-9 {
        fill: #fff;
      }

      .laptop-success-svg-4 {
        opacity: 0.3;
      }

      .laptop-success-svg-5, .laptop-success-svg-6 {
        fill: #063f5f;
      }

      .laptop-success-svg-8, .laptop-success-svg-9 {
        stroke: none;
      }
    </style>
  </defs>
  <g id="Group_1229" data-name="Group 1229" transform="translate(-614.107 -1056.264)">
    <circle id="Ellipse_1788" data-name="Ellipse 1788" class="laptop-success-svg-1" cx="66.579" cy="66.579" r="66.579" transform="translate(614.107 1056.264)"/>
    <g id="laptop-screen-7216_727dd875-7816-4f66-a6dc-7fc12989c5e7" transform="translate(644.327 1095.799)">
      <path id="layer3" class="laptop-success-svg-2" d="M6.907,44,1,54.632v3.544H74.241V54.632L68.335,44" transform="translate(-1 -3.835)"/>
      <path id="opacity" class="laptop-success-svg-3" d="M1,53H74.241v3.544H1Z" transform="translate(-1 -2.204)"/>
      <path id="layer2" class="laptop-success-svg-2" d="M7,11H66.065V48.8H7Z" transform="translate(0.088 -9.819)"/>
      <path id="opacity-2" data-name="opacity" class="laptop-success-svg-4" d="M16,49.8H45.533l17.72-17.72V12H53.8Z" transform="translate(1.72 -9.637)"/>
      <path id="layer1" class="laptop-success-svg-5" d="M6,42H67.428v2.363H6Z" transform="translate(-0.093 -4.198)"/>
      <path id="layer1-2" data-name="layer1" class="laptop-success-svg-5" d="M66.247,50.164a1.181,1.181,0,0,1-1.181-1.181V12.363H8.363V47.8A1.181,1.181,0,1,1,6,47.8V11.181A1.181,1.181,0,0,1,7.181,10H66.247a1.181,1.181,0,0,1,1.181,1.181v37.8A1.181,1.181,0,0,1,66.247,50.164Z" transform="translate(-0.093 -10)"/>
      <g id="Group_758" data-name="Group 758" transform="translate(26.11 8.244)">
        <g id="layer2-2" data-name="layer2" class="laptop-success-svg-6" transform="translate(-38 -32.984)">
          <path class="laptop-success-svg-8" d="M 48.1890754699707 57.86345291137695 L 47.80337524414063 57.69805145263672 C 44.63895416259766 56.341064453125 41.95107269287109 54.11336135864258 40.03033447265625 51.25578308105469 C 38.10959625244141 48.398193359375 37.06177520751953 45.06811141967773 37.00016403198242 41.62555313110352 L 37.00000381469727 41.61661148071289 L 37.00000381469727 41.60766220092773 L 37.00000381469727 32.98399353027344 L 37.00000381469727 31.98399353027344 L 38.00000381469727 31.98399353027344 L 58.39498519897461 31.98399353027344 L 59.39498519897461 31.98399353027344 L 59.39498519897461 32.98399353027344 L 59.39498519897461 41.60767364501953 C 59.39498519897461 44.43592071533203 58.50645446777344 47.60755157470703 56.95721435546875 50.30931091308594 C 55.01708602905273 53.69275283813477 52.11935424804688 56.24982070922852 48.57729339599609 57.70406341552734 L 48.1890754699707 57.86345291137695 Z"/>
          <path class="laptop-success-svg-9" d="M 48.19749450683594 56.77899169921875 C 55.64675521850586 53.7205924987793 58.39498519897461 46.31551361083984 58.39498519897461 41.60767364501953 L 58.39498519897461 32.98399353027344 L 38.00000381469727 32.98399353027344 L 38.00000381469727 41.60766220092773 C 38.11853408813477 48.23053359985352 42.10970306396484 54.16839218139648 48.19749450683594 56.77899169921875 M 48.1806526184082 58.94790267944336 L 47.40926361083984 58.61711120605469 C 44.06740570068359 57.18404388427734 41.22882461547852 54.8314323425293 39.20039367675781 51.81363296508789 C 37.17195510864258 48.79582214355469 36.06539535522461 45.27903366088867 36.00032424926758 41.64345169067383 L 36.00000381469727 41.62556076049805 L 36.00000381469727 41.60766220092773 L 36.00000381469727 32.98399353027344 L 36.00000381469727 30.98399353027344 L 38.00000381469727 30.98399353027344 L 58.39498519897461 30.98399353027344 L 60.39498519897461 30.98399353027344 L 60.39498519897461 32.98399353027344 L 60.39498519897461 41.60767364501953 C 60.39498519897461 44.60520172119141 59.45815277099609 47.9581413269043 57.82470321655273 50.8067512512207 C 55.77301406860352 54.38476181030273 52.70663452148438 57.08970260620117 48.95709609985352 58.62913131713867 L 48.1806526184082 58.94790267944336 Z"/>
        </g>
        <path id="layer1-3" data-name="layer1" class="laptop-success-svg-7" d="M48.291,48.884l-4.042-4.042a.85.85,0,1,1,1.2-1.2L48.207,46.4l5.354-6.118A.85.85,0,1,1,54.836,41.4Z" transform="translate(-38.901 -34.03)"/>
        <path id="opacity-3" data-name="opacity" class="laptop-success-svg-3" d="M48.2,32.984H38v8.624a16.835,16.835,0,0,0,10.2,15.17Z" transform="translate(-38 -32.984)"/>
      </g>
    </g>
  </g>
</svg>
