<svg xmlns="http://www.w3.org/2000/svg" viewBox="0 0 368 368">
  <defs>
    <style>
      .cls-1, .cls-3 {
        fill: #fff;
      }

      .cls-2 {
        fill: #cbe1f0;
      }

      .cls-3 {
        opacity: 0.5;
      }

      .cls-4 {
        fill: #7b8baf;
      }

      .cls-5 {
        fill: #c8daf8;
      }

      .cls-6, .cls-9 {
        fill: #000064;
      }

      .cls-6 {
        opacity: 0.12;
      }

      .cls-7 {
        fill: #f26161;
      }

      .cls-8 {
        fill: #556685;
      }

      .cls-9 {
        opacity: 0.16;
      }
    </style>
  </defs>
  <g id="Group_666" data-name="Group 666" transform="translate(-1130 -2728)">
    <circle id="Ellipse_1418" data-name="Ellipse 1418" class="cls-1" cx="184" cy="184" r="184" transform="translate(1130 2728)"/>
    <g id="medical-record-8769_d1c0378b-b5d7-4029-b0d4-63b68cd484a3" transform="translate(1235.143 2833.143)">
      <path id="layer5" class="cls-2" d="M18,2V159.466H133.475V38.742L96.733,2Z" transform="translate(23.991 -2)"/>
      <path id="opacity" class="cls-3" d="M84.742,38.742H48V2Z" transform="translate(72.724 -2)"/>
      <path id="layer3" class="cls-4" d="M17.747,11.873A7.873,7.873,0,1,0,2,11.873v118.1H17.747Z" transform="translate(-2 1.249)"/>
      <path id="layer4" class="cls-5" d="M2,52v5.181a13.122,13.122,0,0,0,1.05,5.17L9.611,77.683a.262.262,0,0,0,.483,0l6.561-15.332a13.122,13.122,0,0,0,1.05-5.17V52Z" transform="translate(-2 79.222)"/>
      <path id="layer3-2" data-name="layer3" class="cls-4" d="M25,25v83.982h78.733V25Zm5.249,31.493h21v21h-21Zm26.244,0H98.484v21H56.493Zm41.991-5.249H56.493v-21H98.484Zm-47.24-21v21h-21v-21Zm-21,52.489h21v21h-21Zm26.244,21v-21H98.484v21Z" transform="translate(35.362 35.362)"/>
      <path id="opacity-2" data-name="opacity" class="cls-6" d="M18,81.484,70.489,29l-21-21L18,39.493Z" transform="translate(23.991 7.747)"/>
      <path id="layer2" class="cls-7" d="M57.493,18.5H47V8H36.5V18.5H26V29H36.5v10.5H47V29h10.5Z" transform="translate(36.986 7.747)"/>
      <path id="layer1" class="cls-8" d="M20.371,8H2v5.249H20.371A2.624,2.624,0,0,1,23,15.873V52.615a2.624,2.624,0,1,0,5.249,0V15.873A7.873,7.873,0,0,0,20.371,8Z" transform="translate(-2 7.747)"/>
      <path id="opacity-3" data-name="opacity" class="cls-9" d="M2,11.873v123.28a13.122,13.122,0,0,0,1.05,5.17l6.561,15.332a.262.262,0,0,0,.241.158V4A7.873,7.873,0,0,0,2,11.873Z" transform="translate(-2 1.249)"/>
    </g>
  </g>
</svg>
