<svg class="pink-brain-svg" xmlns="http://www.w3.org/2000/svg" viewBox="0 0 368.386 368.386">
  <defs>
    <style>
      .pink-brain-svg-1 {
        fill: #fff;
      }

      .pink-brain-svg-2 {
        fill: #f2869f;
      }

      .pink-brain-svg-3 {
        fill: #e06c8b;
      }

      .pink-brain-svg-4 {
        fill: #000064;
        opacity: 0.15;
      }
    </style>
  </defs>
  <g id="Group_663" data-name="Group 663" transform="translate(-1095 -1066)">
    <circle id="Ellipse_1405" data-name="Ellipse 1405" class="pink-brain-svg-1" cx="184.193" cy="184.193" r="184.193" transform="translate(1095 1066)"/>
    <g id="brain-8798_3c474f40-ac0b-437a-a97f-25fc89a032ac" transform="translate(1189.43 1154.391)">
      <path id="layer2" class="pink-brain-svg-2" d="M64.136,4.522c-21.583-5.4-29.565.53-31.587,2.571a.762.762,0,0,1-.55.238V188.513a.771.771,0,0,1,.617.321c1.382,1.832,5.707,5.293,18.665,5.293,17.675,0,70.7-14.616,70.7-83.554S90.009,10.991,64.136,4.522Z" transform="translate(57.982 -2.312)"/>
      <path id="layer1" class="pink-brain-svg-3" d="M102.53,32.6Q100.6,29.7,98.577,27.11A26.352,26.352,0,0,0,80.169,51.18a28.849,28.849,0,0,0-6.935.4,3.214,3.214,0,1,0,1.093,6.334,14.291,14.291,0,0,1,11.6,1.87,12.019,12.019,0,0,1,3.921,7.957,3.214,3.214,0,0,0,3.214,3.075h.122a3.214,3.214,0,0,0,3.092-3.333,18.453,18.453,0,0,0-6.254-12.652,15.555,15.555,0,0,0-3.535-2.15A20.365,20.365,0,0,1,102.53,32.6ZM121.153,90.83a29.98,29.98,0,0,0-23.225-5.592,29.431,29.431,0,0,0-23.186,19.23,22.238,22.238,0,0,0-16.39,9.416,3.214,3.214,0,0,0,5.142,3.856A15.371,15.371,0,0,1,77.187,110.9a16.525,16.525,0,0,1,13,9.567,3.214,3.214,0,0,0,5.749-2.876,23.424,23.424,0,0,0-14.622-12.417,23.746,23.746,0,0,1,40.463-4.628q-.187-4.865-.623-9.715ZM54.5,102.955A18.424,18.424,0,0,1,60.6,88.172l.109-.1a20.506,20.506,0,0,1,13.067-4.4,3.214,3.214,0,1,0,0-6.427,27.589,27.589,0,0,0-14.535,4.081c-5.858-7.526-18-9.7-27.242-8.15v6.569c7.931-1.758,18.163.183,22.3,5.691a25.272,25.272,0,0,0-6.228,17.518,3.214,3.214,0,1,0,6.427,0Zm-1.43-35.89a3.214,3.214,0,0,0,.89-4.457A19.79,19.79,0,0,1,52.22,45.993a11.161,11.161,0,0,1,6.5-7.478,3.218,3.218,0,0,0-2.034-6.106,17.354,17.354,0,0,0-10.55,11.5,25.8,25.8,0,0,0-.858,3.236A34.662,34.662,0,0,0,32,47.359v6.578a28.454,28.454,0,0,1,12.784-.321,24.536,24.536,0,0,0,3.824,12.569,3.214,3.214,0,0,0,4.457.89Zm58.954,87.2c-10.605-1.115-20.709-9.509-22.422-16.354a30.159,30.159,0,0,1,12.479.321,3.214,3.214,0,0,0,1.266-6.292c-9.348-1.867-16.711-1.006-21.891,2.571a18.665,18.665,0,0,0-7.616,12.912,3.214,3.214,0,0,0,2.638,3.7,3.068,3.068,0,0,0,.517.035,3.214,3.214,0,0,0,3.165-2.683,13.3,13.3,0,0,1,3.638-7.552c3.053,8.764,13.533,17.064,24.722,19.308q1.851-2.828,3.5-5.964ZM70.628,189.276a36.43,36.43,0,0,0,.125-32.23c-4.939-10.052-13.456-16.014-22.817-16.322.08-.392.132-.787.238-1.176A15.066,15.066,0,0,1,58.5,128.567a3.214,3.214,0,0,0-1.555-6.231,21.47,21.47,0,0,0-14.982,15.5A25.732,25.732,0,0,0,49,163.075a3.213,3.213,0,1,0,4.544-4.544,20.278,20.278,0,0,1-5.862-11.376c8.159.235,14.224,6.479,17.3,12.732a29.424,29.424,0,0,1-3.737,31.934,73.887,73.887,0,0,0,9.384-2.545ZM66.563,28.437a3.215,3.215,0,0,0,5.9-2.555A16.033,16.033,0,0,0,61.3,16.637,13.272,13.272,0,0,1,70.708,5.476a51.984,51.984,0,0,0-6.572-2.143c-.739-.186-1.417-.321-2.124-.482a22.778,22.778,0,0,0-7.234,13.626,16.068,16.068,0,0,0-9.124,5.142,3.214,3.214,0,1,0,4.82,4.248,9.641,9.641,0,0,1,16.087,2.555Z" transform="translate(57.982 -1.122)"/>
      <path id="layer2-2" data-name="layer2" class="pink-brain-svg-2" d="M61.845,4.522c21.583-5.4,29.565.53,31.587,2.571a.762.762,0,0,0,.55.238V188.513a.771.771,0,0,0-.617.321c-1.382,1.832-5.707,5.293-18.665,5.293-17.675,0-70.7-14.616-70.7-83.554S35.972,10.991,61.845,4.522Z" transform="translate(-4 -2.312)"/>
      <path id="layer1-2" data-name="layer1" class="pink-brain-svg-3" d="M23.313,32.6q1.928-2.892,3.953-5.486A26.352,26.352,0,0,1,45.673,51.18a28.849,28.849,0,0,1,6.935.4,3.214,3.214,0,0,1-1.093,6.334,14.291,14.291,0,0,0-11.6,1.87A12.019,12.019,0,0,0,36,67.743a3.214,3.214,0,0,1-3.214,3.075h-.122a3.214,3.214,0,0,1-3.092-3.333,18.453,18.453,0,0,1,6.254-12.652,15.561,15.561,0,0,1,3.535-2.15A20.365,20.365,0,0,0,23.313,32.6ZM4.69,90.83a29.98,29.98,0,0,1,23.225-5.592A29.43,29.43,0,0,1,51.1,104.468a22.238,22.238,0,0,1,16.39,9.416,3.214,3.214,0,1,1-5.142,3.856A15.371,15.371,0,0,0,48.655,110.9a16.525,16.525,0,0,0-13,9.567,3.214,3.214,0,0,1-5.749-2.876,23.424,23.424,0,0,1,14.622-12.417,23.138,23.138,0,0,0-17.675-13.59,23.17,23.17,0,0,0-22.791,8.963q.191-4.865.627-9.715Zm66.657,12.125a18.424,18.424,0,0,0-6.106-14.783l-.109-.1a20.506,20.506,0,0,0-13.067-4.4,3.214,3.214,0,1,1,0-6.427A27.589,27.589,0,0,1,66.6,81.327c5.858-7.526,18-9.7,27.245-8.15v6.569c-7.931-1.758-18.163.183-22.3,5.691a25.272,25.272,0,0,1,6.231,17.518,3.214,3.214,0,0,1-6.427,0Zm1.43-35.89a3.214,3.214,0,0,1-.89-4.457,19.79,19.79,0,0,0,1.735-16.614,11.161,11.161,0,0,0-6.5-7.478,3.218,3.218,0,0,1,2.034-6.106,17.354,17.354,0,0,1,10.55,11.5,25.807,25.807,0,0,1,.858,3.236,34.662,34.662,0,0,1,13.282.215v6.578a28.453,28.453,0,0,0-12.787-.321,24.536,24.536,0,0,1-3.821,12.569,3.214,3.214,0,0,1-4.457.89Zm-58.954,87.2c10.6-1.115,20.709-9.509,22.422-16.354a30.159,30.159,0,0,0-12.479.321,3.214,3.214,0,0,1-1.266-6.292c9.348-1.867,16.711-1.006,21.891,2.571a18.665,18.665,0,0,1,7.616,12.912,3.214,3.214,0,0,1-2.638,3.7,3.065,3.065,0,0,1-.517.035,3.214,3.214,0,0,1-3.165-2.683,13.3,13.3,0,0,0-3.638-7.552C39,149.687,28.516,157.988,17.326,160.231q-1.851-2.828-3.5-5.964Zm41.388,35.009a36.43,36.43,0,0,1-.125-32.23c4.939-10.052,13.456-16.014,22.817-16.322-.08-.392-.132-.787-.238-1.176a15.066,15.066,0,0,0-10.325-10.981,3.214,3.214,0,0,1,1.555-6.231,21.47,21.47,0,0,1,14.985,15.5,25.732,25.732,0,0,1-7.041,25.243,3.213,3.213,0,1,1-4.544-4.544,20.278,20.278,0,0,0,5.862-11.376c-8.159.235-14.224,6.479-17.3,12.732A29.424,29.424,0,0,0,64.6,191.821a73.893,73.893,0,0,1-9.387-2.545ZM59.28,28.437a3.215,3.215,0,0,1-5.9-2.555,16.033,16.033,0,0,1,11.167-9.246A13.272,13.272,0,0,0,55.134,5.476a51.981,51.981,0,0,1,6.572-2.143c.736-.186,1.417-.321,2.124-.482a22.778,22.778,0,0,1,7.234,13.626,16.068,16.068,0,0,1,9.124,5.142,3.214,3.214,0,0,1-4.82,4.248A9.641,9.641,0,0,0,59.28,28.421Z" transform="translate(-3.861 -1.122)"/>
      <path id="opacity" class="pink-brain-svg-4" d="M61.845,4.522c21.583-5.4,29.565.53,31.587,2.571a.762.762,0,0,0,.55.238V188.513a.771.771,0,0,0-.617.321c-1.382,1.832-5.707,5.293-18.665,5.293-17.675,0-70.7-14.616-70.7-83.554S35.972,10.991,61.845,4.522Z" transform="translate(-4 -2.312)"/>
    </g>
  </g>
</svg>
