<svg class="puzzle-svg" xmlns="http://www.w3.org/2000/svg" viewBox="0 0 70 70">
  <defs>
    <style>
      .puzzle-svg-1 {
        fill: #f9f9f9;
      }

      .puzzle-svg-2 {
        fill: #41c5eb;
      }

      .puzzle-svg-3 {
        fill: #dff4fc;
      }

      .puzzle-svg-4 {
        fill: #fbaa51;
      }

      .puzzle-svg-5 {
        fill: #063f5f;
      }
    </style>
  </defs>
  <g id="Group_1203" data-name="Group 1203" transform="translate(-380.27 -927.27)">
    <circle id="Ellipse_1789" data-name="Ellipse 1789" class="puzzle-svg-1" cx="35" cy="35" r="35" transform="translate(380.27 927.27)"/>
    <g id="Group_1196" data-name="Group 1196" transform="matrix(0.966, -0.259, 0.259, 0.966, 393.473, 945.681)">
      <path id="Subtraction_4" data-name="Subtraction 4" class="puzzle-svg-2" d="M8.672,18.123A2.569,2.569,0,0,1,6.1,15.554,2.591,2.591,0,0,1,6.161,15H0V4.129A4.126,4.126,0,0,1,4.129,0H15V4.906a3.855,3.855,0,0,0,0,7.531V15H11.182a2.592,2.592,0,0,1,.059.551,2.569,2.569,0,0,1-2.569,2.569Z" transform="translate(0 6.125)"/>
      <path id="Union_3" data-name="Union 3" class="puzzle-svg-3" d="M0,18.123V13.767A3.875,3.875,0,0,0,3.028,10,3.875,3.875,0,0,0,0,6.237V3.12H5.06a2.569,2.569,0,1,1,5.021,0H15V13.994a4.126,4.126,0,0,1-4.129,4.129Z" transform="translate(16.38 19.385)"/>
      <path id="Union_4" data-name="Union 4" class="puzzle-svg-4" d="M21.633,21.06H14.44a3.855,3.855,0,0,0-7.5,0H3.189V17.291a2.569,2.569,0,1,1,0-4.988V0H17.573a4.057,4.057,0,0,1,4.06,4.06v17h0Z" transform="translate(13.26 0)"/>
      <path id="Union_2" data-name="Union 2" class="puzzle-svg-5" d="M4.129,15A4.126,4.126,0,0,1,0,10.874V0H4.906A3.875,3.875,0,0,0,8.672,3.028,3.875,3.875,0,0,0,12.437,0H15V4.372a2.569,2.569,0,1,1,0,5.02V15Z" transform="translate(0 22.505)"/>
    </g>
  </g>
</svg>
