<svg xmlns="http://www.w3.org/2000/svg" viewBox="0 0 190.388 190.389">
  <defs>
    <style>
      .cls-1 {
        fill: #fff;
      }

      .cls-2 {
        fill: #41c5eb;
      }

      .cls-3 {
        fill: #063f5f;
      }

      .cls-4 {
        fill: #fdfefe;
      }

      .cls-5 {
        fill: #71bcdc;
      }
    </style>
  </defs>
  <g id="Group_1239" data-name="Group 1239" transform="translate(-1048 -594)">
    <g id="Group_1150" data-name="Group 1150" transform="translate(1048 594)">
      <circle id="Ellipse_1776" data-name="Ellipse 1776" class="cls-1" cx="95.194" cy="95.194" r="95.194" transform="translate(0)"/>
    </g>
    <g id="DJ9oZH.tif_1_" transform="translate(1102 649)">
      <g id="Group_1238" data-name="Group 1238">
        <path id="Path_779" data-name="Path 779" class="cls-2" d="M0,35.6V12.744c.146-.82.264-1.655.439-2.476A13.255,13.255,0,0,1,11.192.249a12.079,12.079,0,0,1,2.227-.22c.044,0,.088-.029.132-.029H56.1a15.5,15.5,0,0,1,1.787.146,12.513,12.513,0,0,1,5.786,1.465c4.453,2.534,7,6.3,7.046,11.5.073,7.324,0,14.649.029,21.973a12.836,12.836,0,0,1-3.911,9.448,13.074,13.074,0,0,1-9.492,3.9c-6.592.029-13.184.015-19.776.015a1.63,1.63,0,0,0-1.23.322c-1.523,1.392-3.076,2.754-4.6,4.146-1.626,1.465-3.237,2.944-4.878,4.409L18.648,64.66q-1.692,1.516-3.384,2.988c-.132.117-.278.337-.5.249-.249-.117-.146-.381-.146-.586-.015-2.446-.029-4.878,0-7.324.044-3.618-.1-7.222-.117-10.84,0-.527-.161-.732-.718-.718a15.123,15.123,0,0,1-1.816-.117A13.38,13.38,0,0,1,.557,38.556C.278,37.589.264,36.578,0,35.6Zm34.439-5.874h2.344c1.011,0,1.055,0,1-1.04a4.651,4.651,0,0,1,1.963-4.248c.674-.483,1.3-1.04,1.963-1.523A28.546,28.546,0,0,0,45,20.127a8.767,8.767,0,0,0,2.358-8.233c-.718-3.721-3.237-5.86-6.738-6.738C35.025,3.75,29.752,4.907,24.712,7.5c-.352.176-.366.366-.19.688q1.143,2.241,2.241,4.526c.22.454.439.527.894.308A20.481,20.481,0,0,1,33.3,11.06a8.34,8.34,0,0,1,5.3.366,2.608,2.608,0,0,1,1.567,2.065,4.374,4.374,0,0,1-1.1,3.662,26.035,26.035,0,0,1-4.058,3.34,9.209,9.209,0,0,0-3.941,8.628c.029.439.161.6.6.586C32.593,29.708,33.516,29.722,34.439,29.722Zm-4.146,8.57A3.908,3.908,0,0,0,34.542,42.6c2.9.015,4.556-1.494,4.57-4.146.015-2.886-1.48-4.424-4.336-4.439C31.846,34.014,30.308,35.479,30.294,38.292Z"/>
        <path id="Path_780" data-name="Path 780" class="cls-3" d="M246.851,158.25c.146-.293-.161-.352-.278-.469-6.065-6.284-12.173-12.539-18.179-18.882a4.416,4.416,0,0,0-3.56-1.465c-3.809.015-7.617-.015-11.426-.029a1.409,1.409,0,0,1-.908-.161c.044-.249.249-.366.4-.513,2.578-2.666,5.171-5.318,7.735-8a1.757,1.757,0,0,1,1.406-.571q9.185.022,18.384,0a19.938,19.938,0,0,0,5.508-.615c4.981-1.392,7.881-4.775,9.273-9.624.718-2.49.5-5.039.527-7.559.059-6.3.073-12.6.088-18.9V90.5a14.533,14.533,0,0,1,7.617,11.573,1.131,1.131,0,0,0-.029.22V124.28c0,.161.029.337.044.5-.073.645-.132,1.3-.22,1.948a10.7,10.7,0,0,1-5.757,8.189,19.328,19.328,0,0,1-9.126,2.051c-.366,0-.615-.029-.63.513-.176,6.138-.381,12.276-.571,18.4a12.683,12.683,0,0,0,0,2.358h-.293Z" transform="translate(-181.371 -77.243)"/>
        <path id="Path_781" data-name="Path 781" class="cls-4" d="M448.617,358.058a11.537,11.537,0,0,1,0-2.358c.176-6.138.4-12.276.571-18.4.015-.527.264-.5.63-.513a19.289,19.289,0,0,0,9.126-2.051,10.681,10.681,0,0,0,5.757-8.189c.1-.645.146-1.3.22-1.948a.111.111,0,0,0,.1.059q0,16.414.015,32.813a.594.594,0,0,1-.6.6C459.165,358.043,453.891,358.058,448.617,358.058Z" transform="translate(-382.844 -277.05)"/>
        <path id="Path_782" data-name="Path 782" class="cls-5" d="M560.146,191.852a.123.123,0,0,1-.1-.059c-.015-.176-.044-.337-.044-.513V169.293c0-.073.029-.146.029-.22a.319.319,0,0,1,.117-.073Z" transform="translate(-477.967 -144.244)"/>
      </g>
    </g>
  </g>
</svg>
