<svg class="tablet-rounded" xmlns="http://www.w3.org/2000/svg" xmlns:xlink="http://www.w3.org/1999/xlink" viewBox="0 0 363.986 363.986">
  <defs>
    <style>
      .tablet-rounded-1 {
        fill: #fff;
      }

      .tablet-rounded-2 {
        fill: #a56660;
      }

      .tablet-rounded-3 {
        fill: #000064;
        opacity: 0.12;
      }

      .tablet-rounded-4 {
        fill: #7b8baf;
      }

      .tablet-rounded-5 {
        fill: #e1eef9;
      }

      .tablet-rounded-6 {
        fill: #f26161;
      }

      .tablet-rounded-7 {
        filter: url(#Ellipse_1371);
      }
    </style>
    <filter id="Ellipse_1371" x="0" y="0" width="363.986" height="363.986" filterUnits="userSpaceOnUse">
      <feOffset input="SourceAlpha"/>
      <feGaussianBlur stdDeviation="15" result="blur"/>
      <feFlood flood-opacity="0.051"/>
      <feComposite operator="in" in2="blur"/>
      <feComposite in="SourceGraphic"/>
    </filter>
  </defs>
  <g id="Group_986" data-name="Group 986" transform="translate(-968.072 -43.072)">
    <g class="tablet-rounded-7" transform="matrix(1, 0, 0, 1, 968.07, 43.07)">
      <circle id="Ellipse_1371-2" data-name="Ellipse 1371" class="tablet-rounded-1" cx="136.993" cy="136.993" r="136.993" transform="translate(45 45)"/>
    </g>
    <g id="medical-chart-8789_3583c096-04cb-49a5-99af-ef37f5b28d3c" transform="translate(1095.473 156.527)">
      <path id="layer4" class="tablet-rounded-2" d="M112.956,7h-27.1a11.055,11.055,0,0,1,4.287,9.127v6.845H35.38V16.127A11.039,11.039,0,0,1,39.578,7H12.563A4.563,4.563,0,0,0,8,11.563V127.927a4.563,4.563,0,0,0,4.563,4.563H112.956a4.563,4.563,0,0,0,4.563-4.563V11.563A4.563,4.563,0,0,0,112.956,7Z" transform="translate(-8 4.42)"/>
      <path id="opacity" class="tablet-rounded-3" d="M8,25.672v95.847a4.563,4.563,0,0,0,4.563,4.563H90.139l13.69-13.69L21.69,12Z" transform="translate(-8 10.828)"/>
      <path id="layer3" class="tablet-rounded-4" d="M63.362,11.133H58.571a11.408,11.408,0,0,0-22.36,0H31.419A10.778,10.778,0,0,0,20.011,22.541v6.845H74.77V22.541A10.893,10.893,0,0,0,63.362,11.133Z" transform="translate(7.369 -1.995)"/>
      <path id="layer2" class="tablet-rounded-5" d="M82.449,12h13.69V112.392H14V12H27.69v4.563H82.449Z" transform="translate(-0.31 10.828)"/>
      <path id="opacity-2" data-name="opacity" class="tablet-rounded-3" d="M17.011,20.056V26.9H71.77V20.056H23.856V13.211a13.005,13.005,0,0,1,.589-3.936A10.628,10.628,0,0,0,17.011,20.056Z" transform="translate(3.524 7.335)"/>
      <path id="layer1" class="tablet-rounded-6" d="M87.339,44.766a3.4,3.4,0,0,0-3.062,1.891L77.706,59.8,64.522,27.791a3.422,3.422,0,0,0-6.119-.424L45.368,49.694,36.885,37.83a3.4,3.4,0,0,0-2.69-1.426,3.322,3.322,0,0,0-2.768,1.28l-7.5,9.364H14v4.563H24.48a3.4,3.4,0,0,0,2.674-1.282l6.9-8.625,8.627,12.079a3.324,3.324,0,0,0,2.946,1.433,3.4,3.4,0,0,0,2.8-1.693L61.18,31.653,74.441,63.84a3.381,3.381,0,0,0,3.039,2.12h.125a3.422,3.422,0,0,0,3.062-1.891l7.374-14.751h8.1V44.755Z" transform="translate(-0.31 28.349)"/>
      <path id="opacity-3" data-name="opacity" class="tablet-rounded-3" d="M88.042,45.97,80.667,60.71A3.423,3.423,0,0,1,77.605,62.6H77.48a3.381,3.381,0,0,1-3.039-2.12L61.182,28.292,48.421,50.161a3.4,3.4,0,0,1-2.8,1.693,3.324,3.324,0,0,1-2.946-1.433L34.051,38.349l-6.9,8.625a3.4,3.4,0,0,1-2.674,1.285H14V91.512H50.6L96.139,45.97Z" transform="translate(-0.31 31.708)"/>
    </g>
  </g>
</svg>
