<svg class="woman-link-account-svg" xmlns="http://www.w3.org/2000/svg" viewBox="0 0 133.158 133.158">
  <defs>
    <style>
      .woman-link-account-svg-1, .woman-link-account-svg-8 {
        fill: #f9f9f9;
      }

      .woman-link-account-svg-2, .woman-link-account-svg-6 {
        fill: #41c5eb;
      }

      .woman-link-account-svg-3, .woman-link-account-svg-4 {
        fill: #063f5f;
      }

      .woman-link-account-svg-3 {
        opacity: 0.41;
      }

      .woman-link-account-svg-5 {
        fill: #fbaa51;
      }

      .woman-link-account-svg-7, .woman-link-account-svg-8 {
        stroke: none;
      }
    </style>
  </defs>
  <g id="Group_1228" data-name="Group 1228" transform="translate(-413.054 -1056.264)">
    <circle id="Ellipse_1787" data-name="Ellipse 1787" class="woman-link-account-svg-1" cx="66.579" cy="66.579" r="66.579" transform="translate(413.054 1056.264)"/>
    <g id="women-7674_5b194c9a-b656-422c-acac-d8debb29e8d3" transform="translate(452.527 1091.527)">
      <path id="layer1" class="woman-link-account-svg-2" d="M47.978,16.647c0,16.777,2.848,18.487,6.841,22.478a79.2,79.2,0,0,1-17.043,1.955v1.955c0,1.955,1.405,5.845,11.131,7.8,9.821,1.974,9.821,9.791,9.821,9.791H4s0-7.818,9.974-9.789c9.941-1.966,10.946-5.847,10.946-7.8V41.078A79.241,79.241,0,0,1,7.909,39.125c3.989-3.991,7.818-5.7,7.818-22.478,0,0,0-13.682,11.727-13.682C27.455,2.964,47.978-3.368,47.978,16.647Z" transform="translate(-4 -2.013)"/>
      <path id="opacity" class="woman-link-account-svg-3" d="M37.777,41.457,21.494,18.647,15.37,24.772c-1.043,9.713-4.2,11.466-7.461,14.731A79.241,79.241,0,0,0,24.92,41.457v1.955c0,1.955-1.006,5.836-10.946,7.8C4,53.184,4,61,4,61H18.233L37.779,41.457Z" transform="translate(-4 -2.391)"/>
      <path id="layer1-2" data-name="layer1" class="woman-link-account-svg-2" d="M44.576,24.759c0,9.243-6.034,19.575-12.875,19.575S18.825,34,18.825,24.759s6.035-13.9,12.876-13.9S44.576,15.517,44.576,24.759Z" transform="translate(-4.337 -2.214)"/>
    </g>
    <g id="link-7087_abbe08a4-07df-4aea-9b67-9d212557bb26" transform="translate(483.843 1132.317)">
      <g id="layer1-3" data-name="layer1" class="woman-link-account-svg-4" transform="translate(-1.999 -2)">
        <path class="woman-link-account-svg-7" d="M 10.65700054168701 40.31556701660156 C 8.611721038818359 40.31555938720703 6.688790798187256 39.51914596557617 5.242450714111328 38.07303619384766 L 2.242080688476563 35.07265853881836 C 0.7957906723022461 33.62654876708984 -0.0007593194604851305 31.70365715026855 -0.0007593194604851305 29.6583080291748 C -0.0007593194604851305 27.61294746398926 0.7957906723022461 25.6900577545166 2.242160797119141 24.24385833740234 L 7.246590614318848 19.2454776763916 C 8.692200660705566 17.80010795593262 10.61512088775635 17.00369834899902 12.660400390625 17.00369834899902 C 14.70568084716797 17.00369834899902 16.62860107421875 17.80010795593262 18.074951171875 19.24621772766113 L 18.57551002502441 19.74798774719238 L 20.57114028930664 21.74362754821777 L 21.07058143615723 22.24185752868652 C 24.05524063110352 25.22916793823242 24.05524063110352 30.0860767364502 21.07291984558105 33.07104873657227 L 16.07175064086914 38.07283782958984 C 14.62521076202393 39.51914596557617 12.70228099822998 40.31555938720703 10.65700054168701 40.31556701660156 Z M 12.65495109558105 23.82961845397949 C 12.52674102783203 23.82961845397949 12.28011035919189 23.86114692687988 12.06887054443359 24.07232666015625 L 7.071060657501221 29.07136726379395 C 6.859150886535645 29.28306770324707 6.827640533447266 29.52935791015625 6.827640533447266 29.65739822387695 C 6.827640533447266 29.78543663024902 6.859150886535645 30.0317268371582 7.070190906524658 30.24256706237793 L 10.07186031341553 33.24725723266602 C 10.28200054168701 33.45723724365234 10.52874088287354 33.48877716064453 10.65700054168701 33.48877716064453 C 10.7852611541748 33.48877716064453 11.03200054168701 33.45723724365234 11.24338054656982 33.24601745605469 L 16.24279975891113 28.24598693847656 C 16.39945030212402 28.08931732177734 16.4856014251709 27.88094711303711 16.48533058166504 27.65931701660156 C 16.48505973815918 27.4377269744873 16.3984203338623 27.22957801818848 16.2413501739502 27.0732479095459 L 15.73750114440918 26.56939697265625 L 13.74015045166016 24.57204818725586 L 13.23995113372803 24.07124710083008 C 13.0297908782959 23.86114692687988 12.78316020965576 23.82961845397949 12.65495109558105 23.82961845397949 Z M 27.65443992614746 23.31267738342285 C 25.60916137695313 23.31267738342285 23.68623161315918 22.51625823974609 22.23989105224609 21.07014846801758 L 21.73896980285645 20.56861686706543 L 19.74249076843262 18.57214736938477 L 19.24228096008301 18.07131767272949 C 16.25849151611328 15.0866174697876 16.25848007202148 10.22907733917236 19.2429313659668 7.243707656860352 L 24.24370002746582 2.242327451705933 C 25.69010162353516 0.7960675954818726 27.61293983459473 -0.0003424310416448861 29.65815162658691 -0.0003424310416448861 C 31.70335006713867 -0.0003424310416448861 33.62619018554688 0.7960675954818726 35.07244110107422 2.242177486419678 L 38.07276153564453 5.242507457733154 C 41.05625152587891 8.229247093200684 41.05442047119141 13.08595752716064 38.06945037841797 16.06968688964844 L 33.06909942626953 21.07002830505371 C 31.62265014648438 22.51625823974609 29.69972038269043 23.31267738342285 27.65443992614746 23.31267738342285 Z M 29.66389083862305 6.830617427825928 C 29.53561973571777 6.830617427825928 29.28888130187988 6.862157344818115 29.07750129699707 7.07337760925293 L 24.07740020751953 12.07348728179932 C 23.75456047058105 12.3964376449585 23.75456047058105 12.92226791381836 24.0776309967041 13.24543762207031 L 24.57760047912598 13.74601745605469 L 26.57408142089844 15.74250793457031 L 27.07462120056152 16.24302673339844 C 27.28560066223145 16.4539680480957 27.53206062316895 16.48548698425293 27.66019058227539 16.48548698425293 C 27.78832054138184 16.48548698425293 28.03478050231934 16.4539680480957 28.24587059020996 16.24291801452637 L 31.67268180847168 12.81653118133545 L 33.24332046508789 11.24305725097656 C 33.56608963012695 10.919997215271 33.56608963012695 10.39432716369629 33.24332046508789 10.07126712799072 L 30.24861145019531 7.071717739105225 C 30.03890037536621 6.862157344818115 29.79216003417969 6.830617427825928 29.66389083862305 6.830617427825928 Z"/>
        <path class="woman-link-account-svg-8" d="M 10.65700054168701 38.3155632019043 C 12.10485363006592 38.3155632019043 13.55270576477051 37.76327896118164 14.65745067596436 36.65870666503906 L 19.6580810546875 31.65746688842773 C 21.8657398223877 29.44783782958984 21.8657398223877 25.86740684509277 19.6580810546875 23.65777778625488 L 19.15693092346191 23.1578369140625 L 17.15958023071289 21.16048812866211 L 16.66085052490234 20.66054725646973 C 15.5561056137085 19.55598258972168 14.10825347900391 19.00370025634766 12.660400390625 19.00370025634766 C 11.21254825592041 19.00370025634766 9.76469612121582 19.55598258972168 8.659950256347656 20.66054725646973 L 3.656290769577026 25.65815734863281 C 1.446890711784363 27.8672981262207 1.446890711784363 31.44930839538574 3.656290769577026 33.658447265625 L 6.656550884246826 36.65870666503906 C 7.761295795440674 37.76327896118164 9.209148406982422 38.3155632019043 10.65700054168701 38.3155632019043 M 12.65495109558105 21.82961845397949 C 13.37889957427979 21.82961845397949 14.1026086807251 22.10564422607422 14.65503025054932 22.65789794921875 L 15.1543607711792 23.1578369140625 L 17.15171051025391 25.15518760681152 L 17.65225982666016 25.65573692321777 C 18.18469047546387 26.18568801879883 18.48442077636719 26.90568733215332 18.48533058166504 27.65691757202148 C 18.48623085021973 28.40814781188965 18.18825149536133 29.12886810302734 17.65710067749023 29.66011810302734 L 12.65707111358643 34.66075897216797 C 12.10464572906494 35.21277236938477 11.38082313537598 35.4887809753418 10.65700054168701 35.4887809753418 C 9.933177947998047 35.4887809753418 9.209355354309082 35.21277236938477 8.656930923461914 34.66075897216797 L 5.656670570373535 31.65746688842773 C 4.551300525665283 30.55317687988281 4.551300525665283 28.76161766052246 5.656670570373535 27.65732765197754 L 10.65488052368164 22.65788841247559 C 11.20716857910156 22.10577583312988 11.93117904663086 21.82961845397949 12.65495109558105 21.82961845397949 M 27.65443992614746 21.31267166137695 C 29.10229301452637 21.31267166137695 30.55014610290527 20.7603874206543 31.6548900604248 19.65581703186035 L 36.6555290222168 14.65518760681152 C 38.86455154418945 12.44707775115967 38.86590957641602 8.866487503051758 36.65855026245117 6.656717777252197 L 33.65829086303711 3.656457662582397 C 32.55364990234375 2.551922559738159 31.10589790344238 1.99965512752533 29.65814590454102 1.99965512752533 C 28.21039390563965 1.99965512752533 26.76263999938965 2.551922559738159 25.65800094604492 3.656457662582397 L 20.6573600769043 8.657697677612305 C 18.44863128662109 10.8671178817749 18.44863128662109 14.44856739044189 20.65737152099609 16.65797805786133 L 21.15670013427734 17.15792846679688 L 23.15405082702637 19.1552677154541 L 23.65398979187012 19.65581703186035 C 24.75873565673828 20.7603874206543 26.20658874511719 21.31267166137695 27.65443992614746 21.31267166137695 M 29.66388893127441 4.830620288848877 C 30.38780212402344 4.830620288848877 31.11147880554199 5.106564998626709 31.66397094726563 5.658647537231445 L 34.65818023681641 8.657697677612305 C 35.76174163818359 9.762267112731934 35.76174163818359 11.55205726623535 34.65818023681641 12.6566276550293 L 34.66120910644531 12.6566276550293 L 29.65995979309082 17.65725708007813 C 29.10770988464355 18.20940780639648 28.38395118713379 18.48548316955566 27.66019058227539 18.48548316955566 C 26.93642997741699 18.48548316955566 26.21267127990723 18.20940780639648 25.66042137145996 17.65725708007813 L 25.15987014770508 17.15671730041504 L 23.16252136230469 15.15936756134033 L 22.6631908416748 14.65942764282227 C 21.5588207244873 13.55470752716064 21.5588207244873 11.76398754119873 22.6631908416748 10.65927791595459 L 27.66382026672363 5.658637523651123 C 28.21618270874023 5.106689929962158 28.94015502929688 4.830620288848877 29.66388893127441 4.830620288848877 M 10.65700054168701 42.31556701660156 C 8.077570915222168 42.31556701660156 5.652440547943115 41.3111572265625 3.828350782394409 39.48736572265625 L 0.8278606534004211 36.48687744140625 C -0.9961393475532532 34.6630859375 -2.000759363174438 32.2379264831543 -2.000759363174438 29.6583080291748 C -2.000759363174438 27.07867813110352 -0.9961393475532532 24.65351676940918 0.8280307054519653 22.82956695556641 L 5.833230495452881 17.83040809631348 C 7.655860900878906 16.00809669494629 10.08098030090332 15.00369739532471 12.660400390625 15.00369739532471 C 13.60076522827148 15.00369739532471 14.52060508728027 15.13718414306641 15.39830875396729 15.39520168304443 C 14.4343786239624 12.11292934417725 15.24426937103271 8.414739608764648 17.8284912109375 5.829707622528076 L 22.82940101623535 0.8281975984573364 C 24.65371131896973 -0.9959224462509155 27.07876014709473 -2.00034236907959 29.65815162658691 -2.00034236907959 C 32.23752975463867 -2.00034236907959 34.66258239746094 -0.9959224462509155 36.48657989501953 0.8278875946998596 L 39.48698043823242 3.828287601470947 C 43.25033950805664 7.595767498016357 43.24803924560547 13.72108745574951 39.48337173461914 17.48419761657715 L 34.48331069946289 22.4842472076416 C 32.65901947021484 24.30826759338379 30.23389053344727 25.31267738342285 27.65443992614746 25.31267738342285 C 26.71659469604492 25.31267738342285 25.79894256591797 25.17983818054199 24.92336463928223 24.92317581176758 C 25.1806812286377 25.79983520507813 25.3138313293457 26.71857261657715 25.3138313293457 27.65762710571289 C 25.3138313293457 30.23604774475098 24.3101806640625 32.66059875488281 22.48777008056641 34.48463821411133 L 17.48605155944824 39.48695755004883 C 15.66158103942871 41.3111572265625 13.23645114898682 42.31556701660156 10.65700054168701 42.31556701660156 Z M 9.312935829162598 29.65771865844727 L 10.65736865997314 31.00350952148438 L 14.00006580352783 27.66040229797363 L 12.65474796295166 26.31508445739746 L 9.312935829162598 29.65771865844727 Z M 26.31966209411621 12.6596565246582 L 27.66024208068848 14.00022983551025 L 29.78655624389648 11.87417888641357 L 31.00202560424805 10.65705680847168 L 29.6632251739502 9.316093444824219 L 26.31966209411621 12.6596565246582 Z"/>
      </g>
      <g id="layer1-4" data-name="layer1" class="woman-link-account-svg-5" transform="translate(-8.119 -8.266)">
        <path class="woman-link-account-svg-7" d="M 18.91648101806641 37.19929122924805 C 18.00600051879883 37.19929122924805 17.1496410369873 36.84511184692383 16.50514030456543 36.20201110839844 C 15.17229080200195 34.86917114257813 15.17229080200195 32.70298004150391 16.50360107421875 31.37168121337891 L 31.00063133239746 16.87283134460449 C 31.64798164367676 16.22799110412598 32.50391006469727 15.87443161010742 33.41361236572266 15.87443161010742 C 33.99232864379883 15.87443161010742 34.54932022094727 16.01753997802734 35.04393005371094 16.28695106506348 L 35.24298095703125 16.28695106506348 L 35.83166122436523 16.87548065185547 C 37.15546035766602 18.20444107055664 37.15546035766602 20.36681175231934 35.83166122436523 21.69577217102051 L 21.32948112487793 36.20036315917969 C 20.68332099914551 36.84511184692383 19.82696151733398 37.19929122924805 18.91648101806641 37.19929122924805 Z"/>
        <path class="woman-link-account-svg-8" d="M 18.91648101806641 35.19928741455078 C 19.27784156799316 35.19928741455078 19.63920021057129 35.06161117553711 19.91515159606934 34.78626251220703 L 34.41469955444336 20.2843017578125 C 34.96474075317383 19.73212242126465 34.96474075317383 18.83913230895996 34.41469955444336 18.28695106506348 L 34.41228103637695 18.28695106506348 C 34.13619232177734 18.01193618774414 33.77489852905273 17.87442970275879 33.41360473632813 17.87442970275879 C 33.05231475830078 17.87442970275879 32.69102096557617 18.01193618774414 32.41493225097656 18.28695106506348 L 17.91781044006348 32.78589248657227 C 17.36542129516602 33.33827972412109 17.36542129516602 34.23387145996094 17.91781044006348 34.78626251220703 C 18.19376182556152 35.06161117553711 18.55512046813965 35.19928741455078 18.91648101806641 35.19928741455078 M 18.91648101806641 39.19929122924805 C 17.47261047363281 39.19929122924805 16.11455154418945 38.63763046264648 15.09246063232422 37.61775970458984 C 12.97828102111816 35.50358200073242 12.97828102111816 32.06857299804688 15.08938121795654 29.95746231079102 L 29.58633041381836 15.45870113372803 L 29.58919143676758 15.45584106445313 L 29.59205055236816 15.4529914855957 C 30.61400032043457 14.4350414276123 31.97118186950684 13.87443161010742 33.41361236572266 13.87443161010742 C 34.13931274414063 13.87443161010742 34.84334182739258 14.01629734039307 35.49405670166016 14.28695106506348 L 36.07369232177734 14.28695106506348 L 37.24861145019531 15.46402168273926 C 39.34769058227539 17.57126235961914 39.34769058227539 20.99999237060547 37.24861145019531 23.10723114013672 L 37.24599075317383 23.10986137390137 L 37.24336242675781 23.11249160766602 L 22.74381065368652 37.61445236206055 C 21.71841049194336 38.63763046264648 20.3603515625 39.19929122924805 18.91648101806641 39.19929122924805 Z"/>
      </g>
      <g id="opacity-2" data-name="opacity" class="woman-link-account-svg-6" transform="translate(-8.119 -8.266)">
        <path class="woman-link-account-svg-7" d="M 18.91648101806641 37.19929122924805 C 18.00600051879883 37.19929122924805 17.1496410369873 36.84511184692383 16.50514030456543 36.20201110839844 C 15.17229080200195 34.86917114257813 15.17229080200195 32.70298004150391 16.50360107421875 31.37168121337891 L 18.70426177978516 29.17074203491211 L 31.00063133239746 16.87282180786133 C 31.64798164367676 16.22799110412598 32.50391006469727 15.87443161010742 33.41361236572266 15.87443161010742 C 33.99232864379883 15.87443161010742 34.54932022094727 16.01753997802734 35.04393005371094 16.28695106506348 L 35.24298095703125 16.28695106506348 L 35.83166122436523 16.87548065185547 C 37.15546035766602 18.20444107055664 37.15546035766602 20.36681175231934 35.83166122436523 21.69577217102051 L 31.32833099365234 26.19984245300293 L 31.32827949523926 26.19979095458984 C 31.32394409179688 26.20420455932617 31.31953239440918 26.20865821838379 31.31515121459961 26.21304130554199 L 31.25869178771973 26.26951217651367 L 30.91648101806641 26.61177062988281 L 29.06639099121094 28.46216201782227 L 21.32948112487793 36.20036315917969 C 20.68332099914551 36.84511184692383 19.82696151733398 37.19929122924805 18.91648101806641 37.19929122924805 Z"/>
        <path class="woman-link-account-svg-8" d="M 18.91648101806641 35.19928741455078 C 19.27784156799316 35.19928741455078 19.63920021057129 35.06161117553711 19.91515159606934 34.78626251220703 C 19.91515159606934 34.78626251220703 25.15395164489746 29.54659080505371 27.65206146240234 27.04807090759277 C 29.74398422241211 24.95579719543457 29.91401863098145 24.78574562072754 29.91400718688965 24.78574562072754 C 29.91400718688965 24.78574562072754 29.91400527954102 24.78574562072754 29.91400527954102 24.78574752807617 L 29.90763854980469 24.7921142578125 C 29.90760803222656 24.79214477539063 29.90759086608887 24.79216194152832 29.90759086608887 24.79216194152832 L 29.90763854980469 24.7921142578125 C 29.90821266174316 24.79154014587402 29.91392135620117 24.78582954406738 29.91400527954102 24.78574752807617 L 34.41469955444336 20.2843017578125 C 34.96474075317383 19.73212242126465 34.96474075317383 18.83913230895996 34.41469955444336 18.28695106506348 L 34.41228103637695 18.28695106506348 C 34.13619232177734 18.01193618774414 33.77489852905273 17.87442970275879 33.41360473632813 17.87442970275879 C 33.05231475830078 17.87442970275879 32.69102096557617 18.01193618774414 32.41493225097656 18.28695106506348 L 20.11856079101563 30.58486175537109 L 17.91781044006348 32.78589248657227 C 17.36542129516602 33.33827972412109 17.36542129516602 34.23387145996094 17.91781044006348 34.78626251220703 C 18.19376182556152 35.06161117553711 18.55512046813965 35.19928741455078 18.91648101806641 35.19928741455078 M 18.91648101806641 39.19929122924805 C 17.47261047363281 39.19929122924805 16.11455154418945 38.63763046264648 15.09246063232422 37.61775970458984 C 12.97828102111816 35.50358200073242 12.97828102111816 32.06857299804688 15.08938121795654 29.95746231079102 L 17.28995132446289 27.75661087036133 L 29.58633041381836 15.45870113372803 L 29.58919143676758 15.45584106445313 L 29.59205055236816 15.4529914855957 C 30.61400032043457 14.4350414276123 31.97118186950684 13.87443161010742 33.41361236572266 13.87443161010742 C 34.13931274414063 13.87443161010742 34.84334182739258 14.01629734039307 35.49405670166016 14.28695106506348 L 36.07369232177734 14.28695106506348 L 37.24861145019531 15.46402168273926 C 39.34769058227539 17.57126235961914 39.34769058227539 20.99999237060547 37.24861145019531 23.10723114013672 L 37.24599075317383 23.10986137390137 L 37.24336242675781 23.11249160766602 L 32.74266052246094 27.61394119262695 L 32.7360725402832 27.62054061889648 C 32.73341369628906 27.62318992614746 32.73075485229492 27.62585639953613 32.72809982299805 27.62851142883301 L 32.66506958007813 27.69156074523926 L 32.28042221069336 28.07626152038574 L 30.48072052001953 29.87626075744629 L 22.74381065368652 37.61445236206055 C 21.71841049194336 38.63763046264648 20.3603515625 39.19929122924805 18.91648101806641 39.19929122924805 Z"/>
      </g>
    </g>
  </g>
</svg>
