<svg xmlns="http://www.w3.org/2000/svg" viewBox="13299.008 -3259.433 52.312 34.76">
  <defs>
    <style>
      .cls-1 {
        fill: #fff;
      }
    </style>
  </defs>
  <g id="Group_148" data-name="Group 148" transform="translate(13299.008 -3259.433)">
    <path id="Path_25" data-name="Path 25" class="cls-1" d="M28.707,4.374a1.891,1.891,0,0,1,1.874,1.874V24.481H10.474V6.249a1.891,1.891,0,0,1,1.874-1.874H28.707m0-1.874H12.349A3.782,3.782,0,0,0,8.6,6.249V26.441H32.541V6.249A3.8,3.8,0,0,0,28.707,2.5Z" transform="translate(-1.273 -0.37)"/>
    <path id="Path_26" data-name="Path 26" class="cls-1" d="M17.227,30.96a3.152,3.152,0,1,1-3.152,3.152,3.145,3.145,0,0,1,3.152-3.152m0-1.96a5.027,5.027,0,1,0,5.027,5.027A4.982,4.982,0,0,0,17.227,29Z" transform="translate(-1.806 -4.293)"/>
    <path id="Path_27" data-name="Path 27" class="cls-1" d="M47.927,30.96a3.152,3.152,0,1,1-3.152,3.152,3.145,3.145,0,0,1,3.152-3.152m0-1.96a5.027,5.027,0,1,0,5.027,5.027A4.982,4.982,0,0,0,47.927,29Z" transform="translate(-6.35 -4.293)"/>
    <path id="Path_28" data-name="Path 28" class="cls-1" d="M12.441,34.534H9.374A1.891,1.891,0,0,1,7.5,32.66V30.274a1.7,1.7,0,0,1,.6-1.363A1.8,1.8,0,0,1,9.46,28.4h2.13v1.874H9.46V32.66h3.067v1.874Z" transform="translate(-1.11 -4.204)"/>
    <rect id="Rectangle_58" data-name="Rectangle 58" class="cls-1" width="18.147" height="1.874" transform="translate(19.255 28.456)"/>
    <path id="Path_29" data-name="Path 29" class="cls-1" d="M55.855,31.663H51.169V29.788h4.686V26.466L43.586,10.96H36.6V9h6.986a1.82,1.82,0,0,1,1.448.682L57.3,25.188a2.036,2.036,0,0,1,.426,1.193V29.7A1.911,1.911,0,0,1,55.855,31.663Z" transform="translate(-5.418 -1.332)"/>
    <path id="Path_30" data-name="Path 30" class="cls-1" d="M21.7,1.874H4.237A.945.945,0,0,1,3.3.937.945.945,0,0,1,4.237,0H21.7a.945.945,0,0,1,.937.937A.945.945,0,0,1,21.7,1.874Z" transform="translate(-0.488)"/>
    <path id="Path_31" data-name="Path 31" class="cls-1" d="M6.049,8.074H.937a.937.937,0,1,1,0-1.874H5.964a.945.945,0,0,1,.937.937A.876.876,0,0,1,6.049,8.074Z" transform="translate(0 -0.918)"/>
    <path id="Path_32" data-name="Path 32" class="cls-1" d="M6.049,25.374H.937a.937.937,0,0,1,0-1.874H5.964a.945.945,0,0,1,.937.937A.828.828,0,0,1,6.049,25.374Z" transform="translate(0 -3.479)"/>
    <path id="Path_33" data-name="Path 33" class="cls-1" d="M6.167,15.174H1.737a.937.937,0,0,1,0-1.874H6.082a.945.945,0,0,1,.937.937A.828.828,0,0,1,6.167,15.174Z" transform="translate(-0.118 -1.969)"/>
    <path id="Path_34" data-name="Path 34" class="cls-1" d="M6.793,19.374H4.237a.937.937,0,0,1,0-1.874H6.793a.937.937,0,0,1,0,1.874Z" transform="translate(-0.488 -2.59)"/>
    <path id="Path_35" data-name="Path 35" class="cls-1" d="M49.706,18.635h-8.52A4.672,4.672,0,0,1,36.5,13.949V10.2h1.874v3.749a2.836,2.836,0,0,0,2.812,2.812h8.52Z" transform="translate(-5.403 -1.51)"/>
  </g>
</svg>
