<svg xmlns="http://www.w3.org/2000/svg" viewBox="13692.05 -3268.606 65.495 46.882">
  <defs>
    <style>
      .cls-1 {
        fill: #fff;
      }
    </style>
  </defs>
  <g id="Group_789" data-name="Group 789" transform="translate(12700 -3646)">
    <g id="Group_151" data-name="Group 151" transform="translate(992.05 377.394)">
      <path id="Path_38" data-name="Path 38" class="cls-1" d="M243.264,129.513a1.157,1.157,0,0,1-1.052-.631L233.9,110.687a1.152,1.152,0,0,1,0-.841.948.948,0,0,1,.631-.631l18.195-8.308a1.227,1.227,0,0,1,1.578.526l8.308,18.195a1.152,1.152,0,0,1,0,.841.948.948,0,0,1-.631.631l-18.195,8.308A1.144,1.144,0,0,1,243.264,129.513Zm-6.836-18.826,7.362,16.091,16.091-7.362-7.362-16.091Z" transform="translate(-197.199 -95.988)"/>
      <path id="Path_39" data-name="Path 39" class="cls-1" d="M241.5,135.953a.632.632,0,0,1-.421-.105.948.948,0,0,1-.631-.631L223.306,97.882a1.2,1.2,0,0,1,.526-1.578,1.348,1.348,0,0,1,1.578.526l16.617,36.284,12.2-5.574a1.227,1.227,0,0,1,1.578.526,1.2,1.2,0,0,1-.526,1.578l-13.252,6.1C241.816,135.848,241.711,135.953,241.5,135.953Z" transform="translate(-197.75 -96.223)"/>
      <path id="Path_40" data-name="Path 40" class="cls-1" d="M243.058,110.9a1.157,1.157,0,0,1-1.052-.631,1.2,1.2,0,0,1,.526-1.578l3.891-1.788a1.227,1.227,0,0,1,1.578.526,1.2,1.2,0,0,1-.526,1.578l-3.891,1.788A.948.948,0,0,1,243.058,110.9Z" transform="translate(-196.783 -95.677)"/>
      <rect id="Rectangle_62" data-name="Rectangle 62" class="cls-1" width="9.36" height="2.314" transform="translate(15.039 38.363)"/>
      <path id="Path_41" data-name="Path 41" class="cls-1" d="M203.157,129.831A1.167,1.167,0,0,1,202,128.674V105.957a1.167,1.167,0,0,1,1.157-1.157H223.35a1.266,1.266,0,0,1,1.052.736l10.1,22.4a1.2,1.2,0,0,1-2.209.947l-9.781-21.665H204.314v21.56A1.152,1.152,0,0,1,203.157,129.831Z" transform="translate(-198.845 -95.78)"/>
      <path id="Path_42" data-name="Path 42" class="cls-1" d="M224.822,123.841H207.364A5.386,5.386,0,0,1,202,118.477v-12.62a1.167,1.167,0,0,1,1.157-1.157H223.35a1.266,1.266,0,0,1,1.052.736l5.679,12.62a.788.788,0,0,1,.105.526A5.365,5.365,0,0,1,224.822,123.841Zm-20.508-16.722v11.358a3.052,3.052,0,0,0,3.05,3.05h17.458a3.161,3.161,0,0,0,3.05-2.734l-5.259-11.674h-18.3Z" transform="translate(-198.845 -95.785)"/>
      <path id="Path_43" data-name="Path 43" class="cls-1" d="M229.1,127.514a5.89,5.89,0,1,1-5.89,5.89,5.948,5.948,0,0,1,5.89-5.89m0-2.314a8.2,8.2,0,1,0,8.2,8.2,8.214,8.214,0,0,0-8.2-8.2Z" transform="translate(-197.868 -94.725)"/>
      <path id="Path_44" data-name="Path 44" class="cls-1" d="M207.2,127.514a5.89,5.89,0,1,1-5.89,5.89,5.88,5.88,0,0,1,5.89-5.89m0-2.314a8.2,8.2,0,1,0,8.2,8.2,8.214,8.214,0,0,0-8.2-8.2Z" transform="translate(-199 -94.725)"/>
    </g>
  </g>
</svg>
