<svg class="linkedIn-svg" xmlns="http://www.w3.org/2000/svg" viewBox="-20639.832 12555.256 46.049 46.048">
  <defs>
    <style>
      .linkedIn-svg-1 {
        fill: #063f5f;
      }
    </style>
  </defs>
  <g id="Group_4" data-name="Group 4" transform="translate(-20639.832 12555.256)">
    <path id="Path_3" data-name="Path 3" class="linkedIn-svg-1" d="M112.6,14.8Z" transform="translate(-88.137 6.497)"/>
    <path id="Path_4" data-name="Path 4" class="linkedIn-svg-1" d="M118.624,0a23.024,23.024,0,1,0,23.024,23.024A23.092,23.092,0,0,0,118.624,0Zm-6.332,33.96H107.4V19.139h4.893Zm-2.446-16.836h0a2.533,2.533,0,0,1-2.734-2.59,2.615,2.615,0,0,1,2.734-2.59,2.533,2.533,0,0,1,2.734,2.59A2.458,2.458,0,0,1,109.846,17.124Zm20.29,16.836h-4.893V26.046c0-2.015-.719-3.31-2.446-3.31a2.784,2.784,0,0,0-2.734,3.022V34.1H115.17V19.283h4.893v2.158a5.052,5.052,0,0,1,4.461-2.446c3.31,0,5.612,2.158,5.612,6.619Z" transform="translate(-95.6)"/>
  </g>
</svg>
