<svg xmlns="http://www.w3.org/2000/svg" viewBox="14104.045 -3255.81 47.554 41.727">
  <defs>
    <style>
      .cls-1 {
        fill: #fff;
      }
    </style>
  </defs>
  <g id="Group_149" data-name="Group 149" transform="translate(14104.045 -3255.81)">
    <path id="Path_49" data-name="Path 49" class="cls-1" d="M41.466,82.969a3.209,3.209,0,0,1,3.216,3.216v22.08a3.209,3.209,0,0,1-3.216,3.216H6.085a3.209,3.209,0,0,1-3.216-3.216V86.185a3.209,3.209,0,0,1,3.216-3.216H41.466m0-2.869H6.085A6.1,6.1,0,0,0,0,86.185v22.08a6.1,6.1,0,0,0,6.085,6.085H41.466a6.1,6.1,0,0,0,6.085-6.085V86.185A5.994,5.994,0,0,0,41.466,80.1Z" transform="translate(0 -80.1)"/>
    <rect id="Rectangle_63" data-name="Rectangle 63" class="cls-1" width="8.693" height="7.389" transform="translate(19.473 32.425)"/>
    <rect id="Rectangle_64" data-name="Rectangle 64" class="cls-1" width="23.124" height="3.13" transform="translate(12.257 38.597)"/>
    <path id="Path_50" data-name="Path 50" class="cls-1" d="M15.794,114.927a1.267,1.267,0,0,1-1.13-.609,1.287,1.287,0,0,1,.348-1.826c3.912-2.608,3.825-4.433,3.651-7.737,0-.7-.087-1.3-.087-2.086-.087-6.085,3.043-10.258,8.606-11.475A1.33,1.33,0,1,1,27.7,93.8c-5.477,1.13-6.607,5.477-6.52,8.867,0,.7.087,1.3.087,1.912.174,3.39.435,6.694-4.781,10.084A.987.987,0,0,1,15.794,114.927Z" transform="translate(-1.885 -81.546)"/>
    <path id="Path_51" data-name="Path 51" class="cls-1" d="M25.3,104.821a1.311,1.311,0,0,1-.522-2.521c5.3-2.434,6.868-4.868,6.694-10q-.391-9.389,5.477-11.214a1.32,1.32,0,1,1,.782,2.521c-2.695.869-3.912,3.651-3.651,8.606.261,6.259-1.912,9.649-8.172,12.518A1.7,1.7,0,0,1,25.3,104.821Z" transform="translate(-3.135 -80.219)"/>
    <path id="Path_52" data-name="Path 52" class="cls-1" d="M10.5,112a1.337,1.337,0,0,1-1.3-1.3c0-3.043,3.3-6,6.868-6a1.3,1.3,0,1,1,0,2.608c-2.173,0-4.173,1.912-4.173,3.39A1.485,1.485,0,0,1,10.5,112Z" transform="translate(-1.202 -83.315)"/>
    <path id="Path_53" data-name="Path 53" class="cls-1" d="M38.615,93.354h-.348a.96.96,0,0,1,.174-1.912,3.859,3.859,0,0,0,2.782-1.13A4.215,4.215,0,0,0,42.7,87.356a.956.956,0,0,1,1.912,0A6.048,6.048,0,0,1,42.44,91.79,5.79,5.79,0,0,1,38.615,93.354Z" transform="translate(-4.886 -80.923)"/>
    <path id="Path_54" data-name="Path 54" class="cls-1" d="M16.682,115.664a.664.664,0,0,1-.435-.174l-5.477-5.564a.676.676,0,1,1,.956-.956l5.477,5.564a.682.682,0,0,1,0,.956A1.236,1.236,0,0,1,16.682,115.664Z" transform="translate(-1.382 -83.848)"/>
    <path id="Path_55" data-name="Path 55" class="cls-1" d="M19.282,112.964a.664.664,0,0,1-.435-.174l-5.477-5.564a.676.676,0,0,1,.956-.956l5.477,5.564a.682.682,0,0,1,0,.956A.639.639,0,0,1,19.282,112.964Z" transform="translate(-1.722 -83.495)"/>
    <path id="Path_56" data-name="Path 56" class="cls-1" d="M27.243,104.738a.664.664,0,0,1-.435-.174l-5.737-5.737a.676.676,0,0,1,.956-.956l5.651,5.737a.682.682,0,0,1,0,.956C27.59,104.738,27.417,104.738,27.243,104.738Z" transform="translate(-2.728 -82.397)"/>
    <path id="Path_57" data-name="Path 57" class="cls-1" d="M29.856,102.138a.664.664,0,0,1-.435-.174l-5.651-5.737a.676.676,0,0,1,.956-.956l5.651,5.737a.682.682,0,0,1,0,.956A1.236,1.236,0,0,1,29.856,102.138Z" transform="translate(-3.081 -82.057)"/>
    <path id="Path_58" data-name="Path 58" class="cls-1" d="M32.556,99.538a.664.664,0,0,1-.435-.174l-5.651-5.737a.676.676,0,0,1,.956-.956l5.651,5.737a.682.682,0,0,1,0,.956A1.235,1.235,0,0,1,32.556,99.538Z" transform="translate(-3.434 -81.717)"/>
    <path id="Path_59" data-name="Path 59" class="cls-1" d="M40.608,91.8a.664.664,0,0,1-.435-.174l-5.3-5.3a.676.676,0,0,1,.956-.956l5.3,5.3a.682.682,0,0,1,0,.956A1.236,1.236,0,0,1,40.608,91.8Z" transform="translate(-4.532 -80.763)"/>
    <path id="Path_60" data-name="Path 60" class="cls-1" d="M43.308,89.1a.664.664,0,0,1-.435-.174l-5.3-5.3a.676.676,0,1,1,.956-.956l5.3,5.3a.682.682,0,0,1,0,.956A.735.735,0,0,1,43.308,89.1Z" transform="translate(-4.884 -80.41)"/>
  </g>
</svg>
