<svg class="social-svg" xmlns="http://www.w3.org/2000/svg" viewBox="-20571.049 12555.256 46.047 46.048">
  <defs>
    <style>
      .social-svg-1 {
        fill: #063f5f;
      }
    </style>
  </defs>
  <path id="Path_5" data-name="Path 5" class="social-svg-1" d="M166.424,0a23.024,23.024,0,1,0,23.024,23.024A23.092,23.092,0,0,0,166.424,0Zm-8.346,34.536a3.022,3.022,0,0,1,0-6.044,2.951,2.951,0,0,1,3.022,3.022A3.139,3.139,0,0,1,158.078,34.536Zm7.627,0a10.809,10.809,0,0,0-10.792-10.792V19.283a15.139,15.139,0,0,1,15.109,15.253Zm7.771,0a18.608,18.608,0,0,0-18.563-18.563V11.512a22.969,22.969,0,0,1,22.88,23.024Z" transform="translate(-20714.448 12555.256)"/>
</svg>
