<svg class="twitter-svg" xmlns="http://www.w3.org/2000/svg" viewBox="-20708.615 12555.256 46.047 46.048">
  <defs>
    <style>
      .twitter-svg-1 {
        fill: #063f5f;
      }
    </style>
  </defs>
  <path id="Path_2" data-name="Path 2" class="twitter-svg-1" d="M70.824,0A23.024,23.024,0,1,0,93.848,23.024,23.092,23.092,0,0,0,70.824,0Zm9.21,18.275v.576A13.32,13.32,0,0,1,66.651,32.234a12.155,12.155,0,0,1-7.195-2.158h1.151a9.441,9.441,0,0,0,5.9-2.015,4.949,4.949,0,0,1-4.461-3.31c.288,0,.576.144.863.144a3.984,3.984,0,0,0,1.3-.144,4.645,4.645,0,0,1-3.741-4.6h0a4.767,4.767,0,0,0,2.158.576,4.722,4.722,0,0,1-2.158-3.885,6.779,6.779,0,0,1,.576-2.446,13,13,0,0,0,9.785,4.893,2.449,2.449,0,0,1-.144-1.007,4.791,4.791,0,0,1,4.749-4.749,5.025,5.025,0,0,1,3.454,1.439A7.752,7.752,0,0,0,81.9,13.814,4.593,4.593,0,0,1,79.89,16.4a15.179,15.179,0,0,0,2.734-.719A10.99,10.99,0,0,1,80.034,18.275Z" transform="translate(-20756.416 12555.256)"/>
</svg>
