<svg xmlns="http://www.w3.org/2000/svg" viewBox="-10334 -5959.036 19.251 16.096">
  <defs>
    <style>
      .cls-1 {
        fill: #41c5eb;
      }
    </style>
  </defs>
  <g id="Group_325" data-name="Group 325" transform="translate(-10334 -5959.036)">
    <path id="Path_94" data-name="Path 94" class="cls-1" d="M.684,13.265A4.787,4.787,0,0,1,4.629,10.9a.687.687,0,0,1,.631.368c.263.368.579.631.894,1a6.2,6.2,0,0,0-3.787,5.1C1.788,17.21,0,15.9,0,15.527A4.253,4.253,0,0,1,.684,13.265Z" transform="translate(0 -5.164)"/>
    <path id="Path_95" data-name="Path 95" class="cls-1" d="M30.27,13.265A4.787,4.787,0,0,0,26.325,10.9a.687.687,0,0,0-.631.368c-.263.368-.579.631-.894,1a6.2,6.2,0,0,1,3.787,5.1c.579-.158,2.42-1.473,2.42-1.894A5.042,5.042,0,0,0,30.27,13.265Z" transform="translate(-11.756 -5.164)"/>
    <path id="Path_96" data-name="Path 96" class="cls-1" d="M15.869,15.178a4.983,4.983,0,0,0-2.682-.684,5.225,5.225,0,0,0-2.682.684,5.376,5.376,0,0,0-2.84,6.1c.053.316.21.316.421.473a11.653,11.653,0,0,0,5.049,1.21h0a10.748,10.748,0,0,0,5.049-1.21c.263-.158.421-.158.473-.473C19.34,18.649,18.236,16.545,15.869,15.178Z" transform="translate(-3.561 -6.867)"/>
    <path id="Path_97" data-name="Path 97" class="cls-1" d="M15.266,7.775A3.335,3.335,0,0,1,11.9,4.514,3.379,3.379,0,0,1,15.266,1.2,3.323,3.323,0,0,1,18.58,4.461,3.267,3.267,0,0,1,15.266,7.775Z" transform="translate(-5.641 -0.568)"/>
    <path id="Path_98" data-name="Path 98" class="cls-1" d="M7.479.578A4.182,4.182,0,0,0,6.375,5.1,2.627,2.627,0,0,1,3.429,3.839,2.638,2.638,0,0,1,4.166.525,2.759,2.759,0,0,1,7.479.578Z" transform="translate(-1.483 0.001)"/>
    <path id="Path_99" data-name="Path 99" class="cls-1" d="M25.3.578A4.182,4.182,0,0,1,26.4,5.1,2.627,2.627,0,0,0,29.35,3.839,2.577,2.577,0,0,0,28.614.525,2.757,2.757,0,0,0,25.3.578Z" transform="translate(-11.993 0.001)"/>
  </g>
</svg>
