<svg class="adx-healthCare-logo-svg" id="Layer_1" data-name="Layer 1" xmlns="http://www.w3.org/2000/svg" xmlns:xlink="http://www.w3.org/1999/xlink" viewBox="0 0 1334.16 812.16"><defs><style>.adx-healthCare-logo-svg-1{fill:#063f5f;}.adx-healthCare-logo-svg-2{fill:#41c5eb;}.adx-healthCare-logo-svg-3{fill:url(#linear-gradient);}.adx-healthCare-logo-svg-4{fill:url(#linear-gradient-2);}.adx-healthCare-logo-svg-5{fill:url(#linear-gradient-3);}.adx-healthCare-logo-svg-6{fill:url(#linear-gradient-4);}.adx-healthCare-logo-svg-7{fill:#eb2b90;}.adx-healthCare-logo-svg-8{fill:#c06dab;}.adx-healthCare-logo-svg-9{fill:#41c5ea;}.adx-healthCare-logo-svg-10{fill:#ae71af;}.adx-healthCare-logo-svg-11{fill:#1592a4;}.adx-healthCare-logo-svg-12{fill:#3b7b96;}.adx-healthCare-logo-svg-13{fill:#3c6db4;}.adx-healthCare-logo-svg-14{fill:none;stroke:#063f5f;stroke-miterlimit:10;stroke-width:6px;}</style><linearGradient id="linear-gradient" x1="877.16" y1="356.77" x2="877.16" y2="464" gradientUnits="userSpaceOnUse"><stop offset="0" stop-color="#41c5eb"/><stop offset="1" stop-color="#0084a1"/></linearGradient><linearGradient id="linear-gradient-2" x1="877.91" y1="359.78" x2="877.91" y2="460" xlink:href="#linear-gradient"/><linearGradient id="linear-gradient-3" x1="1014.07" y1="416.53" x2="1014.07" xlink:href="#linear-gradient"/><linearGradient id="linear-gradient-4" x1="1013.32" y1="419.67" x2="1013.32" y2="460" xlink:href="#linear-gradient"/></defs><title>ADx HealthCare Logo DESIGN 003</title><path class="adx-healthCare-logo-svg-1" d="M278.2,559c0-2.31,1.16-3.61,3.47-3.61h3c2.17,0,3.47,1.3,3.47,3.61v42.63h59V559c0-2.31,1.16-3.61,3.47-3.61h2.89a3.27,3.27,0,0,1,3.61,3.61v94.35a3.27,3.27,0,0,1-3.61,3.61h-2.89c-2.31,0-3.47-1.3-3.47-3.61V610.62h-59v42.77c0,2.31-1.3,3.61-3.47,3.61h-3c-2.31,0-3.47-1.3-3.47-3.61Z"/><path class="adx-healthCare-logo-svg-1" d="M423,582.58c19.36,0,30.34,14,30.34,34.68a3.61,3.61,0,0,1-3.76,3.61H397.26c.43,18.5,13.15,29,28.18,29a31.16,31.16,0,0,0,19.07-6.65q3-2,4.77.87l1.16,1.73a3.37,3.37,0,0,1-1,4.77,41.42,41.42,0,0,1-24.27,8.09c-21.67,0-38-15.61-38-38C387.15,596.89,403.33,582.58,423,582.58Zm20.37,30.92c-.58-15.32-9.83-22.83-20.66-22.83-12.14,0-22.69,8.09-25,22.83Z"/><path class="adx-healthCare-logo-svg-1" d="M519.51,612.49h4.19v-2.31c0-14-7.66-18.78-17.92-18.78a34.11,34.11,0,0,0-17.63,5.06c-2,1-3.61.72-4.91-1.16l-.87-1.44c-1.16-1.88-.87-3.76,1-4.91a44.3,44.3,0,0,1,23.12-6.36c17.34,0,27,9.68,27,27.89v42.91c0,2.31-1.16,3.61-3.47,3.61h-2.31c-2.31,0-3.61-1.16-3.61-3.61v-5.78a30.87,30.87,0,0,1,.43-5.49h-.29c.14,0-6.5,16.62-24.56,16.62-12.28,0-24.56-7.23-24.56-21.24C475.15,613.79,505.49,612.49,519.51,612.49Zm-18.06,38c14,0,22.25-14.45,22.25-27.16v-3.47h-4c-11.41,0-34.39.43-34.39,16.76C485.26,643.41,490.61,650.49,501.44,650.49Z"/><path class="adx-healthCare-logo-svg-1" d="M565.74,559c0-2.31,1.16-3.61,3.47-3.61H572a3.27,3.27,0,0,1,3.61,3.61v79c0,9.1,4.33,10.11,7.51,10.55a2.92,2.92,0,0,1,3,3.18V654c0,2.17-1,3.61-3.76,3.61-5.92,0-16.62-1.88-16.62-17.77Z"/><path class="adx-healthCare-logo-svg-1" d="M614,593.13h-6.07q-3.47,0-3.47-3.47v-1.16c0-2.31,1.16-3.61,3.47-3.61h6.21V567.84a3.27,3.27,0,0,1,3.61-3.61h2.6c2.31,0,3.47,1.3,3.47,3.61V584.9h14.74a3.27,3.27,0,0,1,3.61,3.61v1.16c0,2.31-1.3,3.47-3.61,3.47H623.83v36.41c0,16.76,10.26,18.78,15.89,19.07,2.89.29,3.9,1.16,3.9,3.61v1.88c0,2.31-1.16,3.47-4,3.47-15.89,0-25.58-9.68-25.58-26.73Z"/><path class="adx-healthCare-logo-svg-1" d="M668.33,559c0-2.31,1.16-3.61,3.47-3.61h2.74a3.27,3.27,0,0,1,3.61,3.61V595.3a30.32,30.32,0,0,1-.58,5.92h.29c2.75-6.79,12.57-18.64,29-18.64,18.06,0,24.42,10.26,24.42,28.18v42.63c0,2.31-1.16,3.61-3.47,3.61h-2.74a3.27,3.27,0,0,1-3.61-3.61v-40c0-11.41-1.73-21.53-15.89-21.53-15.32,0-27.45,12.57-27.45,30.06v31.5a3.27,3.27,0,0,1-3.61,3.61H671.8c-2.31,0-3.47-1.3-3.47-3.61Z"/><path class="adx-healthCare-logo-svg-1" d="M796.79,582.58a38.13,38.13,0,0,1,24.13,8.24c1.73,1.3,1.88,3,.43,4.91l-1,1.59c-1.3,2-2.89,2-4.91.72a30,30,0,0,0-18.35-6.65c-15.89,0-28.32,12-28.32,29.33s12.43,29.19,28.47,29.19a31.76,31.76,0,0,0,20.52-7.66q2.82-2.17,4.77.87l1,1.45c1.16,1.88.72,3.47-.87,4.91a40.37,40.37,0,0,1-25.86,9.25c-21.67,0-38.15-15.46-38.15-38S775.26,582.58,796.79,582.58Z"/><path class="adx-healthCare-logo-svg-1" d="M889.41,612.49h4.19v-2.31c0-14-7.66-18.78-17.92-18.78a34.11,34.11,0,0,0-17.63,5.06c-2,1-3.61.72-4.91-1.16l-.87-1.44c-1.16-1.88-.87-3.76,1-4.91a44.3,44.3,0,0,1,23.12-6.36c17.34,0,27,9.68,27,27.89v42.91c0,2.31-1.16,3.61-3.47,3.61h-2.31c-2.31,0-3.61-1.16-3.61-3.61v-5.78a30.87,30.87,0,0,1,.43-5.49h-.29c.14,0-6.5,16.62-24.56,16.62-12.28,0-24.56-7.23-24.56-21.24C845.05,613.79,875.4,612.49,889.41,612.49Zm-18.06,38c14,0,22.25-14.45,22.25-27.16v-3.47h-4c-11.41,0-34.39.43-34.39,16.76C855.17,643.41,860.51,650.49,871.35,650.49Z"/><path class="adx-healthCare-logo-svg-1" d="M935.51,587.93a3.27,3.27,0,0,1,3.61-3.61h2.6c2.17,0,3.47,1.3,3.47,3.61v9.83a29.71,29.71,0,0,1-.58,5.78h.29c3.47-10.55,11.85-19.65,23.41-19.65,2.6,0,3.76,1.16,3.76,3.47V590c0,2.31-1.59,3.61-4,3.61-15.32,0-22.69,17.48-22.69,32.66v27.16c0,2.31-1.16,3.61-3.47,3.61h-2.74a3.27,3.27,0,0,1-3.61-3.61Z"/><path class="adx-healthCare-logo-svg-1" d="M1023.94,582.58c19.36,0,30.34,14,30.34,34.68a3.61,3.61,0,0,1-3.76,3.61H998.22c.43,18.5,13.15,29,28.18,29a31.16,31.16,0,0,0,19.07-6.65q3-2,4.77.87l1.16,1.73a3.37,3.37,0,0,1-1,4.77,41.42,41.42,0,0,1-24.27,8.09c-21.67,0-38-15.61-38-38C988.11,596.89,1004.29,582.58,1023.94,582.58Zm20.37,30.92c-.58-15.32-9.83-22.83-20.66-22.83-12.14,0-22.69,8.09-25,22.83Z"/><path class="adx-healthCare-logo-svg-1" d="M358.42,407.66l-20.18,56.77H275.59L380.29,176h77.37l104.7,288.46H494.24l-21-56.77Zm17.66-49.2H456c-12.62-37.84-25.65-75.69-38.69-113.11h-2.1Z"/><path class="adx-healthCare-logo-svg-1" d="M811.06,303.8v32.8c0,82-58.45,127.83-128.67,127.83H573.06V176H682.39C752.61,176,811.06,221.8,811.06,303.8ZM638.24,412.71h44.15c34.48,0,60.55-22.71,60.55-66.86v-51.3c0-44.15-26.07-66.86-60.55-66.86H638.24Z"/><path class="adx-healthCare-logo-svg-2" d="M828,252h78.34l2.12,3.64.69,1.26c.36.57.36.65.78,1.26s1.19,1.75,2.94,4.29l1.23,1.82-10.9,9.6-1.58-2.23c-1.25-1.76-1.62-2.27-1.71-2.4l0,.85c-.36-.44-.81-1.1-1.45-1.1H855l31.69,46.39-10.94,8.76Z"/><path class="adx-healthCare-logo-svg-2" d="M880.21,309.38,850.36,265h49.44c4.32,5,0-.11,3.86,5.33l7.2-6.39c-4.45-6.5-2.59-4.23-4.45-7.18L905,254H832.64L873,315Z"/><path class="adx-healthCare-logo-svg-2" d="M973.57,344.15,1025.43,269h-39c-1.39,0-2.78,3.56-4.13,5.62-1,1.49-1.95,2.54-2.92,4.09-6.92,11-14.39,22.64-22.05,34.26l-1.67,2.42-10.39-10.49,1.1-1.7c7.18-10.94,14.11-22,20.81-32.68,3-4.85,6.08-10,9.16-14.88l2.13-3.65h74.17L984,353.68Z"/><path class="adx-healthCare-logo-svg-2" d="M977.28,277.08C979.86,273,982.43,269,985,265h45.07l-53.32,78.07,6.83,6.16L1048,254H979.81l-1.39,2.73c-3.07,4.85-6.11,10-9.15,14.81-6.76,10.78-13.71,22-20.83,32.85l6.84,7C962.81,299.95,970.16,288.43,977.28,277.08Z"/><path class="adx-healthCare-logo-svg-3" d="M821.33,464,894,356.77l10.48,9.88-56,82.35h39.19c5.59-8,11.15-16.64,16.53-25.35,2.15-3.48,4.29-6.77,6.41-10.13,2.31-3.66,4.61-7.21,6.93-10.85l4.93-7.72L933,405.32,931.93,407q-4.58,7.23-9.13,14.46c-7.75,12.29-16.53,26.08-25.26,39.42L895.41,464Z"/><path class="adx-healthCare-logo-svg-4" d="M912.71,414.93C905,427.14,897.06,441,889,452H843.84l57.48-84.68-6.89-7.55L826,460h68.11l1.4-1.22c8.63-13.19,17.07-26.12,25.24-39.07,3-4.82,6.08-9.41,9.13-14.23l-6.93-6.73C919.51,404.13,916.1,409.54,912.71,414.93Z"/><polygon class="adx-healthCare-logo-svg-5" points="978.82 464 971.25 451.31 982.05 441.05 986.87 449 1029.88 449 1014.15 426.23 1024.91 416.54 1056.89 464 978.82 464"/><polygon class="adx-healthCare-logo-svg-6" points="1024.45 419.67 1017.4 426.43 1034.54 452 985.46 452 981.48 445.28 974.39 450.96 980.23 460 1052.26 460 1024.45 419.67"/><circle class="adx-healthCare-logo-svg-2" cx="914.44" cy="280.33" r="5.46" transform="translate(-4.07 13.63) rotate(-0.85)"/><circle class="adx-healthCare-logo-svg-2" cx="921.3" cy="303.45" r="5.46" transform="translate(-4.41 13.73) rotate(-0.85)"/><circle class="adx-healthCare-logo-svg-7" cx="965.93" cy="437.92" r="5.46" transform="translate(-6.41 14.41) rotate(-0.85)"/><circle class="adx-healthCare-logo-svg-8" cx="959.02" cy="418.04" r="5.46" transform="translate(-6.11 14.31) rotate(-0.85)"/><circle class="adx-healthCare-logo-svg-9" cx="1008.03" cy="410.17" r="5.46" transform="translate(-5.99 15.04) rotate(-0.85)"/><circle class="adx-healthCare-logo-svg-2" cx="988.72" cy="397.6" r="6.8" transform="translate(-5.8 14.75) rotate(-0.85)"/><circle class="adx-healthCare-logo-svg-10" cx="964.1" cy="394.55" r="6.8" transform="translate(-5.76 14.38) rotate(-0.85)"/><circle class="adx-healthCare-logo-svg-11" cx="916.61" cy="326.98" r="6.8" transform="translate(-4.76 13.67) rotate(-0.85)"/><circle class="adx-healthCare-logo-svg-9" cx="892.99" cy="326" r="5.46" transform="translate(-27.85 89.88) rotate(-5.67)"/><circle class="adx-healthCare-logo-svg-2" cx="911.85" cy="350.43" r="7.87" transform="translate(-5.11 13.6) rotate(-0.85)"/><circle class="adx-healthCare-logo-svg-12" cx="940.32" cy="330.13" r="7.87" transform="translate(-4.81 14.02) rotate(-0.85)"/><circle class="adx-healthCare-logo-svg-2" cx="940.81" cy="388.27" r="7.87" transform="translate(-5.67 14.03) rotate(-0.85)"/><circle class="adx-healthCare-logo-svg-10" cx="967.83" cy="368.45" r="7.87" transform="translate(-5.37 14.43) rotate(-0.85)"/><circle class="adx-healthCare-logo-svg-2" cx="919.22" cy="373.57" r="8.86" transform="translate(-5.45 13.71) rotate(-0.85)"/><circle class="adx-healthCare-logo-svg-13" cx="959.95" cy="344.89" r="8.86" transform="translate(-5.02 14.31) rotate(-0.85)"/><line class="adx-healthCare-logo-svg-14" x1="277.47" y1="510" x2="1055.01" y2="510"/></svg>