<svg class="cake-white-bigger" xmlns="http://www.w3.org/2000/svg" xmlns:xlink="http://www.w3.org/1999/xlink" viewBox="2303 -3663 790.242 790.242">
  <defs>
    <style>
      .cake-white-bigger-1 {
        fill: #fff;
      }

      .cake-white-bigger-2 {
        fill: #41c5eb;
      }

      .cake-white-bigger-3 {
        filter: url(#Ellipse_1362);
      }
    </style>
    <filter id="Ellipse_1362" x="2303" y="-3663" width="790.242" height="790.242" filterUnits="userSpaceOnUse">
      <feOffset input="SourceAlpha"/>
      <feGaussianBlur stdDeviation="10" result="blur"/>
      <feFlood flood-opacity="0.051"/>
      <feComposite operator="in" in2="blur"/>
      <feComposite in="SourceGraphic"/>
    </filter>
  </defs>
  <g id="Group_783" data-name="Group 783" transform="translate(821 -4422)">
    <g class="cake-white-bigger-3" transform="matrix(1, 0, 0, 1, -821, 4422)">
      <circle id="Ellipse_1362-2" data-name="Ellipse 1362" class="cake-white-bigger-1" cx="365.121" cy="365.121" r="365.121" transform="translate(2333 -3633)"/>
    </g>
    <path id="Path_371" data-name="Path 371" class="cake-white-bigger-2" d="M222.532,58.04a66.5,66.5,0,0,0-46.759-28.5,56.61,56.61,0,0,0-19.594-18.7A72.08,72.08,0,0,0,123.225.149C98.287-1.633,75.576,9.055,59.99,29.54c-22.266,4.008-39.634,15.586-50.321,33.4a73.813,73.813,0,0,0-4.453,64.126,67.512,67.512,0,0,0,57,41.415,71.27,71.27,0,0,0,39.188-7.57c11.578-5.789,21.375-14.7,29.836-25.829l-13.8-16.922C104.076,139.089,84.482,149.777,64,148c-17.813-1.781-32.954-12.469-39.634-28.946a52.021,52.021,0,0,1,3.117-45.868C32.825,63.83,44.4,51.806,67.115,49.134l4.9-.445,2.672-4.008c15.141-22.711,36.071-24.938,46.759-24.047,16.922,1.336,32.954,10.688,38.743,22.711l2.672,5.789,6.234.445c14.7.445,27.61,8.016,36.516,20.485,9.352,12.914,12.024,29.836,8.016,43.641-4.453,13.8-16.032,26.274-30.282,32.063-8.906,3.563-22.266,5.789-38.743-1.781l-12.469,16.477a106.329,106.329,0,0,0,16.477,6.68c-3.563,13.8-9.352,37.407-12.024,56.11H95.615c-1.336-10.688-4.008-28.055-6.68-39.188l-20.93,2.227c3.563,11.133,7.125,38.743,8.461,48.54l.891,9.352h77.486l.891-9.352c2.227-19.149,9.8-50.321,13.36-65.017a76.115,76.115,0,0,0,22.266-4.453c20.039-8.016,36.071-24.938,42.305-44.977A71.363,71.363,0,0,0,222.532,58.04Z" transform="translate(1764.508 1024.449)"/>
  </g>
</svg>
