<svg class="doctor-svg" xmlns="http://www.w3.org/2000/svg" xmlns:xlink="http://www.w3.org/1999/xlink" viewBox="0 0 310 310">
  <defs>
    <style>
      .doctor-svg-1 {
        fill: #fff;
      }

      .doctor-svg-2 {
        fill: #41c5eb;
      }

      .doctor-svg-3 {
        fill: #fbaa51;
      }

      .doctor-svg-4 {
        fill: #648ba3;
      }

      .doctor-svg-5 {
        fill: #a7c5f2;
      }

      .doctor-svg-6 {
        fill: #536897;
      }

      .doctor-svg-7 {
        fill: #e5edff;
      }

      .doctor-svg-8 {
        fill: #000064;
        opacity: 0.15;
      }

      .doctor-svg-9 {
        filter: url(#Ellipse_1358);
      }
    </style>
    <filter id="Ellipse_1358" x="0" y="0" width="310" height="310" filterUnits="userSpaceOnUse">
      <feOffset input="SourceAlpha"/>
      <feGaussianBlur stdDeviation="10" result="blur"/>
      <feFlood flood-opacity="0.051"/>
      <feComposite operator="in" in2="blur"/>
      <feComposite in="SourceGraphic"/>
    </filter>
  </defs>
  <g id="Group_1114" data-name="Group 1114" transform="translate(-350 -553.379)">
    <g id="Group_918" data-name="Group 918" transform="translate(-4745 6528)">
      <g class="doctor-svg-9" transform="matrix(1, 0, 0, 1, 5095, -5974.62)">
        <circle id="Ellipse_1358-2" data-name="Ellipse 1358" class="doctor-svg-1" cx="125" cy="125" r="125" transform="translate(30 30)"/>
      </g>
    </g>
    <g id="physician-7731_67bb1f41-016f-4f09-a50b-c4026c9bd2c3" transform="translate(456 642)">
      <path id="layer5" class="doctor-svg-2" d="M77,45.235C65.417,43.052,61.91,41.106,60.85,39.084L49.008,46.805,37.167,39.082c-1.06,2.023-4.573,3.967-16.152,6.153C1.5,48.908,1.5,62.509,1.5,62.509V75.072H96.509V62.509S96.509,48.908,77,45.235Z" transform="translate(-1.5 19.151)"/>
      <path id="layer4" class="doctor-svg-3" d="M61.822,25.7V20.626C61.707,18.674,60.616,10,50.215,10a16.85,16.85,0,0,0-9.2,2.566A16.85,16.85,0,0,0,31.827,10c-10.4,0-11.492,8.673-11.607,10.625V25.7c-4.733.083-4.711,3.251-4.711,4.727s.325,7.777,5.072,7.832a28.193,28.193,0,0,0,9.077,14.57l-.016.008a5.752,5.752,0,0,1-.46,2.827l11.835,7.726,11.841-7.723a5.752,5.752,0,0,1-.459-2.83l-.016-.008A28.193,28.193,0,0,0,61.46,38.268c4.747-.06,5.072-6.354,5.072-7.836S66.555,25.788,61.822,25.7Z" transform="translate(6.491 2.562)"/>
      <path id="layer2" class="doctor-svg-4" d="M60.116,25.188V24.6C60.116,8.264,50.1,2,39.7,2S18.5,8.272,18.5,24.606v2.513c18.845,0,17.446-12.551,30.009-12.551C58.909,14.563,60,23.236,60.116,25.188Z" transform="translate(8.197 -2)"/>
      <path id="layer3" class="doctor-svg-5" d="M30.752,43.347V72.64h3.141V43.347l-1.57,1.024-1.57-1.024Z" transform="translate(15.185 21.584)"/>
      <path id="layer2-2" data-name="layer2" class="doctor-svg-6" d="M22.578,60.634a1.57,1.57,0,0,1-1.57-1.57V41.186a1.57,1.57,0,0,1,3.141,0V59.064A1.57,1.57,0,0,1,22.578,60.634Z" transform="translate(9.627 19.456)"/>
      <path id="layer1" class="doctor-svg-7" d="M23.719,60.422a4.711,4.711,0,1,1,4.711-4.711A4.711,4.711,0,0,1,23.719,60.422Z" transform="translate(8.487 25.949)"/>
      <path id="layer2-3" data-name="layer2" class="doctor-svg-6" d="M40.578,37.008h-1.1c-.157.141-.314.3-.488.432l.016.008a6.023,6.023,0,0,0,.41,2.7h1.162a6.223,6.223,0,0,1,4.97,1.834,8.125,8.125,0,0,1,1.333,5.77,1.57,1.57,0,0,0,1.3,1.8,1.605,1.605,0,0,0,.253.019,1.57,1.57,0,0,0,1.548-1.316,11.217,11.217,0,0,0-2.02-8.293,9.173,9.173,0,0,0-7.381-2.954Z" transform="translate(19.883 17.956)"/>
      <path id="layer1-2" data-name="layer1" class="doctor-svg-7" d="M43.176,64.492a1.57,1.57,0,0,1-.7-.166A6.255,6.255,0,0,1,39,58.7V49.282A6.282,6.282,0,0,1,45.282,43h6.282a6.282,6.282,0,0,1,6.282,6.282V58.7a6.282,6.282,0,0,1-3.266,5.511,1.57,1.57,0,1,1-1.51-2.754A3.141,3.141,0,0,0,54.7,58.7V49.282a3.141,3.141,0,0,0-3.141-3.141H45.282a3.141,3.141,0,0,0-3.141,3.141V58.7a3.13,3.13,0,0,0,1.74,2.813,1.57,1.57,0,0,1-.705,2.974Z" transform="translate(19.89 21.386)"/>
      <path id="opacity" class="doctor-svg-8" d="M49.008,62.1V2.009C38.718,2.164,28.2,8.471,28.2,24.6v5.661c-4.733.083-4.711,3.251-4.711,4.727s.325,7.777,5.072,7.832a28.193,28.193,0,0,0,9.077,14.57l-.016.008a5.752,5.752,0,0,1-.46,2.827,5.237,5.237,0,0,1-1.985,1.944,1.552,1.552,0,0,0-1.476-1.1,1.57,1.57,0,0,0-1.57,1.57v.953a72.34,72.34,0,0,1-11.112,2.787C1.5,70.054,1.5,83.655,1.5,83.655V96.219H21.538L60.374,57.391S54.41,62.1,49.008,62.1Z" transform="translate(-1.5 -1.995)"/>
    </g>
  </g>
</svg>
