<svg class="doctor--bgc-silver-svg" id="Group_672" data-name="Group 672" xmlns="http://www.w3.org/2000/svg" viewBox="0 0 199.337 199.337">
  <defs>
    <style>
      .doctor--bgc-silver-svg-1 {
        fill: #f6f6f4;
      }

      .doctor--bgc-silver-svg-2 {
        fill: #41c5eb;
      }

      .doctor--bgc-silver-svg-3 {
        fill: #fbaa51;
      }

      .doctor--bgc-silver-svg-4 {
        fill: #648ba3;
      }

      .doctor--bgc-silver-svg-5 {
        fill: #a7c5f2;
      }

      .doctor--bgc-silver-svg-6 {
        fill: #536897;
      }

      .doctor--bgc-silver-svg-7 {
        fill: #e5edff;
      }

      .doctor--bgc-silver-svg-8 {
        fill: #000064;
        opacity: 0.15;
      }
    </style>
  </defs>
  <ellipse id="Ellipse_1602" data-name="Ellipse 1602" class="doctor--bgc-silver-svg-1" cx="99.669" cy="99.669" rx="99.669" ry="99.669" transform="translate(0)"/>
  <g id="physician-7731_67bb1f41-016f-4f09-a50b-c4026c9bd2c3" transform="translate(51.463 52.114)">
    <path id="layer5" class="doctor--bgc-silver-svg-2" d="M77.935,45.311c-11.728-2.21-15.278-4.18-16.351-6.227L49.6,46.9,37.608,39.082c-1.073,2.048-4.63,4.016-16.351,6.229C1.5,49.029,1.5,62.8,1.5,62.8V75.517H97.684V62.8S97.684,49.029,77.935,45.311Z" transform="translate(-1.5 19.871)"/>
    <path id="layer4" class="doctor--bgc-silver-svg-3" d="M62.394,25.9V20.757C62.278,18.781,61.173,10,50.644,10a17.059,17.059,0,0,0-9.312,2.6,17.059,17.059,0,0,0-9.3-2.6C21.5,10,20.395,18.781,20.278,20.757V25.9c-4.792.084-4.769,3.291-4.769,4.785s.329,7.873,5.135,7.928a28.542,28.542,0,0,0,9.189,14.75l-.016.008a5.824,5.824,0,0,1-.466,2.862l11.981,7.822L53.32,56.236a5.823,5.823,0,0,1-.464-2.865l-.016-.008a28.542,28.542,0,0,0,9.189-14.746c4.806-.06,5.135-6.432,5.135-7.933S67.186,25.983,62.394,25.9Z" transform="translate(6.763 2.718)"/>
    <path id="layer2" class="doctor--bgc-silver-svg-4" d="M60.63,25.475v-.6C60.63,8.342,50.5,2,39.962,2S18.5,8.35,18.5,24.885v2.544c19.078,0,17.661-12.706,30.38-12.706C59.409,14.719,60.514,23.5,60.63,25.475Z" transform="translate(8.527 -2)"/>
    <path id="layer3" class="doctor--bgc-silver-svg-5" d="M30.752,43.347V73h3.18V43.347l-1.59,1.037-1.59-1.037Z" transform="translate(15.753 22.387)"/>
    <path id="layer2-2" data-name="layer2" class="doctor--bgc-silver-svg-6" d="M22.6,60.894a1.59,1.59,0,0,1-1.59-1.59v-18.1a1.59,1.59,0,0,1,3.18,0V59.3A1.59,1.59,0,0,1,22.6,60.894Z" transform="translate(10.006 20.186)"/>
    <path id="layer1" class="doctor--bgc-silver-svg-7" d="M23.777,60.539a4.769,4.769,0,1,1,4.769-4.769A4.769,4.769,0,0,1,23.777,60.539Z" transform="translate(8.826 26.901)"/>
    <path id="layer2-3" data-name="layer2" class="doctor--bgc-silver-svg-6" d="M40.6,37.008H39.484c-.159.143-.318.3-.494.437l.016.008a6.1,6.1,0,0,0,.415,2.734H40.6a6.3,6.3,0,0,1,5.032,1.857,8.226,8.226,0,0,1,1.35,5.841,1.59,1.59,0,0,0,1.312,1.822,1.625,1.625,0,0,0,.256.019,1.59,1.59,0,0,0,1.568-1.332A11.356,11.356,0,0,0,48.069,40a9.286,9.286,0,0,0-7.472-2.99Z" transform="translate(20.611 18.636)"/>
    <path id="layer1-2" data-name="layer1" class="doctor--bgc-silver-svg-7" d="M43.227,64.758a1.59,1.59,0,0,1-.711-.169A6.332,6.332,0,0,1,39,58.9V49.359A6.359,6.359,0,0,1,45.359,43h6.359a6.359,6.359,0,0,1,6.359,6.359V58.9a6.36,6.36,0,0,1-3.306,5.579,1.59,1.59,0,1,1-1.529-2.788A3.18,3.18,0,0,0,54.9,58.9V49.359a3.18,3.18,0,0,0-3.18-3.18H45.359a3.18,3.18,0,0,0-3.18,3.18V58.9a3.168,3.168,0,0,0,1.762,2.847,1.59,1.59,0,0,1-.714,3.011Z" transform="translate(20.618 22.182)"/>
    <path id="opacity" class="doctor--bgc-silver-svg-8" d="M49.6,62.845V2.009C39.179,2.166,28.527,8.551,28.527,24.88v5.731c-4.792.084-4.769,3.291-4.769,4.785s.329,7.873,5.135,7.928a28.542,28.542,0,0,0,9.189,14.75l-.016.008a5.824,5.824,0,0,1-.466,2.862,5.3,5.3,0,0,1-2.01,1.968A1.571,1.571,0,0,0,34.1,61.8a1.59,1.59,0,0,0-1.59,1.59v.965a73.235,73.235,0,0,1-11.25,2.822C1.5,70.9,1.5,84.665,1.5,84.665V97.384H21.786L61.1,58.075S55.064,62.845,49.6,62.845Z" transform="translate(-1.5 -1.995)"/>
  </g>
</svg>
