<svg xmlns="http://www.w3.org/2000/svg" viewBox="-6284 -6500 45.629 47.132">
  <defs>
    <style>
      .cls-1 {
        fill: #fff;
      }
    </style>
  </defs>
  <g id="Group_689" data-name="Group 689" transform="translate(-6284 -6500)">
    <path id="Path_596" data-name="Path 596" class="cls-1" d="M22.8,158.978c-6.361,0-12.743.021-19.1-.021a5.112,5.112,0,0,1-2.029-.4A3.073,3.073,0,0,1,0,155.6V142.705c0-.8.021-.824.824-.824,1.585,0,3.17.021,4.755-.021.613-.021.782.19.782.782-.021,2.916-.021,5.833-.021,8.77,0,.254.021.486,0,.74-.021.359.169.507.507.486H38.1a2.824,2.824,0,0,1,.423,0c.634.085.761-.232.761-.8-.021-2.684-.021-5.347,0-8.031,0-.613-.127-1.416.19-1.8.254-.317,1.12-.127,1.712-.148,1.2-.021,2.388-.021,3.593,0,.8,0,.824.021.824.8v5.917c0,2.219-.063,4.438.021,6.657a3.432,3.432,0,0,1-3.7,3.741C35.546,158.914,29.185,158.978,22.8,158.978Z" transform="translate(0 -111.851)"/>
    <path id="Path_597" data-name="Path 597" class="cls-1" d="M65.706,8.538V1.353C65.706.127,65.812,0,67,0h6.446c1.12,0,1.247.148,1.247,1.31V15.047c0,1.458-.19,1.353,1.374,1.353,1.1,0,2.177-.021,3.276.021a1.318,1.318,0,0,1,.888.38c.106.127-.106.592-.3.824-2.705,3.55-5.431,7.1-8.178,10.609-1.2,1.543-1.564,1.522-2.79.021-2.811-3.381-5.6-6.784-8.411-10.165-.042-.063-.106-.106-.127-.169-.148-.3-.3-.613-.423-.93a4.11,4.11,0,0,1,.951-.3c1.31-.042,2.6,0,3.91-.021.845,0,.866-.021.866-.866C65.706,13.4,65.706,10.968,65.706,8.538Z" transform="translate(-47.32 0)"/>
  </g>
</svg>
