<svg class="first-aid-kit" xmlns="http://www.w3.org/2000/svg" viewBox="0 0 145.337 145.338">
  <defs>
    <style>
      .first-aid-kit-1 {
        fill: #f2f2f2;
        opacity: 0.4;
      }

      .first-aid-kit-2 {
        fill: #cbe5ff;
      }

      .first-aid-kit-3 {
        fill: #a7c5f2;
      }

      .first-aid-kit-4 {
        fill: #fe6363;
      }
    </style>
  </defs>
  <g id="Group_991" data-name="Group 991" transform="translate(-1004.998 -1133.721)">
    <ellipse id="Ellipse_1618" data-name="Ellipse 1618" class="first-aid-kit-1" cx="72.669" cy="72.669" rx="72.669" ry="72.669" transform="translate(1004.998 1133.721)"/>
    <g id="electronic-medical-record-8787_93b8b898-b9a5-4b4c-852a-040f31e539de" transform="translate(1044.603 1179.314)">
      <path id="layer3" class="first-aid-kit-2" d="M64.994,61.149A3.346,3.346,0,0,0,68.339,57.8V23.231A2.231,2.231,0,0,0,66.109,21H12.576a2.231,2.231,0,0,0-2.231,2.231V57.8A3.346,3.346,0,0,1,7,61.149Z" transform="translate(-1.424 -7.617)"/>
      <path id="layer2" class="first-aid-kit-3" d="M59.994,22.383V17.922a2.231,2.231,0,0,0-2.231-2.231H22.075V11.231A2.231,2.231,0,0,0,19.844,9H4.231A2.231,2.231,0,0,0,2,11.231V59.187a3.346,3.346,0,0,0,3.346,3.346H7.576a3.346,3.346,0,0,0,3.346-3.346V24.614a2.231,2.231,0,0,1,2.231-2.231Z" transform="translate(-2 -9)"/>
      <path id="layer1" class="first-aid-kit-4" d="M48.305,36.807H40.5V29H33.807v7.807H26V43.5h7.807v7.807H40.5V43.5h7.807Z" transform="translate(0.766 -6.695)"/>
    </g>
  </g>
</svg>
