<svg class="head-medical-blue-svg" xmlns="http://www.w3.org/2000/svg" viewBox="0 0 200 200">
  <defs>
    <style>
      .head-medical-blue-svg-1 {
        fill: #fff;
      }

      .head-medical-blue-svg-2 {
        fill: #41c5eb;
      }

      .head-medical-blue-svg-3 {
        fill: #000064;
        opacity: 0.15;
      }

      .head-medical-blue-svg-4 {
        fill: #fbaa51;
      }
    </style>
  </defs>
  <g id="Group_1094" data-name="Group 1094" transform="translate(13255 19264)">
    <circle id="Ellipse_1766" data-name="Ellipse 1766" class="head-medical-blue-svg-1" cx="100" cy="100" r="100" transform="translate(-13255 -19264)"/>
    <g id="mental-illness-8797_75a5ad18-e90c-43dc-a8b4-38780eb4e3ce" transform="translate(-13196.835 -19216.164)">
      <path id="layer3" class="head-medical-blue-svg-2" d="M51.128,106.261a.436.436,0,0,0,.647-.185c1.277-2.983,8.114-18.685,10.249-18.685,3.485,0,10.346,3.485,15.684,3.485s4.336-12.345,6-17.38,2.712-7.987,2.712-10.5c6.671-.671,5.462-2.755,4.627-4.768s-8.112-11.148-8.112-12.659c0-1.743,1.743-7.1,1.743-10.456C84.678,19.838,75.965,2,46.356,2,17.337,2,8,23.364,8,35.111s3.3,20.537,6.971,24.4,6.971,7.4,6.971,13.941a16.622,16.622,0,0,1-3.485,10.456Z" transform="translate(-8 -2)"/>
      <path id="opacity" class="head-medical-blue-svg-3" d="M31.309,12.515,8.327,35.492c1.1,7.624,3.646,13.305,6.4,16.207C18.4,55.559,21.7,59.1,21.7,65.641A16.622,16.622,0,0,1,18.213,76.1l5.129,3.511,37.53-37.53Z" transform="translate(-7.757 5.809)"/>
      <circle id="layer2" class="head-medical-blue-svg-4" cx="20.912" cy="20.912" r="20.912" transform="translate(17.427 12.199)"/>
      <path id="layer1" class="head-medical-blue-svg-1" d="M44.912,21.971H37.941V15H30.971v6.971H24v6.971h6.971v6.971h6.971V28.941h6.971Z" transform="translate(3.883 7.655)"/>
    </g>
  </g>
</svg>
