<svg class="heart-orange-svg" xmlns="http://www.w3.org/2000/svg" viewBox="0 0 53.855 53.856">
  <defs>
    <style>
      .heart-orange-svg-1 {
        fill: #f9f9f9;
      }

      .heart-orange-svg-2 {
        fill: #f26161;
      }

      .heart-orange-svg-3 {
        fill: #fff;
      }

      .heart-orange-svg-4 {
        fill: #000064;
        opacity: 0.15;
      }

      .heart-orange-svg-5 {
        fill: #fbaa51;
      }
    </style>
  </defs>
  <g id="Group_875" data-name="Group 875" transform="translate(0)">
    <g id="Group_859" data-name="Group 859" transform="translate(0)">
      <circle id="Ellipse_1743" data-name="Ellipse 1743" class="heart-orange-svg-1" cx="26.928" cy="26.928" r="26.928"/>
      <g id="heartbeat-8736_e8d6f126-dcdb-4e75-9c4f-460f43196b24" transform="translate(11.143 15.785)">
        <path id="layer2" class="heart-orange-svg-2" d="M30.358,22.44c-4,6.232-11.382,10.353-11.382,10.353s-7.153-3.974-11.224-9.824L6.5,20.9A12.351,12.351,0,0,1,5,15.227c0-9.786,11.871-9.806,13.935-2.581C21,5.421,32.871,5.421,32.871,14.711a13.188,13.188,0,0,1-1.365,5.677Z" transform="translate(-2.936 -7.461)"/>
        <path id="layer1" class="heart-orange-svg-3" d="M32.483,27.723H23.352c-.294,0-.559.036-.693.3l-1.486,2.909-2.982-7.275a.787.787,0,0,0-.662-.494.771.771,0,0,0-.723.375l-2.948,5.05L11.942,25.9a.768.768,0,0,0-.609-.325c-.244-.008-.472.226-.626.418l-1.7,2.248H1.516a.516.516,0,0,0,0,1.032H9.134c.236,0,.456-.233.6-.418L11.3,26.84l1.952,2.7a.75.75,0,0,0,.665.31.781.781,0,0,0,.633-.392l2.886-4.952,3,7.336a.8.8,0,0,0,.688.525h.029a.7.7,0,0,0,.691-.352l1.668-3.261h8.972a.516.516,0,1,0,0-1.032Z" transform="translate(-1 -15.058)"/>
        <path id="opacity" class="heart-orange-svg-4" d="M9.594,31.825c4.071,5.852,11.224,9.824,11.224,9.824S28.2,37.527,32.2,31.3l.717-1.282H27.292l-1.668,3.261a.7.7,0,0,1-.693.352H24.9a.8.8,0,0,1-.688-.529l-3-7.336-2.886,4.952a.781.781,0,0,1-.633.392.75.75,0,0,1-.665-.31l-1.952-2.7-1.561,2.013c-.148.185-.368.418-.6.418h-4.1Z" transform="translate(-4.778 -16.317)"/>
      </g>
    </g>
    <g id="heartbeat-8736_e8d6f126-dcdb-4e75-9c4f-460f43196b24-2" data-name="heartbeat-8736_e8d6f126-dcdb-4e75-9c4f-460f43196b24" transform="translate(10.002 14.602)">
      <path id="layer2-2" data-name="layer2" class="heart-orange-svg-5" d="M32.436,23.667c-4.331,6.742-12.315,11.2-12.315,11.2s-7.74-4.3-12.144-10.629L6.62,22.006A13.363,13.363,0,0,1,5,15.863C5,5.275,17.845,5.254,20.078,13.071c2.234-7.818,15.077-7.818,15.077,2.234a14.269,14.269,0,0,1-1.476,6.143Z" transform="translate(-2.767 -7.461)"/>
      <path id="layer1-2" data-name="layer1" class="heart-orange-svg-3" d="M35.063,28.1H25.184c-.318,0-.6.039-.749.324l-1.608,3.147L19.6,23.7a.851.851,0,0,0-.716-.534.834.834,0,0,0-.782.405l-3.19,5.464-2.075-2.909a.831.831,0,0,0-.658-.352c-.264-.009-.511.245-.677.452L9.666,28.655H1.558a.558.558,0,1,0,0,1.117H9.8c.255,0,.494-.252.653-.452l1.689-2.178,2.112,2.923a.812.812,0,0,0,.72.335.845.845,0,0,0,.685-.424l3.123-5.358,3.246,7.937a.864.864,0,0,0,.744.568H22.8a.762.762,0,0,0,.748-.381l1.8-3.528h9.707a.558.558,0,1,0,0-1.117Z" transform="translate(-1 -14.394)"/>
      <path id="opacity-2" data-name="opacity" class="heart-orange-svg-4" d="M9.658,32.322C14.063,38.653,21.8,42.95,21.8,42.95s7.985-4.459,12.315-11.2l.776-1.387H28.806L27,33.891a.762.762,0,0,1-.75.381H26.22a.864.864,0,0,1-.744-.572l-3.245-7.937-3.123,5.358a.845.845,0,0,1-.685.424.812.812,0,0,1-.72-.335l-2.112-2.923L13.9,30.465c-.16.2-.4.452-.653.452H8.808Z" transform="translate(-4.448 -15.543)"/>
    </g>
  </g>
</svg>
