<svg class="human-brain-cloud-svg" xmlns="http://www.w3.org/2000/svg" viewBox="0 0 334.081 334.081">
  <defs>
    <style>
      .human-brain-cloud-svg-1 {
        fill: #f3f3f3;
      }

      .human-brain-cloud-svg-2 {
        fill: #71c3f3;
      }

      .human-brain-cloud-svg-3 {
        fill: #000064;
        opacity: 0.15;
      }

      .human-brain-cloud-svg-4 {
        fill: #fff;
      }

      .human-brain-cloud-svg-5 {
        fill: #ffdda4;
      }
    </style>
  </defs>
  <g id="Group_665" data-name="Group 665" transform="translate(-111 -1577)">
    <circle id="Ellipse_1417" data-name="Ellipse 1417" class="human-brain-cloud-svg-1" cx="167.041" cy="167.041" r="167.041" transform="translate(111 1577)"/>
    <g id="idea-7781_68fa8098-1471-4e62-9b6d-692ff2279374" transform="translate(202.916 1655.365)">
      <path id="layer3" class="human-brain-cloud-svg-2" d="M91.551,2C50.12,2,20.526,17.344,20.526,49.35V78.944A59.069,59.069,0,0,1,8.688,102.619c-2.566,2.572-3.7,7.4,2.776,9.2,5.528,1.542,7.354,1.095,7.961,5.031s-1.675,8.286,1.648,9.506.2,5.12,3.77,8.112c2.32,1.941-2.835,15.442,9.988,15.442H48.85c6.949,0,7.191,4.966,7.191,11.909s-5.919,17.756-5.919,17.756h82.863s-11.838-12.133-11.838-23.675c0-17.818,35.513-45.782,35.513-94.7C156.658,14.415,121.145,2,91.551,2Z" transform="translate(-6.655 -2)"/>
      <path id="opacity" class="human-brain-cloud-svg-3" d="M49.654,16.811,20.525,45.943v3.977A59.069,59.069,0,0,1,8.687,73.6c-2.566,2.572-3.7,7.4,2.776,9.2,5.528,1.542,7.354,1.095,7.961,5.031s-1.675,8.286,1.648,9.506.2,5.12,3.77,8.112c2.32,1.941-2.835,15.442,9.988,15.442H48.849a7.851,7.851,0,0,1,4.173.965l74.858-74.887Z" transform="translate(-6.657 27.021)"/>
      <path id="layer2" class="human-brain-cloud-svg-4" d="M89.749,22.366a32.5,32.5,0,0,0-50.881-.175A23.646,23.646,0,0,0,42.99,69.124h.074v.062H84.5v-.1a23.654,23.654,0,0,0,5.253-46.72Z" transform="translate(18.156 13.677)"/>
      <path id="layer1" class="human-brain-cloud-svg-5" d="M46.1,73.6a2.959,2.959,0,0,1-2.453-4.611l11.7-17.4H31.3a2.959,2.959,0,0,1-2.459-4.6L44.623,23.319A2.961,2.961,0,0,1,49.55,26.6L36.831,45.674H60.9a2.959,2.959,0,0,1,2.456,4.611l-14.8,22A2.959,2.959,0,0,1,46.1,73.6Z" transform="translate(35.837 37.188)"/>
    </g>
  </g>
</svg>
