<svg class="human-brain-svg" xmlns="http://www.w3.org/2000/svg" viewBox="0 0 367.919 367.919">
  <defs>
    <style>
      .human-brain-svg-1 {
        fill: #fff;
      }

      .human-brain-svg-2 {
        fill: #a7c5f2;
      }

      .human-brain-svg-3 {
        fill: #000064;
        opacity: 0.15;
      }

      .human-brain-svg-4 {
        fill: #f2869f;
      }

      .human-brain-svg-5 {
        fill: #e06c8b;
      }
    </style>
  </defs>
  <g id="Group_662" data-name="Group 662" transform="translate(-145 -434)">
    <circle id="Ellipse_1461" data-name="Ellipse 1461" class="human-brain-svg-1" cx="183.96" cy="183.96" r="183.96" transform="translate(145 434)"/>
    <g id="mental-health-8796_378f772b-c2af-42f3-9d03-ad2e11a3a331" transform="translate(252.015 522.069)">
      <path id="layer3" class="human-brain-svg-2" d="M87.189,193.43a.8.8,0,0,0,1.187-.339c2.345-5.478,14.895-34.307,18.814-34.307,6.4,0,19,6.4,28.8,6.4s7.961-22.667,11.02-31.91,4.979-14.664,4.979-19.284c12.248-1.232,10.028-5.059,8.5-8.754s-14.894-20.468-14.894-23.242c0-3.2,3.2-13.035,3.2-19.2,0-28.042-16-60.794-70.364-60.794C25.147,2,8,41.225,8,62.794s6.063,37.708,12.8,44.8,12.8,13.579,12.8,25.6a30.519,30.519,0,0,1-6.4,19.2Z" transform="translate(-8 -2)"/>
      <path id="opacity" class="human-brain-svg-3" d="M34.45,13.346,8.011,39.785c.355,20.584,6.233,35.977,12.764,42.847,6.735,7.087,12.8,13.579,12.8,25.6a30.519,30.519,0,0,1-6.4,19.2l11,7.526,88.266-89.911Z" transform="translate(-7.976 22.958)"/>
      <path id="layer2" class="human-brain-svg-4" d="M48.165,8.938c19.086-3.817,56.836-1.523,63.994,32,2.765,13.179,3.84,26.356-25.6,28.8s-42.517,3.9-44.8,9.6-3.2,19.2-9.6,19.2a5.724,5.724,0,0,1-6.4-6.4c0-5.935-3.2-12.8-6.4-19.2C16.7,67.595.17,18.537,48.165,8.938Z" transform="translate(6.229 10.26)"/>
      <path id="layer1" class="human-brain-svg-5" d="M73.151,46.7a18.238,18.238,0,0,0-17.221,4.71,3.2,3.2,0,1,0,4.525,4.525,11.749,11.749,0,0,1,10.978-3.069,7.679,7.679,0,0,1,5.523,6.009,10.444,10.444,0,0,1-3.724,10.156,48.062,48.062,0,0,0,9.279-2.24,15.058,15.058,0,0,0,.659-9.445A13.97,13.97,0,0,0,73.151,46.7Zm-25.569.739A18.238,18.238,0,0,0,36.518,61.517,22.427,22.427,0,0,0,36.8,72.981q2.88-.5,6.451-.941a15.5,15.5,0,0,1-.49-9.138,12.45,12.45,0,0,1,6.844-9.388,3.2,3.2,0,1,0-2.025-6.079ZM72.435,13.614a50.719,50.719,0,0,0-6.675-2.771c1.328,8.207-1.2,18-6.015,20.887a3.2,3.2,0,0,0,3.292,5.487C69.795,33.164,72.876,22.954,72.435,13.614Zm9.9,6.9A21.326,21.326,0,0,1,79.16,35.238a6.147,6.147,0,0,1-4.969,2.435,3.2,3.2,0,1,0,0,6.4,12.5,12.5,0,0,0,9.919-4.764,22.638,22.638,0,0,0,4.416-11.052,36.506,36.506,0,0,0-6.195-7.737Zm-33.4,2.925a3.2,3.2,0,1,0,5.724,2.864,26.823,26.823,0,0,0-.048-18.046c-2.4-.339-4.8-.557-7.142-.659C49.912,12.558,50.491,20.321,48.933,23.444Zm-9.554,6.55a28.3,28.3,0,0,0-4.864-17.339,27.366,27.366,0,0,0-3.379-4.1c-.6.1-1.177.2-1.741.32a61.464,61.464,0,0,0-6.115,1.574,18.728,18.728,0,0,1,5.907,5.759,21.508,21.508,0,0,1,3.795,13.816A16.258,16.258,0,0,0,23.7,35.663a3.2,3.2,0,1,0,5,4,10.05,10.05,0,0,1,8.806-3.59A6.079,6.079,0,0,1,42.53,39.09a3.2,3.2,0,0,0,5.724-2.864,12.053,12.053,0,0,0-8.876-6.233Z" transform="translate(24.999 10.323)"/>
      <path id="layer1-2" data-name="layer1" class="human-brain-svg-5" d="M26.181,14.308c.3,7.545,2.947,16.366,11.416,18.657a3.094,3.094,0,0,0,.838.112,3.2,3.2,0,0,0,.835-6.287C32.661,25,32.232,14.571,32.7,9.691A36.729,36.729,0,0,0,26.181,14.308ZM16.758,32.329c-.394.038-.8.1-1.206.16a45.856,45.856,0,0,0-1.024,6.719,17.3,17.3,0,0,1,4.406-.6,8.319,8.319,0,0,1,7.273,2.675,3.2,3.2,0,1,0,5.267-3.638,15.624,15.624,0,0,0-14.715-5.318ZM44.835,61.875a3.2,3.2,0,0,0,1.779-5.862,5.855,5.855,0,0,1-3.28-6.319,5.42,5.42,0,0,1,4.7-3.817,3.2,3.2,0,1,0,0-6.4,11.807,11.807,0,0,0-10.169,6.7,37.088,37.088,0,0,0-22.222,7.084c-.163.131-.32.272-.467.406a72.7,72.7,0,0,0,1.641,7.644,13.439,13.439,0,0,1,2.816-3.046,30.717,30.717,0,0,1,17.278-5.683,13.227,13.227,0,0,0,6.156,8.758A3.2,3.2,0,0,0,44.835,61.875Z" transform="translate(6.36 14.918)"/>
    </g>
  </g>
</svg>
