<svg class="mail-pointer-svg" xmlns="http://www.w3.org/2000/svg" viewBox="0 0 133.158 133.158">
  <defs>
    <style>
      .mail-pointer-svg-1 {
        fill: #f9f9f9;
      }

      .mail-pointer-svg-2 {
        fill: #46b1f0;
      }

      .mail-pointer-svg-3, .mail-pointer-svg-5, .mail-pointer-svg-8 {
        fill: #fff;
      }

      .mail-pointer-svg-3 {
        opacity: 0.5;
      }

      .mail-pointer-svg-4 {
        fill: #000064;
        opacity: 0.1;
      }

      .mail-pointer-svg-5 {
        opacity: 0.3;
      }

      .mail-pointer-svg-6 {
        fill: #063f5f;
      }

      .mail-pointer-svg-7, .mail-pointer-svg-8 {
        stroke: none;
      }
    </style>
  </defs>
  <g id="Group_1227" data-name="Group 1227" transform="translate(-212 -1056.264)">
    <circle id="Ellipse_1786" data-name="Ellipse 1786" class="mail-pointer-svg-1" cx="66.579" cy="66.579" r="66.579" transform="translate(212 1056.264)"/>
    <g id="mail-8540_ec44553f-dcc2-42e8-a40e-efcd34b33fa0" transform="translate(243.053 1099.074)">
      <path id="layer1" class="mail-pointer-svg-2" d="M2,12H72.859V59.239H2Z" transform="translate(-2 -12)"/>
      <path id="opacity" class="mail-pointer-svg-3" d="M41.883,34.967,65.641,59.239V12Z" transform="translate(5.218 -12)"/>
      <path id="opacity-2" data-name="opacity" class="mail-pointer-svg-4" d="M2,12V59.239L25.776,34.983Z" transform="translate(-2 -12)"/>
      <path id="opacity-3" data-name="opacity" class="mail-pointer-svg-5" d="M37.429,42.729,25.776,31.464,2,55.72H72.859L49.1,31.447Z" transform="translate(-2 -8.48)"/>
    </g>
    <g id="point-hand-7125_35ad79a8-ab58-4207-8b6d-6aa07e74d6d2" transform="translate(262.527 1122.515)">
      <g id="layer2" class="mail-pointer-svg-6" transform="translate(-8.948 -2)">
        <path class="mail-pointer-svg-7" d="M 19.86859703063965 49.35056304931641 L 16.16053581237793 43.26313400268555 L 16.07131958007813 43.11666870117188 L 15.41236591339111 42.05156326293945 L 15.41822814941406 42.04450607299805 L 7.552566528320313 29.13165283203125 L 7.510746479034424 29.06301307678223 L 7.474576473236084 28.99123191833496 C 6.883756160736084 27.81878280639648 6.784876346588135 26.4864330291748 7.19615650177002 25.2396125793457 C 7.607436180114746 23.9927921295166 8.479636192321777 22.98075294494629 9.65208625793457 22.38993263244629 C 10.33553600311279 22.0455322265625 11.09959602355957 21.86349296569824 11.86167621612549 21.86349296569824 C 13.39943981170654 21.86349296569824 14.81144523620605 22.5653247833252 15.73158645629883 23.74353408813477 L 15.73158645629883 4.915212154388428 C 15.73158645629883 2.204952478408813 17.93653678894043 2.39074711316789e-06 20.64679718017578 2.39074711316789e-06 C 23.3570556640625 2.39074711316789e-06 25.56201553344727 2.204952478408813 25.56201553344727 4.915212154388428 L 25.56201553344727 11.74629020690918 C 25.85860443115234 11.69021606445313 26.16459083557129 11.66086196899414 26.47723579406738 11.66086196899414 C 28.03897666931152 11.66086196899414 29.43304443359375 12.39314842224121 30.33401489257813 13.53223323822021 C 30.93837356567383 13.26623249053955 31.60611534118652 13.1184720993042 32.30766677856445 13.1184720993042 C 34.37013626098633 13.1184720993042 36.13993835449219 14.39523410797119 36.8681526184082 16.19999885559082 C 37.2734375 16.09150695800781 37.69907760620117 16.03368186950684 38.13810729980469 16.03368186950684 C 40.84836578369141 16.03368186950684 43.05331802368164 18.2386417388916 43.05331802368164 20.94890213012695 L 43.05331802368164 38.44021224975586 C 43.05331802368164 43.56165313720703 38.88671493530273 47.72824096679688 33.76527786254883 47.72824096679688 L 24.09987640380859 47.72824096679688 L 24.09517669677734 47.72824096679688 L 24.09047698974609 47.72822189331055 C 22.6007251739502 47.72121810913086 21.15859603881836 47.36173248291016 19.86859703063965 46.69897842407227 L 19.86859703063965 49.35056304931641 Z"/>
        <path class="mail-pointer-svg-8" d="M 33.76527786254883 45.72824096679688 C 37.79035568237305 45.72824096679688 41.05331802368164 42.46527099609375 41.05331802368164 38.44021224975586 L 41.05331802368164 20.94890213012695 C 41.05331802368164 19.3388729095459 39.74812698364258 18.03368186950684 38.13810729980469 18.03368186950684 C 36.5280647277832 18.03368186950684 35.22288513183594 19.3388729095459 35.22288513183594 20.94890213012695 L 35.22288513183594 18.03368186950684 C 35.22288513183594 16.42366218566895 33.91769790649414 15.1184720993042 32.30766677856445 15.1184720993042 C 30.69763565063477 15.1184720993042 29.39244651794434 16.42366218566895 29.39244651794434 18.03368186950684 L 29.39244651794434 16.57608222961426 C 29.39244651794434 14.96605205535889 28.08725547790527 13.66086196899414 26.47723579406738 13.66086196899414 C 24.86720657348633 13.66086196899414 23.56201553344727 14.96605205535889 23.56201553344727 16.57608222961426 L 23.56201553344727 4.915212154388428 C 23.56201553344727 3.305192470550537 22.25682640075684 2.000002384185791 20.64679718017578 2.000002384185791 C 19.03677558898926 2.000002384185791 17.73158645629883 3.305192470550537 17.73158645629883 4.915212154388428 L 17.73158645629883 30.72726249694824 L 14.46726608276367 25.46749305725098 C 13.95482921600342 24.45046234130859 12.92774677276611 23.86349105834961 11.86167812347412 23.86349105834961 C 11.42058753967285 23.86349105834961 10.9728946685791 23.96393966674805 10.55210590362549 24.17598152160645 C 9.114306449890137 24.9005126953125 8.536096572875977 26.65342330932617 9.260626792907715 28.09121322631836 L 17.86859703063965 42.22269058227539 L 17.86859703063965 42.11264419555664 L 17.9094066619873 42.17531204223633 L 17.87005615234375 42.22269058227539 C 18.05055618286133 42.51444244384766 18.2514762878418 42.79306411743164 18.47132682800293 43.05644226074219 L 18.49318695068359 43.09142303466797 L 18.50119590759277 43.09142303466797 C 19.88717651367188 44.75309371948242 21.93608665466309 45.71807098388672 24.09987640380859 45.72824096679688 L 33.76527786254883 45.72824096679688 M 21.86859703063965 56.47844314575195 L 14.45246601104736 44.30357360839844 L 14.36668586730957 44.16275024414063 L 12.95466613769531 41.88044357299805 L 12.96723556518555 41.86530685424805 L 5.844496250152588 30.17209243774414 L 5.760876178741455 30.03481292724609 L 5.688536167144775 29.89126205444336 C 4.857306480407715 28.24173164367676 4.718196392059326 26.36725234985352 5.296816349029541 24.61309242248535 C 5.875446319580078 22.85894203186035 7.102546215057373 21.43511199951172 8.752066612243652 20.6038818359375 C 9.713295936584473 20.1195125579834 10.78857612609863 19.86349296569824 11.86167621612549 19.86349296569824 C 12.49656772613525 19.86349296569824 13.1256275177002 19.95091438293457 13.73158645629883 20.12095260620117 L 13.73158645629883 4.915212154388428 C 13.73158645629883 1.102152347564697 16.83373641967773 -1.999997615814209 20.64679718017578 -1.999997615814209 C 24.45986557006836 -1.999997615814209 27.56201553344727 1.102152347564697 27.56201553344727 4.915212154388428 L 27.56201553344727 9.745837211608887 C 28.8180046081543 9.944501876831055 29.96248817443848 10.48259258270264 30.89853668212891 11.26277256011963 C 31.35358619689941 11.16820335388184 31.82498168945313 11.1184720993042 32.30766677856445 11.1184720993042 C 34.63265228271484 11.1184720993042 36.69324493408203 12.27168464660645 37.94754028320313 14.03627109527588 C 38.01089859008789 14.03454685211182 38.07433700561523 14.03368282318115 38.13810729980469 14.03368282318115 C 41.95116806030273 14.03368282318115 45.05331802368164 17.13583183288574 45.05331802368164 20.94890213012695 L 45.05331802368164 38.44021224975586 C 45.05331802368164 41.45535278320313 43.87915802001953 44.29002380371094 41.74712753295898 46.42205429077148 C 39.61509704589844 48.55408096313477 36.78042602539063 49.72824096679688 33.76527786254883 49.72824096679688 L 24.09987640380859 49.72824096679688 L 24.09047698974609 49.72824096679688 L 24.08107566833496 49.72820281982422 C 23.33055114746094 49.72467422485352 22.59017372131348 49.64749908447266 21.86859703063965 49.50086975097656 L 21.86859703063965 56.47844314575195 Z"/>
      </g>
    </g>
  </g>
</svg>
