<svg class="microscope-svg" xmlns="http://www.w3.org/2000/svg" viewBox="0 0 354.377 354.377">
  <defs>
    <style>
      .microscope-svg-1 {
        fill: #f6f6f4;
      }

      .microscope-svg-2 {
        fill: #648ba3;
      }

      .microscope-svg-3 {
        fill: #41c5eb;
      }

      .microscope-svg-4 {
        fill: #556685;
      }

      .microscope-svg-5 {
        fill: #000064;
        opacity: 0.15;
      }
    </style>
  </defs>
  <g id="Group_680" data-name="Group 680" transform="translate(-161.623 -4344.984)">
    <circle id="Ellipse_1638" data-name="Ellipse 1638" class="microscope-svg-1" cx="177.189" cy="177.189" r="177.189" transform="translate(161.623 4344.984)"/>
    <g id="microscope-8804_39654837-3631-4618-b716-4a89b5f2f43f" transform="translate(241.097 4426.413)">
      <path id="layer2" class="microscope-svg-2" d="M197.089,72.722a1.692,1.692,0,0,0,1.5-2.441A25.053,25.053,0,0,0,175.976,56H25.476A25.052,25.052,0,0,0,2.862,70.277a1.692,1.692,0,0,0,1.5,2.445Z" transform="translate(-2.686 119.07)"/>
      <circle id="layer3" class="microscope-svg-3" cx="20.067" cy="20.067" r="20.067" transform="translate(17.773 111.525)"/>
      <path id="layer3-2" data-name="layer3" class="microscope-svg-3" d="M98.053,64.338,42.619,8.9a6.555,6.555,0,0,0-9.237,0L14.906,27.381a6.552,6.552,0,0,0,0,9.241L70.337,92.053a6.555,6.555,0,0,0,9.237,0L98.053,73.575a6.555,6.555,0,0,0,0-9.237Z" transform="translate(21.496 4.191)"/>
      <path id="layer2-2" data-name="layer2" class="microscope-svg-2" d="M41.6,16.417,29.324,4.143a1.672,1.672,0,0,0-2.365,0L10.143,20.956a1.672,1.672,0,0,0,0,2.365L22.424,35.6m97.183,96.3a43.461,43.461,0,0,1-75.25,3.268l-.137-.334c0,.137.02.271.02.411a20.067,20.067,0,0,1-14.675,19.311A66.889,66.889,0,0,0,144.871,131.9Zm-81-10.592a43.478,43.478,0,0,1,16.582-44.4L38.507,60.226a66.758,66.758,0,0,0-24.351,51.608q0,2.973.254,5.886A20.027,20.027,0,0,1,38.6,121.3Z" transform="translate(13.65 -3.654)"/>
      <path id="layer1" class="microscope-svg-4" d="M81.233,91.03c-1.11.057-2.217.137-3.344.137A66.755,66.755,0,0,1,26.431,67.013,19.849,19.849,0,0,1,11,65.053V91.167H81.233Zm90.3-43.341H77.889a3.344,3.344,0,0,1,0-6.689h93.644a3.344,3.344,0,1,1,0,6.689Z" transform="translate(16.807 83.903)"/>
      <path id="opacity" class="microscope-svg-5" d="M14.911,19.578l9.237-9.241L88.82,75.019l-9.244,9.234a6.548,6.548,0,0,1-9.234,0L14.911,28.818a6.552,6.552,0,0,1,0-9.241Z" transform="translate(21.507 12.015)"/>
      <path id="opacity-2" data-name="opacity" class="microscope-svg-5" d="M10.143,14.728l8.411-8.415L32.013,19.774l-9.589,9.6L10.143,17.092a1.672,1.672,0,0,1,0-2.365ZM38.5,53.978a67.267,67.267,0,0,0-9.4,9.515L45.818,80.215a43.849,43.849,0,0,1,9.364-9.562Zm-.12,89.22-.037-.037a19.92,19.92,0,0,1-24.18,3.214v21.037Z" transform="translate(13.65 2.581)"/>
    </g>
  </g>
</svg>
