<svg class="molecule-2-green-svg" xmlns="http://www.w3.org/2000/svg" viewBox="0 0 306 306">
  <defs>
    <style>
      .molecule-2-green-svg-1 {
        fill: #f3f3f3;
      }

      .molecule-2-green-svg-2 {
        fill: #7c89ad;
      }

      .molecule-2-green-svg-3 {
        fill: #92d5b5;
      }

      .molecule-2-green-svg-4 {
        fill: #000064;
        opacity: 0.15;
      }
    </style>
  </defs>
  <g id="Group_1121" data-name="Group 1121" transform="translate(-6319 -2084)">
    <circle id="Ellipse_1728" data-name="Ellipse 1728" class="molecule-2-green-svg-1" cx="153" cy="153" r="153" transform="translate(6319 2084)"/>
    <g id="share-8538_df543338-c6d4-425d-abe5-7056ad66ba44" transform="translate(6404 2169)">
      <path id="layer2" class="molecule-2-green-svg-2" d="M71.068,88.59a2.212,2.212,0,0,1-.986-.234L21.176,63.9a2.212,2.212,0,0,1,1.98-3.957L72.05,84.4a2.212,2.212,0,0,1-.991,4.192ZM22.158,44.353a2.212,2.212,0,0,1-.991-4.192L70.079,15.706a2.212,2.212,0,0,1,1.98,3.957L23.147,44.118a2.212,2.212,0,0,1-.989.234Z" transform="translate(21.744 16.327)"/>
      <circle id="layer1" class="molecule-2-green-svg-3" cx="22.119" cy="22.119" r="22.119" transform="translate(90.476 90.476)"/>
      <circle id="layer1-2" data-name="layer1" class="molecule-2-green-svg-3" cx="22.119" cy="22.119" r="22.119" transform="translate(2 46.238)"/>
      <circle id="layer1-3" data-name="layer1" class="molecule-2-green-svg-3" cx="22.119" cy="22.119" r="22.119" transform="translate(90.476 2)"/>
      <path id="opacity" class="molecule-2-green-svg-4" d="M2,68.357A22.119,22.119,0,0,0,24.119,90.476V46.238A22.119,22.119,0,0,0,2,68.357Zm88.476,44.238a22.119,22.119,0,0,0,22.119,22.119V90.476A22.119,22.119,0,0,0,90.476,112.594Zm0-88.476a22.119,22.119,0,0,0,22.119,22.119V2A22.119,22.119,0,0,0,90.476,24.119Z" transform="translate(0)"/>
    </g>
  </g>
</svg>
