<svg class="notebook-pulse-blue-svg" version="1.1" id="Layer_1" xmlns="http://www.w3.org/2000/svg" xmlns:xlink="http://www.w3.org/1999/xlink" x="0px" y="0px"
	 viewBox="0 0 272.7 273.6" notebook-pulse-blue-yle="enable-background:new 0 0 272.7 273.6;" xml:space="preserve">
<style type="text/css">
	.notebook-pulse-blue-0{fill:#FFFFFF;}
	.notebook-pulse-blue-1{fill:#A5A5A5;}
	.notebook-pulse-blue-2{opacity:0.12;fill:#000064;enable-background:new    ;}
	.notebook-pulse-blue-3{opacity:0.75;fill:#426D85;enable-background:new    ;}
	.notebook-pulse-blue-4{fill:#E1EEF9;}
	.notebook-pulse-blue-5{fill:#41C5EB;}
</style>
<g id="Group_1239" transform="translate(-968.072 -43.072)">
	<g transform="matrix(1, 0, 0, 1, 968.07, 43.07)">
		<circle id="Ellipse_1371-2" class="notebook-pulse-blue-0" cx="137" cy="137" r="137"/>
	</g>
	<g id="Group_1062" transform="translate(13508.252 6501.02)">
		<path id="layer4" class="notebook-pulse-blue-1" d="M-12353.4-6377.6h-27c2.8,2.2,4.4,5.6,4.3,9.1v6.8h-54.6v-6.8c-0.1-3.5,1.4-6.9,4.2-9.1h-26.9
			c-2.5,0-4.5,2-4.5,4.5l0,0v116c0,2.5,2,4.5,4.5,4.5c0,0,0,0,0,0h100c2.5,0,4.5-2,4.5-4.5v-116
			C-12348.9-6375.6-12350.9-6377.6-12353.4-6377.6z"/>
		<path id="opacity" class="notebook-pulse-blue-2" d="M-12458-6352.6v95.5c0,2.5,2,4.5,4.5,4.5h77.3l13.6-13.6l-81.9-100L-12458-6352.6z"/>
		<path id="layer3" class="notebook-pulse-blue-3" d="M-12387.5-6379.9h-4.8c-1.3-6.2-7.3-10.1-13.4-8.9c-4.5,0.9-8,4.4-8.9,8.9h-4.8
			c-5.9-0.4-11,4.2-11.4,10.1c0,0.4,0,0.9,0,1.3v6.8h54.6v-6.8c0.3-6-4.3-11.1-10.3-11.4
			C-12386.8-6379.9-12387.2-6379.9-12387.5-6379.9z"/>
		<path id="layer2" class="notebook-pulse-blue-4" d="M-12376.1-6366.3h13.6v100h-81.9v-100h13.6v4.5h54.6V-6366.3z"/>
		<path id="opacity-2" class="notebook-pulse-blue-2" d="M-12437.5-6361.7v6.8h54.6v-6.8h-47.7v-6.8c0-1.3,0.2-2.7,0.6-3.9
			C-12434.8-6371-12437.8-6366.6-12437.5-6361.7L-12437.5-6361.7z"/>
		<path id="layer1" class="notebook-pulse-blue-5" d="M-12371.3-6326.9c-1.3,0-2.5,0.7-3.1,1.9l-6.5,13.1l-13.1-31.9c-0.7-1.7-2.7-2.6-4.5-1.9
			c-0.7,0.3-1.3,0.8-1.6,1.4l-13,22.3l-8.5-11.8c-0.6-0.9-1.6-1.4-2.7-1.4c-1.1,0-2.1,0.4-2.8,1.3l-7.5,9.3h-9.9v4.5h10.4
			c1,0,2-0.5,2.7-1.3l6.9-8.6l8.6,12c0.7,1,1.8,1.5,2.9,1.4c1.2-0.1,2.2-0.7,2.8-1.7l12.7-21.8l13.2,32.1c0.5,1.2,1.7,2.1,3,2.1h0.1
			c1.3,0,2.5-0.7,3.1-1.9l7.3-14.7h8.1v-4.5L-12371.3-6326.9z"/>
		<path id="opacity-3" class="notebook-pulse-blue-2" d="M-12370.6-6322.3l-7.3,14.7c-0.6,1.2-1.8,1.9-3.1,1.9h-0.1c-1.3,0-2.5-0.9-3-2.1l-13.2-32.1
			l-12.7,21.8c-0.6,1-1.6,1.6-2.8,1.7c-1.2,0.1-2.3-0.5-2.9-1.4l-8.6-12l-6.9,8.6c-0.6,0.8-1.6,1.3-2.7,1.3h-10.4v56.3h36.5
			l45.4-58.6L-12370.6-6322.3z"/>
	</g>
</g>
</svg>
