<svg class="other-factors-svg" xmlns="http://www.w3.org/2000/svg" viewBox="0 0 145.337 145.338">
  <defs>
    <style>
      .other-factors-cls-1 {
        fill: #f2f2f2;
        opacity: 0.4;
      }

      .other-factors-cls-2, .other-factors-cls-4 {
        fill: #063f5f;
      }

      .other-factors-cls-3 {
        fill: #41c5eb;
      }

      .other-factors-cls-4 {
        opacity: 0.15;
      }

      .other-factors-cls-5 {
        fill: #7b8baf;
      }

      .other-factors-cls-6 {
        fill: #a5a5a5;
      }
    </style>
  </defs>
  <g id="Group_1114" data-name="Group 1114" transform="translate(-529.998 -1133.721)">
    <ellipse id="Ellipse_1616" data-name="Ellipse 1616" class="other-factors-cls-1" cx="72.669" cy="72.669" rx="72.669" ry="72.669" transform="translate(529.998 1133.721)"/>
    <g id="dna-8800_0444556d-4616-4a11-8d38-0fd7763aa0a4" transform="translate(572.92 1166.484)">
      <path id="layer4" class="other-factors-cls-2" d="M33,16.206l-4.606,1.8C24.111,19.8,20.2,21.939,17.64,25.164h30.7C44.88,20.809,38.946,18.438,33,16.206Z" transform="translate(0.545 2.271)"/>
      <path id="layer3" class="other-factors-cls-3" d="M49.712,8H17.07c3.218,4.654,9.762,6.971,16.321,9.432C39.95,14.971,46.494,12.654,49.712,8Zm-.977,18.39h-30.7A14.237,14.237,0,0,0,15,35.585h36.78a14.22,14.22,0,0,0-3.046-9.195Z" transform="translate(0.15 1.046)"/>
      <path id="layer4-2" data-name="layer4" class="other-factors-cls-2" d="M51.78,32H15a12.974,12.974,0,0,0,3.542,9.195h29.7A12.974,12.974,0,0,0,51.78,32ZM33.39,49.545l-4.614,1.871C23.874,53.5,19.45,55.882,17,59.585H49.769C46.568,54.745,39.989,52.165,33.39,49.545Z" transform="translate(0.15 4.631)"/>
      <path id="layer3-2" data-name="layer3" class="other-factors-cls-3" d="M47.777,40h-29.7c3.515,3.8,9.177,6.1,14.848,8.35C38.6,46.1,44.262,43.8,47.777,40Z" transform="translate(0.611 5.826)"/>
      <path id="opacity" class="other-factors-cls-4" d="M33.391,17.432V8H17.07c3.218,4.654,9.762,6.971,16.321,9.432ZM18.035,26.39A14.237,14.237,0,0,0,15,35.585a12.974,12.974,0,0,0,3.542,9.195c3.515,3.8,9.177,6.1,14.848,8.35v-35.7l-4.606,1.8C24.506,21.028,20.592,23.165,18.035,26.39ZM28.777,55C23.874,57.084,19.45,59.467,17,63.17H33.391V53.13Z" transform="translate(0.15 1.046)"/>
      <path id="layer1" class="other-factors-cls-5" d="M33.128,17.091C24.471,13.86,16.3,10.8,16.3,2.149a1.149,1.149,0,1,0-2.3,0c0,10.247,9.31,13.73,18.321,17.1,9.494,3.55,18.459,6.9,18.459,17.381h2.3C53.079,24.562,42.477,20.595,33.128,17.091Z" transform="translate(0.001)"/>
      <path id="layer2" class="other-factors-cls-6" d="M33.944,17.091C42.6,13.86,50.78,10.8,50.78,2.149a1.149,1.149,0,1,1,2.3,0c0,10.247-9.316,13.73-18.324,17.1C25.264,22.8,16.3,26.153,16.3,36.631H14C14,24.562,24.595,20.595,33.944,17.091ZM16.3,36.631c0,9.464,8.717,12.925,17.946,16.589,9.263,3.675,18.834,7.476,18.834,17.892a1.149,1.149,0,0,1-2.3,0c0-8.856-8.444-12.207-17.383-15.757C23.864,51.572,14,47.656,14,36.631Z" transform="translate(0.001)"/>
      <path id="layer1-2" data-name="layer1" class="other-factors-cls-5" d="M50.771,32c0,9.464-8.717,12.925-17.946,16.589-9.259,3.678-18.834,7.471-18.834,17.892a1.149,1.149,0,0,0,2.3,0c0-8.856,8.444-12.207,17.383-15.757,9.536-3.783,19.4-7.7,19.4-18.724Z" transform="translate(0 4.631)"/>
    </g>
  </g>
</svg>
