<svg xmlns="http://www.w3.org/2000/svg" viewBox="0 0 54 54">
  <defs>
    <style>
      .cls-1 {
        fill: #f9f9f9;
      }

      .cls-2 {
        fill: #8caf61;
      }

      .cls-3 {
        fill: #d4dc9a;
      }

      .cls-4 {
        fill: #a7c180;
      }
    </style>
  </defs>
  <g id="Group_1209" data-name="Group 1209" transform="translate(-756 -1445)">
    <circle id="Ellipse_1745" data-name="Ellipse 1745" class="cls-1" cx="27" cy="27" r="27" transform="translate(756 1445)"/>
    <g id="broccoli-7035_440dd187-b5f5-429a-aa22-6ff8b449cb9c" transform="translate(767.173 1458.809)">
      <path id="layer3" class="cls-2" d="M30.367,17.575a3.6,3.6,0,0,0-5.694-4.342,6.706,6.706,0,0,0-13.267-.886,3.091,3.091,0,0,0-4.261,2.868c0,.016,0,.031.005.047a4.444,4.444,0,0,0-.522-.052,4.646,4.646,0,0,0,0,9.292,4.63,4.63,0,0,0,.681-.072,3.085,3.085,0,0,0,5.3,1.039h.018l-.33-3.362a6.679,6.679,0,0,0,7.041-1.863,6.749,6.749,0,0,0,3.142,3.01L22,25.643a3.6,3.6,0,0,0,6.485-.143c.121.01.238.036.361.036a4.126,4.126,0,0,0,1.522-7.962Z" transform="translate(-1.981 -6.961)"/>
      <path id="layer2" class="cls-3" d="M29,32.691a6.679,6.679,0,0,1-7.041,1.863l.331,3.364.722,7.295H30.24l1.424-7.124.478-2.39A6.749,6.749,0,0,1,29,32.691Z" transform="translate(-11.646 -19.409)"/>
      <path id="layer1" class="cls-4" d="M30.012,48.774v-8.2a.516.516,0,1,0-1.032,0v8.2Z" transform="translate(-15.042 -22.97)"/>
    </g>
  </g>
</svg>
