<svg xmlns="http://www.w3.org/2000/svg" viewBox="0 0 518.563 171.778">
  <defs>
    <style>
      .cls-1, .cls-3, .cls-5 {
        fill: #063f5f;
      }

      .cls-1 {
        font-size: 11px;
        font-family: Roboto-Medium, Roboto;
      }

      .cls-1, .cls-8 {
        font-weight: 500;
      }

      .cls-2, .cls-7 {
        fill: #41c5eb;
      }

      .cls-4, .cls-6 {
        fill: #dd972a;
      }

      .cls-5, .cls-6, .cls-7 {
        font-size: 12px;
        font-family: Roboto-Regular, Roboto;
      }

      .cls-8 {
        font-size: 8px;
        font-family: CircularStd-Medium, Circular Std Medium;
      }
    </style>
  </defs>
  <g id="Group_1199" data-name="Group 1199" transform="translate(-507.595 -742.465)">
    <text id="ApoE_breakdown_of_the_US_population" data-name="ApoE breakdown of the 
US population" class="cls-1" transform="translate(573.205 752.465)"><tspan x="-58.368" y="0">ApoE breakdown of the </tspan><tspan x="-34.458" y="13">US population</tspan></text>
    <g id="Group_745" data-name="Group 745" transform="translate(507.595 783.789)">
      <path id="Path_684" data-name="Path 684" class="cls-2" d="M133.268-129.894c35.662,0,64.572,29.2,64.572,65.227S168.93.56,133.268.56C100.945.56,73.6-23.583,69.277-55.94l63.991-8.726Z" transform="translate(-68.689 129.894)"/>
      <path id="Path_685" data-name="Path 685" class="cls-3" d="M69.532-56.168c-4.771-35.7,20.011-68.547,55.352-73.367l.506-.067,8.133,64.707Z" transform="translate(-68.943 130.122)"/>
      <path id="Path_686" data-name="Path 686" class="cls-4" d="M100.945-129.374a63.928,63.928,0,0,1,8.133-.52v65.227Z" transform="translate(-44.5 129.894)"/>
    </g>
    <text id="_25_" data-name="25%" class="cls-5" transform="translate(641.144 814.878)"><tspan x="0" y="0">25%</tspan></text>
    <text id="_56_" data-name="56%" class="cls-5" transform="translate(851.923 814.878)"><tspan x="0" y="0">56%</tspan></text>
    <text id="_2_" data-name="2%" class="cls-6" transform="translate(647.106 851.869)"><tspan x="0" y="0">2%</tspan></text>
    <text id="_11_" data-name="11%" class="cls-6" transform="translate(851.923 851.869)"><tspan x="0" y="0">11%</tspan></text>
    <text id="_73_" data-name="73%" class="cls-7" transform="translate(641.57 888.861)"><tspan x="0" y="0">73%</tspan></text>
    <text id="_33_" data-name="33%" class="cls-7" transform="translate(852.349 888.861)"><tspan x="0" y="0">33%</tspan></text>
    <g id="Group_749" data-name="Group 749" transform="translate(716.462 802.145)">
      <text id="One_copy_of_e4" data-name="One copy of e4" class="cls-8" transform="translate(19.841 9.864)"><tspan x="0" y="0">One copy of e4</tspan></text>
      <circle id="Ellipse_1642" data-name="Ellipse 1642" class="cls-3" cx="7.52" cy="7.52" r="7.52" transform="translate(0 0)"/>
      <text id="Two_copies_of_e4" data-name="Two copies of e4" class="cls-8" transform="translate(19.841 40.991)"><tspan x="0" y="0">Two copies of e4</tspan></text>
      <circle id="Ellipse_1642-2" data-name="Ellipse 1642" class="cls-4" cx="7.52" cy="7.52" r="7.52" transform="translate(0 31.127)"/>
      <text id="No_copies_of_e4" data-name="No copies of e4" class="cls-8" transform="translate(19.841 72.118)"><tspan x="0" y="0">No copies of e4</tspan></text>
      <circle id="Ellipse_1642-3" data-name="Ellipse 1642" class="cls-2" cx="7.52" cy="7.52" r="7.52" transform="translate(0 62.254)"/>
    </g>
    <path id="Path_687" data-name="Path 687" class="cls-3" d="M286.638-144.929c35.662,0,64.572,29.2,64.572,65.227S322.3-14.475,286.638-14.475a64,64,0,0,1-23.77-4.58L286.638-79.7Z" transform="translate(663.047 928.718)"/>
    <path id="Path_689" data-name="Path 689" class="cls-4" d="M271.207-36.122a64.785,64.785,0,0,1-32.814-29.223l56.585-31.423Z" transform="translate(654.707 945.784)"/>
    <path id="Path_688" data-name="Path 688" class="cls-2" d="M240.426-48.279c-17.18-31.568-5.774-71.228,25.477-88.582a64.061,64.061,0,0,1,31.108-8.068V-79.7Z" transform="translate(652.674 928.718)"/>
    <text id="ApoE_Status_of_US_Population_living_with_Alzheimer_s_disease" data-name="ApoE Status of US Population 
living with Alzheimer’s disease" class="cls-1" transform="translate(950.157 752.465)"><tspan x="-74.118" y="0">ApoE Status of US Population </tspan><tspan x="-75.021" y="13">living with Alzheimer’s disease</tspan></text>
  </g>
</svg>
