<svg xmlns="http://www.w3.org/2000/svg" viewBox="0 0 54 54">
  <defs>
    <style>
      .cls-1 {
        fill: #f9f9f9;
      }

      .cls-2 {
        fill: #f26161;
      }

      .cls-3 {
        fill: #fff;
      }

      .cls-4 {
        fill: #000064;
        opacity: 0.15;
      }
    </style>
  </defs>
  <g id="Group_1208" data-name="Group 1208" transform="translate(-756 -1205)">
    <circle id="Ellipse_1743" data-name="Ellipse 1743" class="cls-1" cx="27" cy="27" r="27" transform="translate(756 1205)"/>
    <g id="heartbeat-8736_e8d6f126-dcdb-4e75-9c4f-460f43196b24" transform="translate(767.172 1220.828)">
      <path id="layer2" class="cls-2" d="M30.426,22.48c-4.014,6.248-11.413,10.38-11.413,10.38s-7.173-3.985-11.255-9.85L6.5,20.94A12.384,12.384,0,0,1,5,15.248C5,5.436,16.9,5.415,18.973,12.66c2.07-7.245,13.972-7.245,13.972,2.07a13.223,13.223,0,0,1-1.368,5.692Z" transform="translate(-2.93 -7.461)"/>
      <path id="layer1" class="cls-3" d="M32.567,27.735H23.412c-.294,0-.56.036-.694.3l-1.49,2.917-2.99-7.294a.789.789,0,0,0-.664-.5.773.773,0,0,0-.724.376L13.893,28.6l-1.923-2.7a.771.771,0,0,0-.61-.326c-.244-.008-.474.227-.628.419l-1.7,2.254H1.517a.517.517,0,1,0,0,1.035H9.156c.236,0,.457-.234.605-.419l1.565-2.018,1.958,2.709a.752.752,0,0,0,.667.31.783.783,0,0,0,.635-.393l2.894-4.965,3.008,7.355a.8.8,0,0,0,.69.526h.029a.706.706,0,0,0,.693-.353l1.672-3.27h9a.517.517,0,0,0,0-1.035Z" transform="translate(-1 -15.036)"/>
      <path id="opacity" class="cls-4" d="M9.6,31.841c4.082,5.867,11.255,9.85,11.255,9.85s7.4-4.132,11.413-10.38l.719-1.285H27.341L25.669,33.3a.706.706,0,0,1-.695.353h-.029a.8.8,0,0,1-.69-.53l-3.007-7.355-2.894,4.965a.783.783,0,0,1-.635.393.752.752,0,0,1-.667-.31L15.094,28.1,13.529,30.12c-.149.185-.369.419-.605.419H8.808Z" transform="translate(-4.767 -16.292)"/>
    </g>
  </g>
</svg>
