<svg id="Group_1061" data-name="Group 1061" xmlns="http://www.w3.org/2000/svg" viewBox="0 0 54 54">
  <defs>
    <style>
      .cls-1 {
        fill: #f9f9f9;
      }

      .cls-2 {
        fill: #71c3f3;
      }

      .cls-3 {
        fill: #000064;
        opacity: 0.15;
      }

      .cls-4 {
        fill: #fff;
      }

      .cls-5 {
        fill: #ffdda4;
      }

      .cls-6 {
        fill: #41c5eb;
      }

      .cls-7 {
        fill: #fbaa51;
      }
    </style>
  </defs>
  <g id="Group_860" data-name="Group 860" transform="translate(0)">
    <circle id="Ellipse_1744" data-name="Ellipse 1744" class="cls-1" cx="27" cy="27" r="27"/>
    <g id="idea-7781_68fa8098-1471-4e62-9b6d-692ff2279374" transform="translate(14.896 13.035)">
      <path id="layer3" class="cls-2" d="M19.735,2C13.353,2,8.794,4.364,8.794,9.294v4.559A9.1,9.1,0,0,1,6.971,17.5c-.4.4-.569,1.14.428,1.417.852.238,1.133.169,1.226.775s-.258,1.276.254,1.464.03.789.581,1.25c.357.3-.437,2.379,1.539,2.379h2.159c1.07,0,1.108.765,1.108,1.834a7.7,7.7,0,0,1-.912,2.735H26.118s-1.824-1.869-1.824-3.647c0-2.745,5.471-7.052,5.471-14.588C29.765,3.912,24.294,2,19.735,2Z" transform="translate(-6.658 -2)"/>
      <path id="opacity" class="cls-3" d="M13.281,16.811,8.793,21.3v.613A9.1,9.1,0,0,1,6.97,25.558c-.4.4-.569,1.14.428,1.417.852.238,1.133.169,1.226.775s-.258,1.276.254,1.464.03.789.581,1.25c.357.3-.437,2.379,1.539,2.379h2.16a1.209,1.209,0,0,1,.643.149L25.331,21.456Z" transform="translate(-6.657 -10.059)"/>
      <path id="layer2" class="cls-4" d="M30.17,11.906a5.006,5.006,0,0,0-7.838-.027,3.642,3.642,0,0,0,.635,7.23h.011v.01h6.382V19.1a3.644,3.644,0,0,0,.809-7.2Z" transform="translate(-13.548 -6.353)"/>
      <path id="layer1" class="cls-5" d="M31.079,29.949a.456.456,0,0,1-.378-.71l1.8-2.68H28.8a.456.456,0,0,1-.379-.708L30.852,22.2a.456.456,0,0,1,.759.506l-1.959,2.938h3.707a.456.456,0,0,1,.378.71l-2.279,3.389A.456.456,0,0,1,31.079,29.949Z" transform="translate(-18.458 -12.883)"/>
    </g>
  </g>
  <g id="idea-7781_68fa8098-1471-4e62-9b6d-692ff2279374-2" data-name="idea-7781_68fa8098-1471-4e62-9b6d-692ff2279374" transform="translate(13.286 12.156)">
    <path id="layer3-2" data-name="layer3" class="cls-6" d="M20.807,2C13.9,2,8.969,4.557,8.969,9.892v4.932A9.845,9.845,0,0,1,7,18.77C6.569,19.2,6.38,20,7.459,20.3c.921.257,1.226.182,1.327.839s-.279,1.381.275,1.584.033.853.628,1.352c.387.324-.473,2.574,1.665,2.574H13.69c1.158,0,1.2.828,1.2,1.985A8.326,8.326,0,0,1,13.9,31.6H27.713s-1.973-2.022-1.973-3.946c0-2.97,5.919-7.63,5.919-15.784C31.658,4.069,25.74,2,20.807,2Z" transform="translate(-6.658 -2)"/>
    <path id="opacity-2" data-name="opacity" class="cls-3" d="M13.823,16.811,8.968,21.666v.663A9.845,9.845,0,0,1,7,26.275c-.428.429-.616,1.233.463,1.533.921.257,1.226.182,1.327.839s-.279,1.381.275,1.584.033.853.628,1.352c.387.324-.473,2.574,1.665,2.574h2.336a1.308,1.308,0,0,1,.7.161L26.861,21.837Z" transform="translate(-6.657 -9.506)"/>
    <path id="layer2-2" data-name="layer2" class="cls-4" d="M31.059,12.062a5.416,5.416,0,0,0-8.48-.029,3.941,3.941,0,0,0,.687,7.822h.012v.01h6.905v-.017a3.942,3.942,0,0,0,.876-7.787Z" transform="translate(-13.075 -6.055)"/>
    <path id="layer1-2" data-name="layer1" class="cls-7" d="M31.3,30.6a.493.493,0,0,1-.409-.768l1.949-2.9H28.837a.493.493,0,0,1-.41-.766l2.63-3.946a.494.494,0,0,1,.821.547l-2.12,3.178H33.77a.493.493,0,0,1,.409.768l-2.466,3.667A.493.493,0,0,1,31.3,30.6Z" transform="translate(-17.647 -12.135)"/>
  </g>
</svg>
