<svg xmlns="http://www.w3.org/2000/svg" viewBox="0 0 54 54">
  <defs>
    <style>
      .cls-1 {
        fill: #f9f9f9;
      }

      .cls-2 {
        fill: #41c5eb;
      }

      .cls-3 {
        fill: #dff4fc;
      }

      .cls-4 {
        fill: #fbaa51;
      }

      .cls-5 {
        fill: #063f5f;
      }
    </style>
  </defs>
  <g id="Group_1210" data-name="Group 1210" transform="translate(-380.27 -927.27)">
    <circle id="Ellipse_1789" data-name="Ellipse 1789" class="cls-1" cx="27" cy="27" r="27" transform="translate(380.27 927.27)"/>
    <g id="Group_1196" data-name="Group 1196" transform="matrix(0.966, -0.259, 0.259, 0.966, 390.455, 941.473)">
      <path id="Subtraction_4" data-name="Subtraction 4" class="cls-2" d="M6.689,13.981A1.982,1.982,0,0,1,4.707,12a2,2,0,0,1,.046-.425H0V3.185A3.183,3.183,0,0,1,3.185,0h8.388V3.785a2.974,2.974,0,0,0,0,5.809v1.98H8.626A2,2,0,0,1,8.672,12a1.982,1.982,0,0,1-1.982,1.982Z" transform="translate(0 4.725)"/>
      <path id="Union_3" data-name="Union 3" class="cls-3" d="M0,13.981v-3.36a2.989,2.989,0,0,0,2.336-2.9A2.989,2.989,0,0,0,0,4.811v-2.4H3.9a1.982,1.982,0,1,1,3.873,0h3.8V10.8a3.183,3.183,0,0,1-3.185,3.185Z" transform="translate(12.636 14.954)"/>
      <path id="Union_4" data-name="Union 4" class="cls-4" d="M16.688,16.246H11.139a2.974,2.974,0,0,0-5.785,0H2.46V13.339a1.982,1.982,0,1,1,0-3.848V0h11.1a3.13,3.13,0,0,1,3.132,3.132V16.246h0Z" transform="translate(10.229 0)"/>
      <path id="Union_2" data-name="Union 2" class="cls-5" d="M3.185,11.574A3.183,3.183,0,0,1,0,8.388V0H3.785a2.989,2.989,0,0,0,2.9,2.336A2.989,2.989,0,0,0,9.594,0h1.98V3.373a1.982,1.982,0,1,1,0,3.873v4.328Z" transform="translate(0 17.361)"/>
    </g>
  </g>
</svg>
