<svg xmlns="http://www.w3.org/2000/svg" viewBox="0 0 511.046 114.066">
  <defs>
    <style>
      .cls-1 {
        fill: none;
        stroke: #f2f2f2;
        stroke-width: 2px;
      }

      .cls-2 {
        font-size: 12px;
        font-family: Roboto-Medium, Roboto;
        font-weight: 500;
      }

      .cls-3 {
        font-size: 11px;
        font-family: Roboto-Light, Roboto;
        font-weight: 300;
      }
    </style>
  </defs>
  <g id="Group_1224" data-name="Group 1224" transform="translate(-50 -468)">
    <line id="Line_312" data-name="Line 312" class="cls-1" x2="511.046" transform="translate(50 529.347)"/>
    <line id="Line_313" data-name="Line 313" class="cls-1" x2="511.046" transform="translate(50 555.207)"/>
    <line id="Line_314" data-name="Line 314" class="cls-1" x2="511.046" transform="translate(50 581.066)"/>
    <line id="Line_315" data-name="Line 315" class="cls-1" x2="511.046" transform="translate(50 503.488)"/>
    <text id="Age" class="cls-2" transform="translate(64.639 485)"><tspan x="-10.614" y="0">Age</tspan></text>
    <text id="_65" data-name="65" class="cls-3" transform="translate(62.91 519.919)"><tspan x="-6.096" y="0">65</tspan></text>
    <text id="_75" data-name="75" class="cls-3" transform="translate(62.91 546.098)"><tspan x="-6.096" y="0">75</tspan></text>
    <text id="_85" data-name="85" class="cls-3" transform="translate(62.91 571.569)"><tspan x="-6.096" y="0">85</tspan></text>
    <text id="e4_e4" data-name="e4/e4" class="cls-2" transform="translate(535.641 485)"><tspan x="-15.633" y="0">e4/e4</tspan></text>
    <text id="e2_e2_or_e2_e3" data-name="e2/e2 
or e2/e3" class="cls-2" transform="translate(155.167 479)"><tspan x="-17.127" y="0">e2/e2 </tspan><tspan x="-22.652" y="14">or e2/e3</tspan></text>
    <text id="e3_e3" data-name="e3/e3" class="cls-2" transform="translate(256.791 485)"><tspan x="-15.633" y="0">e3/e3</tspan></text>
    <text id="e2_e4" data-name="e2/e4" class="cls-2" transform="translate(356.637 485)"><tspan x="-15.633" y="0">e2/e4</tspan></text>
    <text id="e3_e4" data-name="e3/e4" class="cls-2" transform="translate(454.983 485)"><tspan x="-15.633" y="0">e3/e4</tspan></text>
    <text id="_0.2_" data-name="0.2%" class="cls-3" transform="translate(155.348 519.919)"><tspan x="-11.473" y="0">0.2%</tspan></text>
    <text id="_1_" data-name="1%" class="cls-3" transform="translate(156.475 546.098)"><tspan x="-7.111" y="0">1%</tspan></text>
    <text id="_7_" data-name="7%" class="cls-3" transform="translate(156.475 571.569)"><tspan x="-7.111" y="0">7%</tspan></text>
    <text id="_0.2_2" data-name="0.2%" class="cls-3" transform="translate(257.06 519.919)"><tspan x="-11.473" y="0">0.2%</tspan></text>
    <text id="_1_2" data-name="1%" class="cls-3" transform="translate(258.187 546.098)"><tspan x="-7.111" y="0">1%</tspan></text>
    <text id="_7_2" data-name="7%" class="cls-3" transform="translate(258.187 571.569)"><tspan x="-7.111" y="0">7%</tspan></text>
    <text id="_0.2_3" data-name="0.2%" class="cls-3" transform="translate(357.528 519.919)"><tspan x="-11.473" y="0">0.2%</tspan></text>
    <text id="_1_3" data-name="1%" class="cls-3" transform="translate(358.656 546.098)"><tspan x="-7.111" y="0">1%</tspan></text>
    <text id="_7_3" data-name="7%" class="cls-3" transform="translate(358.656 571.569)"><tspan x="-7.111" y="0">7%</tspan></text>
    <text id="_0.2_4" data-name="0.2%" class="cls-3" transform="translate(458.705 519.919)"><tspan x="-11.473" y="0">0.2%</tspan></text>
    <text id="_1_4" data-name="1%" class="cls-3" transform="translate(459.832 546.098)"><tspan x="-7.111" y="0">1%</tspan></text>
    <text id="_7_4" data-name="7%" class="cls-3" transform="translate(459.832 571.569)"><tspan x="-7.111" y="0">7%</tspan></text>
    <text id="_0.2_5" data-name="0.2%" class="cls-3" transform="translate(536.533 519.919)"><tspan x="-11.473" y="0">0.2%</tspan></text>
    <text id="_1_5" data-name="1%" class="cls-3" transform="translate(537.66 546.098)"><tspan x="-7.111" y="0">1%</tspan></text>
    <text id="_7_5" data-name="7%" class="cls-3" transform="translate(537.66 571.569)"><tspan x="-7.111" y="0">7%</tspan></text>
  </g>
</svg>
