<svg xmlns="http://www.w3.org/2000/svg" viewBox="0 0 250 60.275">
  <defs>
    <style>
      .cls-1 {
        fill: #f45b83;
      }

      .cls-2 {
        fill: #7acb71;
      }

      .cls-3 {
        fill: #f8be08;
      }

      .cls-4 {
        fill: #3f4c77;
      }

      .cls-5 {
        fill: #777;
      }
    </style>
  </defs>
  <g id="Group_368" data-name="Group 368" transform="translate(-0.015)">
    <circle id="Ellipse_84" data-name="Ellipse 84" class="cls-1" cx="13.425" cy="13.425" r="13.425" transform="translate(1.011 0.95)"/>
    <path id="Path_209" data-name="Path 209" class="cls-2" d="M153.9,145.55l-12.5,7.2-12.5-7.2V131.125l12.5-7.225,12.5,7.225Z" transform="translate(-96.664 -92.925)"/>
    <path id="Path_210" data-name="Path 210" class="cls-3" d="M135.625,7.5,142.85,20l7.2,12.5H121.2L128.425,20Z" transform="translate(-90.889 -5.625)"/>
    <rect id="Rectangle_226" data-name="Rectangle 226" class="cls-4" width="20.4" height="20.4" transform="translate(14.439 30.973) rotate(45)"/>
    <path id="Path_211" data-name="Path 211" class="cls-5" d="M332.4,62.926v-26H298.65V62.951H291.9V3.8h6.75V30.5H332.4V3.8h6.75V62.951H332.4Z" transform="translate(-218.913 -2.85)"/>
    <path id="Path_212" data-name="Path 212" class="cls-5" d="M711.5,62.926V3.8H718V62.951h-6.5Z" transform="translate(-533.612 -2.85)"/>
    <path id="Path_213" data-name="Path 213" class="cls-5" d="M788.9,4.575a4.307,4.307,0,1,1-8.6,0,4.308,4.308,0,1,1,8.6,0Z" transform="translate(-585.211)"/>
    <rect id="Rectangle_227" data-name="Rectangle 227" class="cls-5" width="6.5" height="44.526" transform="translate(196.139 15.575)"/>
    <path id="Path_214" data-name="Path 214" class="cls-5" d="M868.926,62.3H876.2L861.325,83.925l15.975,22.9h-7.7L856.925,88.65l-13.1,18.175H836.4l16.225-22.9L837.5,62.3h7.6l11.825,16.9Z" transform="translate(-627.286 -46.725)"/>
    <g id="Group_367" data-name="Group 367" transform="translate(128.463 15.25)">
      <path id="Path_215" data-name="Path 215" class="cls-5" d="M520.3,86.15a17.021,17.021,0,0,0,1.675,6.075,14.717,14.717,0,0,0,3.425,4.5,15.426,15.426,0,0,0,10.25,3.75,17.214,17.214,0,0,0,7.9-1.675,22.013,22.013,0,0,0,5.875-4.425l4,3.575A26.494,26.494,0,0,1,546,103.826a22.618,22.618,0,0,1-10.525,2.2,22.083,22.083,0,0,1-8.425-1.625,20.908,20.908,0,0,1-6.925-4.575A21.933,21.933,0,0,1,515.5,92.7a23.7,23.7,0,0,1-1.7-9.175,25.064,25.064,0,0,1,1.55-8.8,21.784,21.784,0,0,1,4.3-7.175,20.507,20.507,0,0,1,6.625-4.8,21.181,21.181,0,0,1,16.975.05,19.14,19.14,0,0,1,6.425,4.875,21.35,21.35,0,0,1,3.925,7.25,28.762,28.762,0,0,1,1.325,8.925v.95c0,.35-.025.8-.075,1.3H520.3Zm28.15-5.25a20.037,20.037,0,0,0-1.25-5.5,15.829,15.829,0,0,0-2.7-4.6,13.007,13.007,0,0,0-4.25-3.15,13.458,13.458,0,0,0-5.725-1.15,12.813,12.813,0,0,0-5.25,1.075,13.768,13.768,0,0,0-4.35,3.025,17.145,17.145,0,0,0-3.05,4.6,18.819,18.819,0,0,0-1.55,5.725h28.125Z" transform="translate(-513.8 -61)"/>
    </g>
  </g>
</svg>
