<svg xmlns="http://www.w3.org/2000/svg" viewBox="-7696 -5329.957 916.061 427.725">
  <defs>
    <style>
      .cls-1 {
        fill: #f2f2f2;
        opacity: 0.29;
      }

      .cls-2 {
        fill: none;
        stroke: #f2f2f2;
        stroke-width: 2px;
      }

      .cls-3 {
        fill: #707070;
        opacity: 0.31;
      }

      .cls-3, .cls-6 {
        font-size: 14px;
        font-family: SegoeUI, Segoe UI;
      }

      .cls-4 {
        fill: #41c5eb;
      }

      .cls-5 {
        fill: #063f5f;
      }

      .cls-7 {
        fill: #ffbd24;
      }

      .cls-8 {
        font-size: 19px;
        font-family: CircularStd-Medium, Circular Std Medium;
        font-weight: 500;
      }
    </style>
  </defs>
  <g id="Group_826" data-name="Group 826" transform="translate(-8226 -6934.943)">
    <rect id="Rectangle_614" data-name="Rectangle 614" class="cls-1" width="555.624" height="75.009" rx="37.505" transform="translate(704.969 1957.702)"/>
    <line id="Line_302" data-name="Line 302" class="cls-2" x2="883.011" transform="translate(563.05 1653.256)"/>
    <line id="Line_303" data-name="Line 303" class="cls-2" x2="883.011" transform="translate(563.05 1689.805)"/>
    <line id="Line_304" data-name="Line 304" class="cls-2" x2="883.011" transform="translate(563.05 1726.354)"/>
    <line id="Line_305" data-name="Line 305" class="cls-2" x2="883.011" transform="translate(563.05 1762.903)"/>
    <line id="Line_306" data-name="Line 306" class="cls-2" x2="883.011" transform="translate(563.05 1799.452)"/>
    <line id="Line_307" data-name="Line 307" class="cls-2" x2="883.011" transform="translate(563.05 1836.001)"/>
    <line id="Line_309" data-name="Line 309" class="cls-2" x2="883.011" transform="translate(563.05 1872.551)"/>
    <text id="_60" data-name="60" class="cls-3" transform="translate(530 1656.536)"><tspan x="0" y="0">60</tspan></text>
    <line id="Line_308" data-name="Line 308" class="cls-2" x2="883.011" transform="translate(563.05 1616.707)"/>
    <text id="_70" data-name="70" class="cls-3" transform="translate(530 1619.986)"><tspan x="0" y="0">70</tspan></text>
    <text id="_50" data-name="50" class="cls-3" transform="translate(530 1693.085)"><tspan x="0" y="0">50</tspan></text>
    <text id="_40" data-name="40" class="cls-3" transform="translate(530 1729.634)"><tspan x="0" y="0">40</tspan></text>
    <text id="_30" data-name="30" class="cls-3" transform="translate(530 1766.183)"><tspan x="0" y="0">30</tspan></text>
    <text id="_20" data-name="20" class="cls-3" transform="translate(530 1802.732)"><tspan x="0" y="0">20</tspan></text>
    <text id="_10" data-name="10" class="cls-3" transform="translate(530 1839.281)"><tspan x="0" y="0">10</tspan></text>
    <text id="_0" data-name="0" class="cls-3" transform="translate(539.332 1875.83)"><tspan x="0" y="0">0</tspan></text>
    <rect id="Rectangle_588" data-name="Rectangle 588" class="cls-4" width="38.882" height="24.107" transform="translate(684.75 1849.61)"/>
    <rect id="Rectangle_592" data-name="Rectangle 592" class="cls-5" width="38.882" height="3.111" transform="translate(645.868 1870.607)"/>
    <text id="e2_e2_or_e2_e3" data-name="e2/e2 or
e2/e3" class="cls-6" transform="translate(675.757 1898.382)"><tspan x="-26.048" y="0">e2/e2 or</tspan><tspan x="-17.596" y="19">e2/e3</tspan></text>
    <rect id="Rectangle_585" data-name="Rectangle 585" class="cls-4" width="38.882" height="37.327" transform="translate(844.167 1836.39)"/>
    <rect id="Rectangle_590" data-name="Rectangle 590" class="cls-5" width="38.882" height="5.443" transform="translate(804.507 1868.274)"/>
    <text id="e3_e3" data-name="e3/e3" class="cls-6" transform="translate(838.838 1898.382)"><tspan x="-17.596" y="0">e3/e3</tspan></text>
    <rect id="Rectangle_584" data-name="Rectangle 584" class="cls-4" width="38.882" height="104.204" transform="translate(995.029 1769.513)"/>
    <rect id="Rectangle_589" data-name="Rectangle 589" class="cls-5" width="38.882" height="17.108" transform="translate(955.369 1856.609)"/>
    <text id="e2_e4" data-name="e2/e4" class="cls-6" transform="translate(989.7 1898.382)"><tspan x="-17.596" y="0">e2/e4</tspan></text>
    <rect id="Rectangle_583" data-name="Rectangle 583" class="cls-4" width="38.882" height="116.646" transform="translate(1166.11 1757.071)"/>
    <rect id="Rectangle_587" data-name="Rectangle 587" class="cls-5" width="38.882" height="28.773" transform="translate(1127.228 1844.944)"/>
    <rect id="Rectangle_593" data-name="Rectangle 593" class="cls-7" width="38.882" height="3.111" transform="translate(1087.568 1870.607)"/>
    <text id="e3_e4" data-name="e3/e4" class="cls-6" transform="translate(1160.781 1898.382)"><tspan x="-17.596" y="0">e3/e4</tspan></text>
    <text id="_85_years" data-name="85 years" class="cls-8" transform="translate(1172.273 1999.206)"><tspan x="-36.128" y="0">85 years</tspan></text>
    <text id="_75_years" data-name="75 years" class="cls-8" transform="translate(1008.058 1999.29)"><tspan x="-35.359" y="0">75 years</tspan></text>
    <text id="_65_years" data-name="65 years" class="cls-8" transform="translate(829.869 1999.29)"><tspan x="-36.299" y="0">65 years</tspan></text>
    <circle id="Ellipse_1610" data-name="Ellipse 1610" class="cls-7" cx="16.321" cy="16.321" r="16.321" transform="translate(750.808 1977.149)"/>
    <circle id="Ellipse_1634" data-name="Ellipse 1634" class="cls-5" cx="16.321" cy="16.321" r="16.321" transform="translate(928.608 1977.149)"/>
    <circle id="Ellipse_1635" data-name="Ellipse 1635" class="cls-4" cx="16.321" cy="16.321" r="16.321" transform="translate(1092.517 1977.149)"/>
    <rect id="Rectangle_582" data-name="Rectangle 582" class="cls-4" width="38.882" height="233.292" transform="translate(1354.299 1640.425)"/>
    <rect id="Rectangle_586" data-name="Rectangle 586" class="cls-5" width="38.882" height="110.425" transform="translate(1315.417 1763.292)"/>
    <rect id="Rectangle_591" data-name="Rectangle 591" class="cls-7" width="38.882" height="5.443" transform="translate(1275.757 1868.274)"/>
    <text id="e4_e4" data-name="e4/e4" class="cls-6" transform="translate(1331.862 1898.382)"><tspan x="-17.596" y="0">e4/e4</tspan></text>
  </g>
</svg>
